<svg width="575" height="256" viewBox="0 0 575 256" fill="none" opacity="0.5" xmlns="http://www.w3.org/2000/svg">
<path fill-rule="evenodd" clip-rule="evenodd" d="M22.8749 25.4375L31.9999 26.75C33.6249 27 34.3124 29 33.1249 30.25L26.4999 36.625L28.0624 45.6875C28.2499 47 27.2499 48.0625 26.0624 48.0625C25.7499 48.0625 25.4374 47.9375 25.1249 47.8125L16.9999 43.5L8.81241 47.8125C8.49991 47.9375 8.18741 48 7.87491 48C6.68741 48 5.68741 47 5.87491 45.6875L7.43741 36.5625L0.812413 30.1875C-0.375087 29 0.312413 27 1.93741 26.75L11.0624 25.4375L15.1874 17.125C15.5624 16.375 16.2499 16 16.9374 16C17.6874 16 18.3749 16.375 18.7499 17.125L22.8749 25.4375ZM26.0624 46L24.4374 36.4375C24.3749 36.0625 24.4999 35.75 24.7499 35.5625L31.6874 28.75L22.0624 27.3125C21.7499 27.25 21.4374 27.0625 21.3124 26.75L16.9999 18L12.6249 26.75C12.4999 27.0625 12.1874 27.25 11.8749 27.3125L2.24991 28.75L9.62491 35.875L7.87491 46L16.4999 41.5C16.8124 41.3125 17.1249 41.3125 17.4374 41.5L26.0624 46ZM117.562 34.125L118.875 35.125C122.687 37.875 125 42.3125 125 47C125 47.5625 124.5 48 124 48C123.437 48 123 47.5625 123 47C123 46.8509 122.986 46.7017 122.971 46.5458C122.954 46.375 122.937 46.196 122.937 46H103V47C103 47.5625 102.5 48 102 48C101.437 48 101 47.5625 101 47C101 42.3125 103.25 37.875 107.062 35.125L111.25 32L107.062 28.9375C103.25 26.1875 101 21.75 101 17C101 16.5 101.437 16 102 16C102.5 16 103 16.5 103 17V18H122.937C122.937 17.8509 122.952 17.7017 122.967 17.5458C122.983 17.375 123 17.196 123 17C123 16.5 123.437 16 124 16C124.5 16 125 16.5 125 17C125 21.75 122.687 26.1875 118.812 28.9375L108.187 36.75C107.625 37.125 107.125 37.5625 106.687 38H119.25C118.75 37.5625 118.25 37.125 117.75 36.75L116.375 35.75C115.937 35.4375 115.812 34.8125 116.187 34.375C116.5 33.875 117.125 33.8125 117.562 34.125ZM120.875 24C121.687 22.8125 122.25 21.4375 122.625 20H103.312C103.687 21.4375 104.25 22.8125 105.062 24H120.875ZM106.687 26C107.187 26.5 107.687 26.9375 108.187 27.3125L113 30.8125L117.687 27.3125C118.187 26.9375 118.687 26.5 119.187 26H106.687ZM105.062 40C104.25 41.25 103.687 42.625 103.312 44H122.625C122.25 42.625 121.687 41.25 120.875 40H105.062ZM224.687 46.3125L215.812 37.5C217.812 35.1875 218.937 32.25 218.937 29C218.937 21.875 213.062 16 205.937 16C198.75 16 193 21.875 193 29C193 36.1875 198.812 42 205.937 42C209.125 42 212.062 40.875 214.375 38.875L223.187 47.75C223.437 47.9375 223.687 48 224 48C224.25 48 224.5 47.9375 224.687 47.75C225.062 47.375 225.062 46.6875 224.687 46.3125ZM206 40C199.875 40 195 35.0625 195 29C195 22.9375 199.875 18 206 18C212.062 18 217 22.9375 217 29C217 35.125 212.062 40 206 40ZM299 17C299 16.5 298.5 16 298 16C297.437 16 297 16.5 297 17V20H295C292.75 20 291 21.8125 291 24V44C291 46.25 292.75 48 295 48H315C317.187 48 319 46.25 319 44V24C319 21.8125 317.187 20 315 20H313V17C313 16.5 312.5 16 312 16C311.437 16 311 16.5 311 17V20H299V17ZM293 28H317V44C317 45.125 316.062 46 315 46H295C293.875 46 293 45.125 293 44V28ZM295 22H315C316.062 22 317 22.9375 317 24V26H293V24C293 22.9375 293.875 22 295 22ZM401 20C408.687 20 414.937 24.9375 414.937 31C414.937 37.0625 408.687 42 401 42C399.187 42 397.437 41.75 395.75 41.25C395.187 41.0625 394.5 41.125 394 41.5C392.625 42.5 390.375 43.6875 387.562 44C388.312 43.0625 389.437 41.4375 390.125 39.625C390.437 38.9375 390.25 38.1875 389.75 37.5625C387.937 35.625 387 33.375 387 31C387 24.9375 393.25 20 401 20ZM401 18C392.125 18 385 23.875 385 31C385 34 386.187 36.75 388.25 38.9375C387.375 41.375 385.437 43.5 385.375 43.5C384.937 43.9375 384.875 44.5625 385.062 45.125C385.312 45.6875 385.875 46 386.5 46C390.312 46 393.312 44.4375 395.187 43.125C397 43.6875 398.937 44 401 44C409.812 44 416.937 38.1875 416.937 31C416.937 23.875 409.812 18 401 18ZM505.375 39H511C511.375 39 511.75 39.25 511.875 39.625C512.062 40 511.937 40.4375 511.687 40.75L504.687 47.75C504.5 47.9375 504.25 48 504 48C503.687 48 503.437 47.9375 503.25 47.75C502.875 47.375 502.875 46.6875 503.25 46.3125L508.562 41H503C502.562 41 502.187 40.8125 502.062 40.4375C501.875 40.0625 502 39.625 502.25 39.3125L509.25 32.3125C509.625 31.9375 510.312 31.9375 510.687 32.3125C511.062 32.6875 511.062 33.375 510.687 33.75L505.375 39ZM488.937 30.0625C488.437 30.0625 488 29.875 487.625 29.5L482.312 24.125C481.437 23.1875 480.937 21.875 481 20.5625C481.062 19.1875 481.687 17.9375 482.687 17.125C484.5 15.625 487.187 15.75 489 17.375C490.75 15.75 493.437 15.625 495.25 17.125C496.25 17.9375 496.875 19.1875 496.937 20.5625C497 21.875 496.5 23.1875 495.562 24.125L490.312 29.5C489.937 29.875 489.437 30.0625 488.937 30.0625ZM485.625 18.0625C485 18.0625 484.437 18.25 484 18.625C483.375 19.125 483 19.875 483 20.625C482.937 21.4375 483.25 22.1875 483.75 22.75L489.062 28.0625L494.187 22.75C494.75 22.1875 495 21.4375 495 20.625C494.937 19.875 494.562 19.125 494 18.625C492.937 17.75 491.25 17.875 490.25 18.9375L489 20.1875L487.75 18.9375C487.187 18.375 486.437 18.0625 485.625 18.0625ZM511.125 16.0312C511.172 16.0156 511.219 16 511.25 16C512.187 16 512.937 16.9375 512.937 18L513 27.0625C513 28.6875 511.187 30.0625 509 30.0625C506.75 30.0625 505 28.6875 505 27.0625C505 25.375 506.75 24.0625 509 24.0625C509.687 24.0625 510.312 24.1875 511 24.4375V18.0625L503 19.4375L502.937 29.0625C502.937 30.75 501.187 32.0625 499 32.0625C496.75 32.0625 495 30.75 495 29.0625C495 27.375 496.75 26.0625 499 26.0625C499.687 26.0625 500.312 26.1875 501 26.4375V19.4375C501 18.4375 501.562 17.625 502.437 17.5L511 16.0625C511.031 16.0625 511.078 16.0469 511.125 16.0312ZM497 29.0625C497 29.4375 497.75 30.0625 499 30.0625C500.187 30.0625 501 29.4375 501 29.0625C501 28.6875 500.187 28.0625 499 28.0625C497.75 28.0625 497 28.6875 497 29.0625ZM507 27.0625C507 27.4375 507.75 28.0625 509 28.0625C510.187 28.0625 511 27.4375 511 27.0625C511 26.6875 510.187 26.0625 509 26.0625C507.75 26.0625 507 26.6875 507 27.0625ZM494.25 34H497.25C498.187 34 499 34.8125 499 35.75L498.937 46.3125C498.937 47.25 498.187 48 497.25 48H482.687C481.75 48 481 47.25 481 46.3125V35.75C481 34.8125 481.75 34 482.687 34H485.687L486.125 33.125C486.375 32.5 487 32 487.75 32H492.187C492.937 32 493.562 32.5 493.812 33.125L494.25 34ZM483 36V46H497V36H493L492 34H487.937L486.937 36H483ZM486 41C486 38.8125 487.75 37 490 37C492.187 37 494 38.8125 494 41C494 43.25 492.062 45 489.937 45C487.75 45 486 43.25 486 41ZM488 41C488 42.125 488.875 43 490 43C491.062 43 492 42.125 492 41C492 39.9375 490.937 39 489.937 39C488.875 39 488 39.9375 488 41ZM54.4999 92H51.4999C50.0624 92 48.9999 93.125 48.9999 94.5V107.5C48.9999 108.938 50.0624 110 51.4999 110H54.4999C55.8749 110 56.9999 108.938 56.9999 107.5V94.5C56.9999 93.125 55.8749 92 54.4999 92ZM54.9999 107.5C54.9999 107.812 54.7499 108 54.4999 108H51.4999C51.1874 108 50.9999 107.812 50.9999 107.5V94.5C50.9999 94.25 51.1874 94 51.4999 94H54.4999C54.7499 94 54.9999 94.25 54.9999 94.5V107.5ZM80.9999 93.875C80.9999 91.75 79.2499 90 77.1249 90H70.7499C71.4374 88.3125 71.8749 86.6875 71.8749 85.8125C71.8749 83.9375 70.4374 82 67.9999 82C65.5402 82 64.9233 83.7275 64.3803 85.248L64.3618 85.2996L64.3124 85.4375C63.2654 88.7335 61.4727 90.2973 60.2626 91.353C59.5222 91.9988 58.9999 92.4544 58.9999 93C58.9999 93.625 59.4374 94 59.9999 94C60.2499 94 60.4999 93.9375 60.6874 93.75C61.338 93.0869 61.8959 92.549 62.3833 92.0792C64.3303 90.2021 65.1502 89.4117 66.2499 86.0625C66.8124 84.3125 66.9999 84 67.9999 84C69.3124 84 69.8749 85.0625 69.8749 85.8125C69.8749 86.4375 69.3124 88.5625 68.2499 90.5625C68.1249 90.6875 68.1249 90.875 68.1249 91C68.1249 91.625 68.6249 92 69.1249 92H77.1249C78.1249 92 78.9999 92.875 78.9999 93.875C78.9999 94.8125 78.1874 95.625 77.2499 95.6875C76.7499 95.75 76.3124 96.1875 76.3124 96.6875C76.3124 97.0246 76.4639 97.2228 76.6308 97.4411C76.8351 97.7084 77.0624 98.0057 77.0624 98.625C77.0624 99.5 76.4374 100.25 75.5624 100.438C75.1874 100.5 74.7499 100.812 74.7499 101.375C74.7499 101.63 74.8402 101.796 74.9387 101.976C75.0571 102.193 75.1874 102.432 75.1874 102.875C75.1874 103.938 74.5856 104.248 74.0423 104.529C73.5951 104.76 73.1874 104.97 73.1874 105.562C73.1874 105.681 73.2153 105.757 73.2447 105.837C73.2776 105.927 73.3124 106.023 73.3124 106.188C73.3124 107.188 72.4374 108 71.4374 108H67.9374C64.4778 108 62.613 106.177 61.4012 104.993C60.8179 104.422 60.3858 104 59.9999 104C59.4374 104 58.9999 104.5 58.9999 105C58.9374 106.062 62.9999 110 67.9374 110H71.4374C73.5624 110 75.3124 108.312 75.3124 106.188C76.4374 105.5 77.1874 104.25 77.1874 102.875C77.1874 102.562 77.1249 102.25 77.0624 102C78.2499 101.312 79.0624 100.062 79.0624 98.625C79.0624 98.1875 78.9999 97.6875 78.8124 97.3125C80.1249 96.6875 80.9999 95.375 80.9999 93.875ZM153 80H169C171.187 80 173 81.8125 173 84V98C173 101.375 170.312 104 167 104H165V108C165 110.438 162.812 112.375 160.312 112C158.312 111.688 157 109.812 157 107.812V104H155C151.625 104 149 101.375 149 98V84C149 81.8125 150.75 80 153 80ZM163 102H167C169.187 102 171 100.25 171 98H151C151 100.25 152.75 102 155 102H159V108C159 109.125 159.875 110 161 110C162.062 110 163 109.125 163 108V102ZM151 96H171V84C171 82.9375 170.062 82 169 82H163V87C163 87.5625 162.5 88 162 88C161.437 88 161 87.5625 161 87V82H157V89C157 89.5625 156.5 90 156 90C155.437 90 155 89.5625 155 89V82H153C151.875 82 151 82.9375 151 84V96ZM256.5 90C256.187 90 255.875 89.8125 255.687 89.5625C254.75 88.3125 254 87 253.437 85.5625C253.25 86 253.062 86.4375 252.937 86.875C252.75 87.375 252.187 87.625 251.625 87.5C251.125 87.3125 250.875 86.75 251 86.1875C251.5 84.875 252.25 83.3125 252.75 82.5C252.937 82.1875 253.312 82 253.75 82.0625C254.125 82.125 254.437 82.375 254.562 82.75C255.125 84.75 256.062 86.6875 257.25 88.375C257.625 88.875 257.5 89.5 257.062 89.8125C256.875 89.9375 256.687 90 256.5 90ZM263.437 90C263.437 90.8125 264.062 91.5 264.937 91.5C265.75 91.5 266.437 90.8125 266.437 90C266.437 89.125 265.75 88.5 264.937 88.5C264.062 88.5 263.437 89.1875 263.437 90ZM273 84L271 90V98.0625C271 103.562 266.5 108.062 261 108.062H257.625L253.625 111.438C253.5 111.625 252.937 112.062 252.062 112C245.5 111.688 242.437 108.5 241.187 106.562C240.75 105.875 241.062 105 241.812 104.812L249.875 102.75C243.562 97.75 242.937 92.25 242.937 89.625C243 87.0625 243.562 84.75 244.562 82.625C244.937 81.8125 246.062 81.875 246.375 82.625C250 90.8125 258 92.375 258.937 92.5V90C258.937 86.6875 261.562 84 264.875 84H264.937H273ZM270.187 86H264.937C262.75 86.0625 260.937 87.8125 260.937 90.0625V94.9375C260.86 94.9259 260.754 94.913 260.621 94.8967C258.6 94.6498 250.434 93.6521 245.625 85.5C245.187 86.8125 245 88.1875 244.937 89.625C244.881 96.5142 249.995 100.492 253.217 102.998C253.59 103.289 253.938 103.559 254.25 103.812L243.562 106.5C244.937 108 247.5 109.812 252.187 110.062L256.937 106.062H260.937C265.375 106.062 268.937 102.438 268.937 98.0625V89.6875L270.187 86ZM357.437 83.0625C361.062 81.5625 364 81.6875 365.625 83.375C368.062 85.75 367.062 90.75 363.562 96C367 101.312 368 106.312 365.562 108.688C364.75 109.562 363.5 110 361.937 110C360.625 110 359.125 109.688 357.437 109C356 108.438 354.5 107.625 353 106.625C351.437 107.625 349.937 108.438 348.5 109C346.812 109.688 345.312 110 344 110C342.437 110 341.187 109.562 340.312 108.688C337.875 106.312 338.875 101.312 342.312 96C338.875 90.75 337.875 85.75 340.312 83.375C341.937 81.6875 344.875 81.5625 348.5 83.0625C349.937 83.625 351.437 84.4375 353 85.4375C354.5 84.4375 356 83.625 357.437 83.0625ZM364.25 84.8125C363.125 83.75 361 83.75 358.187 84.875C357.205 85.2569 356.224 85.8292 355.2 86.4257C355.051 86.5126 354.901 86.6001 354.75 86.6875C356.187 87.75 357.562 88.9375 358.812 90.1875C360.062 91.5 361.25 92.8125 362.375 94.25C365.062 89.9375 365.687 86.1875 364.25 84.8125ZM344 84C343 84 342.25 84.25 341.687 84.8125C340.25 86.25 340.875 89.9375 343.625 94.25C345.75 91.375 348.312 88.875 351.187 86.6875C350.062 86 348.875 85.3125 347.75 84.875C346.312 84.3125 345.062 84 344 84ZM341.687 107.25C342.75 108.312 344.937 108.312 347.75 107.188C348.875 106.75 350.062 106.062 351.125 105.375C349.687 104.312 348.375 103.125 347.062 101.875C345.812 100.562 344.625 99.25 343.5 97.8125C340.875 102.125 340.25 105.875 341.687 107.25ZM344.75 96C345.937 97.625 347.187 99.0625 348.562 100.438C349.937 101.812 351.375 103.062 353 104.188C354.562 103.062 356.062 101.812 357.375 100.438C358.75 99.0625 360.062 97.625 361.187 96C360.062 94.4375 358.75 93 357.375 91.625C356 90.25 354.562 89 353 87.875C351.375 89 349.937 90.25 348.562 91.625C347.187 93 345.937 94.4375 344.75 96ZM358.187 107.188C360.937 108.312 363.187 108.312 364.25 107.25C365.687 105.812 365.062 102.125 362.375 97.8125C361.25 99.25 360.062 100.562 358.812 101.875C357.5 103.125 356.187 104.312 354.75 105.375C355.875 106.062 357.062 106.75 358.187 107.188ZM351.5 96.0625C351.5 95.1875 352.125 94.5 353 94.5C353.812 94.5 354.5 95.1875 354.5 96.0625C354.5 96.4375 354.312 96.8125 354.062 97.125C353.75 97.375 353.375 97.5 353 97.5C352.125 97.5 351.437 96.875 351.5 96.0625ZM462.187 82.8125C460.375 81 458.062 80 455.562 80C452.625 80 449.437 81.375 446.375 84.4375L441.062 89.8125C436.062 94.75 436.562 103 437.687 105.875L433.25 110.312C433.062 110.5 433 110.75 433 111C433 111.562 433.375 112 433.937 112C434.187 112 434.437 111.938 434.625 111.75L439.062 107.312C440.125 107.75 441.937 108.062 444 108.062C447.562 108.062 451.937 107.125 455.125 103.938L460.5 98.625C466.187 92.9375 466.062 86.75 462.187 82.8125ZM442.437 91.1875L447.812 85.875C450.312 83.375 453 82 455.562 82C457.437 82 459.312 82.8125 460.75 84.25C463.375 86.875 463.625 90.5 461.562 94.0625H452.375L454.687 91.6875C455.062 91.3125 455.062 90.6875 454.687 90.3125C454.312 89.9375 453.687 89.9375 453.312 90.3125L439.312 104.312C438.687 101.562 438.437 95.1875 442.437 91.1875ZM444.062 106.062C442.625 106.062 441.562 105.875 440.75 105.688L444.375 102L454.25 102.062L453.812 102.562C450.75 105.625 446.375 106.062 444.062 106.062ZM456.25 100.062H446.375L450.312 96.0625H460.062C459.812 96.4375 456.25 100.062 456.25 100.062ZM538.625 81.5625C537.625 80.625 536.25 80 534.75 80C531.562 80 529 82.625 529 85.8125C529 86.9375 529.312 88 529.875 88.875C530.187 89.375 530.812 89.5 531.25 89.1875C531.687 88.875 531.875 88.25 531.562 87.8125C531.187 87.25 531 86.5625 531 85.8125C531 83.6875 532.625 82 534.75 82C535.75 82 536.625 82.4375 537.312 83.0625C537.687 83.4375 538.312 83.375 538.687 83C539.062 82.5625 539.062 81.9375 538.625 81.5625ZM555.187 80C553.687 80 552.312 80.625 551.312 81.5625C550.875 81.9375 550.875 82.5625 551.25 83C551.625 83.375 552.25 83.4375 552.625 83.0625C553.312 82.4375 554.187 82 555.187 82C557.312 82 559 83.6875 559 85.8125C559 86.5625 558.75 87.25 558.375 87.8125C558.062 88.25 558.25 88.875 558.687 89.1875C559.125 89.5 559.75 89.375 560.062 88.875C560.625 88 561 86.9375 561 85.8125C561 82.625 558.375 80 555.187 80ZM549.562 101.25L546 98.5V91C546 90.5 545.5 90 544.937 90C544.437 90 543.937 90.5 543.937 91V99C543.937 99.3125 544.125 99.625 544.375 99.8125L548.375 102.812C548.812 103.188 549.437 103.062 549.75 102.625C550.125 102.188 550 101.562 549.562 101.25ZM531.25 110.312C530.875 110.688 530.875 111.375 531.25 111.75C531.625 112.125 532.312 112.125 532.687 111.75L535.812 108.625C538.25 110.75 541.437 112 545 112C548.5 112 551.687 110.75 554.125 108.625L557.25 111.75C557.625 112.125 558.312 112.125 558.687 111.75C559.062 111.375 559.062 110.688 558.687 110.312L555.562 107.188C557.687 104.75 559 101.562 559 98C559 90.3125 552.687 84 545 84C537.25 84 531 90.3125 531 98C531 101.562 532.25 104.75 534.375 107.188L531.25 110.312ZM557 98C557 104.625 551.625 110 544.937 110C538.312 110 532.937 104.625 532.937 98C532.937 91.375 538.312 86 544.937 86C551.625 86 557 91.375 557 98ZM75.3124 208C73.8749 208 72.4374 208.562 71.3124 209.688L68.6874 212.312L67.0624 210.75C65.9374 209.562 63.9999 209.562 62.8749 210.75L56.2499 217.312C55.8749 217.688 55.8749 218.375 56.2499 218.75C56.4374 218.938 56.6874 219 56.9999 219C57.2499 219 57.4999 218.938 57.6874 218.75L64.2499 212.125C64.6249 211.75 65.3124 211.75 65.6874 212.125L67.2499 213.75L54.8124 226.125C51.5624 229.438 49.4999 233.75 48.9999 238.375C48.8749 239.25 49.5624 240 50.4374 240H50.6249C55.2499 239.5 59.5624 237.438 62.8124 234.188L79.3124 217.688C82.8749 214.125 80.3124 208 75.3124 208ZM61.4374 232.75C58.6249 235.5 54.9999 237.375 51.0624 237.938C51.6249 234.062 53.4374 230.375 56.2499 227.562L60.6874 223.125L65.8124 228.312L61.4374 232.75ZM77.8749 216.25L67.2499 226.875L62.0624 221.75L72.6874 211.125C73.4374 210.438 74.3124 210 75.3124 210C77.1249 210 78.2499 211.188 78.6874 212.312C79.2499 213.688 78.9374 215.188 77.8749 216.25ZM145 214C145 211.812 146.75 210 149 210H173C175.187 210 177 211.812 177 214V234C177 236.25 175.187 238 173 238H149C146.75 238 145 236.25 145 234V214ZM169 223V212H153V223H169ZM149 212C147.875 212 147 212.938 147 214V217H151V212H149ZM151 223V219H147V223H151ZM151 229V225H147V229H151ZM147 234C147 235.125 147.875 236 149 236H151V231H147V234ZM153 225V236H169V225H153ZM173 236C174.062 236 175 235.125 175 234V231H171V236H173ZM171 229H175V225H171V229ZM171 223H175V219H171V223ZM171 217H175V214C175 212.938 174.062 212 173 212H171V217ZM257 208C248.125 208 241 215.188 241 224C241 232.875 248.125 240 257 240C265.812 240 273 232.875 273 224C273 215.188 265.812 208 257 208ZM257 238C254 238 251.25 237.125 249 235.562C249.25 232.438 251.812 230 255 230H259C262.125 230 264.687 232.438 264.937 235.562C262.687 237.125 259.937 238 257 238ZM266.687 234.062C265.812 230.625 262.687 228 259 228H255C251.25 228 248.125 230.625 247.25 234.062C244.625 231.5 243 227.938 243 224C243 216.312 249.25 210 257 210C264.687 210 271 216.312 271 224C271 227.938 269.312 231.5 266.687 234.062ZM257 216C254.187 216 252 218.25 252 221C252 223.812 254.187 226 257 226C259.75 226 262 223.812 262 221C262 218.25 259.75 216 257 216ZM257 224C255.312 224 254 222.688 254 221C254 219.375 255.312 218 257 218C258.625 218 260 219.375 260 221C260 222.688 258.625 224 257 224ZM353 231C356.437 231 359 227.688 359 224C359 220.312 356.437 217 353 217C349.5 217 347 220.312 347 224C347 227.688 349.5 231 353 231ZM357 224C357 226.938 355 229 353 229C350.937 229 349 226.938 349 224C349 221.062 350.937 219 353 219C355 219 357 221.062 357 224ZM335 215.062V234.438C335 235.562 335.625 236.625 336.625 237C341.944 239.017 347.262 237.686 352.64 236.34L353 236.25C357.937 235 362.937 233.75 367.937 235.062C369.375 235.5 371 234.5 371 233V213.625C371 212.5 370.312 211.438 369.312 211.062C363.97 209.036 358.628 210.388 353.286 211.74L353 211.812C348 213.062 343 214.312 338 213C336.562 212.562 335 213.562 335 215.062ZM337.5 214.875C338.625 215.25 339.812 215.438 341 215.5C341 217.75 339.187 219.5 337 219.5V215.062H336.937C336.969 215.062 336.984 215.047 337 215.031C337.007 215.025 337.013 215.018 337.021 215.013C337.032 215.005 337.044 215 337.062 215C337.187 214.875 337.375 214.875 337.5 214.875ZM337 234.438V231.5C339.187 231.5 341 233.312 341 235.5V235.938C339.75 235.812 338.562 235.562 337.375 235.125C337.187 235.062 337 234.875 337 234.438ZM343 235.5C343 232.188 340.312 229.5 337 229.5V221.5C340.25 221.5 342.937 218.875 342.937 215.562C346.562 215.5 350.062 214.625 353.312 213.75C353.625 213.688 353.875 213.625 354.125 213.562C357.25 212.75 360.187 212.125 363 212.062V212.5C363 215.812 365.625 218.5 369 218.5V226.5C365.687 226.5 363 229.188 363 232.5C359.375 232.562 355.875 233.438 352.625 234.312C352.312 234.375 352.062 234.438 351.812 234.5C348.687 235.312 345.75 235.938 343 236V235.5ZM368.908 233.055C368.899 233.06 368.888 233.062 368.875 233.062C368.75 233.188 368.562 233.188 368.437 233.125C367.312 232.812 366.125 232.625 365 232.562V232.5C365 230.312 366.75 228.5 369 228.5V233C368.969 233 368.953 233.016 368.937 233.031L368.932 233.036C368.929 233.04 368.926 233.043 368.922 233.046C368.918 233.049 368.913 233.052 368.908 233.055ZM369 213.625V216.5C366.75 216.5 365 214.75 365 212.5V212.125C366.187 212.25 367.375 212.5 368.562 212.938C368.75 213 369 213.188 369 213.625ZM448.312 208.312C448.687 207.938 449.25 207.938 449.625 208.312L455 213V211.5C455 210.688 455.625 210 456.5 210H461.5C462.312 210 463 210.688 463 211.5V220.062L466.625 223.25C467.062 223.625 467.062 224.25 466.687 224.688C466.375 225.125 465.75 225.125 465.312 224.75L463 222.688V235C463 237.812 460.75 240 458 240H440C437.187 240 435 237.812 435 235V222.688L432.625 224.75C432.187 225.125 431.562 225.125 431.25 224.688C430.875 224.25 430.875 223.625 431.312 223.25L448.312 208.312ZM461 218.312V212H457V214.75L461 218.312ZM437 220.938V235C437 236.688 438.312 238 440 238H444V228C444 226.938 444.875 226 446 226H452C453.062 226 454 226.938 454 228V238H458C459.625 238 461 236.688 461 235V220.938L449 210.375L437 220.938ZM556.312 209L560 212.625C560.625 213.312 561 214.125 561 215.062C561 215.938 560.625 216.812 559.937 217.5L555.375 222.25L552.562 231.375C552.125 232.812 551.062 233.875 549.687 234.375L529.625 240H529.5C529.312 240 529.187 240 529.125 239.875C529 239.75 528.937 239.562 529 239.375L534.625 219.25C535.125 217.875 536.187 216.812 537.625 216.438L546.687 213.562L551.5 209C552.125 208.375 553.062 208 553.937 208C554.812 208 555.687 208.375 556.312 209ZM549.187 232.438C549.812 232.188 550.437 231.625 550.625 230.875L553.437 221.875L547.062 215.562L538.187 218.312C537.375 218.562 536.812 219.125 536.5 219.938L532.187 235.375L538.562 229.062C538.187 228.438 538 227.75 538 227C538 224.812 539.75 223 542 223C544.187 223 546 224.812 546 227C546 229.25 544.187 231 542 231C541.25 231 540.562 230.812 539.937 230.438L533.625 236.812L549.187 232.438ZM452 228H446V238H452V228ZM542 225C540.875 225 540 225.938 540 227C540 228.125 540.875 229 542 229C543.062 229 544 228.125 544 227C544 225.938 543.062 225 542 225ZM554.562 220.25L558.5 216.062C558.812 215.812 559 215.438 559 215.062C559 214.688 558.812 214.312 558.562 214.062L554.937 210.438C554.687 210.188 554.312 210 553.937 210C553.5 210 553.187 210.188 552.937 210.375L548.75 214.375L554.562 220.25ZM32.8124 174.5L28.8124 167.5C28.4999 167.062 27.9374 166.875 27.4374 167.188C26.9374 167.438 26.8124 168.062 27.0624 168.562L31.1249 175.562C31.3124 175.875 31.6249 176.062 31.9999 176.062C32.1249 176.062 32.3124 176 32.4999 175.875C32.9374 175.625 33.1249 175 32.8124 174.5ZM31.6874 158.5C31.9999 158.062 31.8124 157.438 31.3124 157.188C30.8749 156.875 30.2499 157.062 29.9374 157.5C27.3124 162.125 22.3124 165 16.9999 165C14.4999 165 12.0624 164.375 9.93741 163.25L15.3749 153.75C15.8749 153.938 16.4374 154 16.9999 154C17.4999 154 18.0624 153.938 18.5624 153.75L22.4374 160.5C22.6249 160.875 22.9999 161 23.3124 161C23.4999 161 23.6874 161 23.8124 160.875C24.3124 160.625 24.4374 160 24.1874 159.5L20.2499 152.75C21.3124 151.812 21.9374 150.5 21.9374 149C21.9374 146.25 19.7499 144 16.9999 144C14.1874 144 11.9999 146.25 11.9999 149C11.9999 150.5 12.6249 151.812 13.6874 152.75L8.24991 162.188C6.49991 160.938 5.06241 159.375 3.99991 157.5C3.68741 157.062 3.06241 156.875 2.62491 157.188C2.12491 157.438 1.93741 158.062 2.24991 158.5C3.49991 160.688 5.24991 162.5 7.24991 163.938L1.12491 174.5C0.812413 175 0.999913 175.625 1.49991 175.875C1.62491 176 1.81241 176 1.93741 176C2.31241 176 2.62491 175.875 2.81241 175.5L8.93741 165C11.3749 166.312 14.1249 167 16.9999 167C22.9999 167 28.6874 163.75 31.6874 158.5ZM16.9999 146C18.6249 146 19.9999 147.375 19.9999 149C19.9999 150.688 18.6249 152 16.9999 152C15.3124 152 13.9999 150.625 13.9999 149C13.9999 147.438 15.3124 146 16.9999 146ZM113.937 144.312L125.937 151.312C126.562 151.625 127 152.312 127 153.062V167C127 167.75 126.562 168.375 125.937 168.75L113.937 175.75C113.687 175.938 113.312 176 113 176C112.625 176 112.312 175.938 112 175.75L99.9999 168.75C99.3749 168.375 98.9999 167.75 98.9999 167V153.062C98.9999 152.312 99.3749 151.625 99.9999 151.312L112 144.312L112.041 144.288C112.329 144.114 112.519 144 112.937 144C113.312 144 113.687 144.125 113.937 144.312ZM107.062 155H118.875L113 147.625L107.062 155ZM119.187 157H106.75L113 167.125L119.187 157ZM102.437 166.688L111 167.75L105.25 158.375L102.437 166.688ZM123.5 166.688L120.687 158.375L114.937 167.812L123.5 166.688ZM115.375 147.438L121.125 154.625L124 152.5L115.375 147.438ZM101.937 152.5L104.812 154.625L110.562 147.438L101.937 152.5ZM101 164.875L103.812 156.375L101 154.312V164.875ZM112 173.438V169.938L104.312 168.938L112 173.438ZM114 173.438L121.687 168.938L114 169.938V173.438ZM125 154.25L122.125 156.375L124.937 164.75L125 154.25ZM193 150C193 147.812 194.75 146 197 146H221C223.187 146 225 147.812 225 150V170C225 172.25 223.187 174 221 174H197C194.75 174 193 172.25 193 170V150ZM195 154H223V150C223 148.938 222.062 148 221 148H197C195.875 148 195 148.938 195 150V154ZM195 163H208V156H195V163ZM210 163H223V156H210V163ZM208 165H195V170C195 171.125 195.875 172 197 172H208V165ZM221 172C222.062 172 223 171.125 223 170V165H210V172H221ZM297 154C297 152.938 297.875 152 299 152H311C312.062 152 313 152.938 313 154V166C313 167.125 312.062 168 311 168H299C297.875 168 297 167.125 297 166V154ZM321 160C321 160.562 320.5 161 320 161H317V165H320C320.5 165 321 165.5 321 166C321 166.562 320.5 167 320 167H317V168C317 170.25 315.187 172 313 172H312V175C312 175.562 311.5 176 311 176C310.437 176 310 175.562 310 175V172H306V175C306 175.562 305.5 176 305 176C304.437 176 304 175.562 304 175V172H300V175C300 175.562 299.5 176 299 176C298.437 176 298 175.562 298 175V172H297C294.75 172 293 170.25 293 168V167H290C289.437 167 289 166.562 289 166C289 165.5 289.437 165 290 165H293V161H290C289.437 161 289 160.562 289 160C289 159.5 289.437 159 290 159H293V155H290C289.437 155 289 154.562 289 154C289 153.5 289.437 153 290 153H293V152C293 149.812 294.75 148 297 148H298V145C298 144.5 298.437 144 299 144C299.5 144 300 144.5 300 145V148H304V145C304 144.5 304.437 144 305 144C305.5 144 306 144.5 306 145V148H310V145C310 144.5 310.437 144 311 144C311.5 144 312 144.5 312 145V148H313C315.187 148 317 149.812 317 152V153H320C320.5 153 321 153.5 321 154C321 154.562 320.5 155 320 155H317V159H320C320.5 159 321 159.5 321 160ZM313 170C314.062 170 315 169.125 315 168V152C315 150.938 314.062 150 313 150H297C295.875 150 295 150.938 295 152V168C295 169.125 295.875 170 297 170H313ZM415 147C415 145.375 413.625 144 412 144H392C389.187 144 387 146.25 387 149V172C387 174.25 388.75 176 391 176H414C414.5 176 415 175.562 415 175C415 174.5 414.5 174 414 174H413V169.875C414.125 169.438 415 168.312 415 167V147ZM389 149C389 147.375 390.312 146 392 146H393V168H391C390.25 168 389.562 168.25 389 168.562V149ZM391 174C389.875 174 389 173.125 389 172C389 170.938 389.875 170 391 170H411V174H391ZM412 168H395V146H412C412.5 146 413 146.5 413 147V167C413 167.562 412.5 168 412 168ZM299 166H311V154H299V166ZM409 152H399C398.437 152 398 152.5 398 153C398 153.562 398.437 154 399 154H409C409.5 154 410 153.562 410 153C410 152.5 409.5 152 409 152ZM409 158H399C398.437 158 398 158.5 398 159C398 159.562 398.437 160 399 160H409C409.5 160 410 159.562 410 159C410 158.5 409.5 158 409 158ZM504 156.5C505.875 156.5 507.5 154.938 507.5 153C507.5 151.125 505.875 149.5 504 149.5C502.062 149.5 500.5 151.125 500.5 153C500.5 154.938 502.062 156.5 504 156.5ZM505.5 153C505.5 153.875 504.812 154.5 504 154.5C503.125 154.5 502.5 153.875 502.5 153C502.5 152.188 503.125 151.5 504 151.5C504.812 151.5 505.5 152.188 505.5 153ZM496.437 175.938L502.75 172.75C504.125 172.062 505 170.688 505 169.188V163.062C513.187 158.125 513.5 150.438 512.625 145.812C512.5 145.062 511.937 144.5 511.187 144.375C506.562 143.5 498.875 143.812 493.937 152H487.812C486.312 152 484.937 152.875 484.25 154.25L481.062 160.562C480.937 160.875 480.937 161.25 481.125 161.562C481.312 161.875 481.625 162 482 162H489.125C490.687 162 492.187 162.625 493.25 163.75C494.375 164.812 495 166.312 495 167.875V175C495 175.375 495.125 175.688 495.437 175.875C495.75 176.062 496.125 176.062 496.437 175.938ZM509.312 155.938C507.562 159.188 503.812 162.562 496.187 164.438C495.812 163.688 495.312 162.938 494.687 162.312C494.062 161.688 493.312 161.188 492.562 160.812C494.437 153.188 497.812 149.438 501.062 147.688C504.375 145.812 508 145.812 510.687 146.312C511.187 149 511.187 152.625 509.312 155.938ZM501.875 170.938L497 173.438V167.875C497 167.312 496.937 166.812 496.812 166.312C499.187 165.75 501.25 165 503 164.188V169.188C503 169.938 502.562 170.625 501.875 170.938ZM492.812 154C492 155.75 491.25 157.812 490.687 160.188C490.187 160.062 489.625 160 489.125 160H483.562L486.062 155.125C486.375 154.438 487.062 154 487.812 154H492.812ZM481 176C481 176 488.312 176.5 491.375 173.375C493.5 171.25 493.5 167.75 491.375 165.625C489.25 163.5 485.75 163.5 483.562 165.625C480.5 168.688 481 176 481 176ZM485 167.062C486.375 165.688 488.562 165.688 489.937 167.062C491.312 168.375 491.312 170.625 489.937 172C488.937 173 486.937 173.625 484.812 173.875L484.606 173.894C484 173.949 483.449 174 483 174C483 173.551 483.05 173 483.106 172.394L483.125 172.188C483.375 170.062 484 168.062 485 167.062Z" fill="#FAB005"/>
</svg>
