<svg height="262" node-id="1" sillyvg="true" template-height="262" template-width="456" version="1.1" viewBox="0 0 456 262" width="456" xmlns="http://www.w3.org/2000/svg" xmlns:xlink="http://www.w3.org/1999/xlink"><defs node-id="74"><linearGradient gradientUnits="userSpaceOnUse" id="未命名的渐变_26" node-id="5" spreadMethod="pad" x1="1" x2="1" y1="91.35" y2="181.12"><stop offset="0" stop-color="#81cfff"/><stop offset="1" stop-color="#5ecfff" stop-opacity="0"/></linearGradient><linearGradient gradientUnits="userSpaceOnUse" id="未命名的渐变_26-2" node-id="8" spreadMethod="pad" x1="455.01" x2="455.01" y1="72.11" y2="161.88"><stop offset="0" stop-color="#81cfff"/><stop offset="1" stop-color="#5ecfff" stop-opacity="0"/></linearGradient><linearGradient gradientUnits="userSpaceOnUse" id="未命名的渐变_26-3" node-id="9" spreadMethod="pad" x1="40.9" x2="40.9" y1="143.88" y2="199.51"><stop offset="0" stop-color="#81cfff"/><stop offset="1" stop-color="#5ecfff" stop-opacity="0"/></linearGradient><linearGradient gradientUnits="userSpaceOnUse" id="未命名的渐变_26-4" node-id="10" spreadMethod="pad" x1="64.97" x2="64.97" y1="95.36" y2="123.17"><stop offset="0" stop-color="#81cfff"/><stop offset="1" stop-color="#5ecfff" stop-opacity="0"/></linearGradient><linearGradient gradientUnits="userSpaceOnUse" id="未命名的渐变_26-5" node-id="11" spreadMethod="pad" x1="397.23" x2="397.23" y1="104.2" y2="132.02"><stop offset="0" stop-color="#81cfff"/><stop offset="1" stop-color="#5ecfff" stop-opacity="0"/></linearGradient><linearGradient gradientUnits="userSpaceOnUse" id="未命名的渐变_26-6" node-id="12" spreadMethod="pad" x1="424.75" x2="424.75" y1="133.49" y2="189.13"><stop offset="0" stop-color="#81cfff"/><stop offset="1" stop-color="#5ecfff" stop-opacity="0"/></linearGradient><linearGradient gradientUnits="userSpaceOnUse" id="未命名的渐变_26-7" node-id="13" spreadMethod="pad" x1="232.75" x2="232.75" y1="224.43" y2="262.12"><stop offset="0" stop-color="#81cfff"/><stop offset="1" stop-color="#5ecfff" stop-opacity="0"/></linearGradient><linearGradient gradientUnits="userSpaceOnUse" id="未命名的渐变_26-8" node-id="14" spreadMethod="pad" x1="349.36" x2="349.36" y1="26.68" y2="204.03"><stop offset="0" stop-color="#81cfff"/><stop offset="1" stop-color="#5ecfff" stop-opacity="0"/></linearGradient><linearGradient gradientUnits="userSpaceOnUse" id="未命名的渐变_26-9" node-id="15" spreadMethod="pad" x1="201.45" x2="201.45" y1="55.61" y2="204.03"><stop offset="0" stop-color="#81cfff"/><stop offset="1" stop-color="#5ecfff" stop-opacity="0"/></linearGradient><linearGradient gradientUnits="userSpaceOnUse" id="未命名的渐变_26-10" node-id="16" spreadMethod="pad" x1="122.98" x2="122.98" y1="26.68" y2="204.03"><stop offset="0" stop-color="#81cfff"/><stop offset="1" stop-color="#5ecfff" stop-opacity="0"/></linearGradient><linearGradient gradientUnits="userSpaceOnUse" id="未命名的渐变_26-11" node-id="17" spreadMethod="pad" x1="273.51" x2="273.51" y1="0" y2="209.54"><stop offset="0" stop-color="#81cfff"/><stop offset="1" stop-color="#5ecfff" stop-opacity="0"/></linearGradient></defs><g node-id="269"><path d="M 1.00 91.35 L 1.00 181.12" fill="none" group-id="1" node-id="145" stroke="url(#未命名的渐变_26)" stroke-linecap="butt" stroke-width="2" target-height="89.77" target-width="0" target-x="1" target-y="91.35"/><path d="M 455.01 72.11 L 455.01 161.88" fill="none" group-id="1" node-id="147" stroke="url(#未命名的渐变_26-2)" stroke-linecap="butt" stroke-width="2" target-height="89.770004" target-width="0" target-x="455.01" target-y="72.11"/><path d="M 40.90 143.88 L 40.90 199.51" fill="none" group-id="1" node-id="149" stroke="url(#未命名的渐变_26-3)" stroke-linecap="butt" stroke-width="2" target-height="55.62999" target-width="0" target-x="40.9" target-y="143.88"/><path d="M 64.97 95.36 L 64.97 123.17" fill="none" group-id="1" node-id="151" stroke="url(#未命名的渐变_26-4)" stroke-linecap="butt" stroke-width="2" target-height="27.809998" target-width="0" target-x="64.97" target-y="95.36"/><path d="M 397.23 104.20 L 397.23 132.02" fill="none" group-id="1" node-id="153" stroke="url(#未命名的渐变_26-5)" stroke-linecap="butt" stroke-width="2" target-height="27.820007" target-width="0" target-x="397.23" target-y="104.2"/><path d="M 424.75 133.49 L 424.75 189.13" fill="none" group-id="1" node-id="155" stroke="url(#未命名的渐变_26-6)" stroke-linecap="butt" stroke-width="2" target-height="55.64" target-width="0" target-x="424.75" target-y="133.49"/><g node-id="270"><path d="M 412.28 262.12 C 389.28 239.12 351.28 224.43 232.75 224.43 C 114.22 224.43 76.24 239.10 53.21 262.12 Z" fill="url(#未命名的渐变_26-7)" fill-opacity="0.4" fill-rule="nonzero" group-id="1,2" node-id="159" stroke="none" target-height="37.690002" target-width="359.07" target-x="53.21" target-y="224.43"/></g><g node-id="271"><g node-id="274"><path d="M 380.66 26.68 L 318.07 26.68 C 316.58 26.62 315.31 27.78 315.25 29.27 L 315.25 201.44 C 315.31 202.93 316.58 204.09 318.07 204.03 L 380.66 204.03 C 382.15 204.09 383.41 202.93 383.48 201.44 L 383.48 29.27 C 383.41 27.78 382.15 26.62 380.66 26.68 Z M 328.30 147.00 C 328.29 147.24 328.19 147.47 328.01 147.64 C 327.83 147.80 327.59 147.88 327.35 147.87 L 323.75 147.87 C 323.51 147.88 323.27 147.80 323.09 147.64 C 322.91 147.47 322.81 147.24 322.80 147.00 L 322.80 127.27 C 322.81 127.03 322.92 126.80 323.09 126.64 C 323.27 126.47 323.51 126.39 323.75 126.40 L 327.35 126.40 C 327.59 126.39 327.83 126.47 328.01 126.64 C 328.18 126.80 328.29 127.03 328.30 127.27 Z M 328.30 116.77 C 328.29 117.01 328.18 117.24 328.01 117.40 C 327.83 117.57 327.59 117.65 327.35 117.64 L 323.75 117.64 C 323.51 117.65 323.27 117.57 323.09 117.40 C 322.92 117.24 322.81 117.01 322.80 116.77 L 322.80 97.00 C 322.81 96.76 322.92 96.53 323.09 96.37 C 323.27 96.20 323.51 96.12 323.75 96.13 L 327.35 96.13 C 327.59 96.12 327.83 96.20 328.01 96.37 C 328.18 96.53 328.29 96.76 328.30 97.00 Z M 328.30 86.53 C 328.29 86.77 328.18 87.00 328.01 87.16 C 327.83 87.33 327.59 87.41 327.35 87.40 L 323.75 87.40 C 323.51 87.41 323.27 87.33 323.09 87.16 C 322.92 87.00 322.81 86.77 322.80 86.53 L 322.80 66.80 C 322.81 66.56 322.92 66.33 323.09 66.17 C 323.27 66.00 323.51 65.92 323.75 65.93 L 327.35 65.93 C 327.59 65.92 327.83 66.00 328.01 66.17 C 328.18 66.33 328.29 66.56 328.30 66.80 Z M 328.30 56.29 C 328.29 56.53 328.18 56.76 328.01 56.92 C 327.83 57.09 327.59 57.17 327.35 57.16 L 323.75 57.16 C 323.51 57.17 323.27 57.09 323.09 56.92 C 322.92 56.76 322.81 56.53 322.80 56.29 L 322.80 36.56 C 322.81 36.32 322.92 36.09 323.09 35.93 C 323.27 35.76 323.51 35.68 323.75 35.69 L 327.35 35.69 C 327.59 35.68 327.83 35.76 328.01 35.93 C 328.18 36.09 328.29 36.32 328.30 36.56 Z M 340.00 147.00 C 339.99 147.24 339.89 147.47 339.71 147.63 C 339.54 147.79 339.30 147.88 339.06 147.87 L 335.45 147.87 C 335.21 147.88 334.97 147.80 334.79 147.63 C 334.62 147.47 334.51 147.24 334.50 147.00 L 334.50 127.27 C 334.53 126.77 334.95 126.38 335.45 126.40 L 339.06 126.40 C 339.56 126.38 339.98 126.77 340.00 127.27 Z M 340.00 116.77 C 339.98 117.27 339.56 117.66 339.06 117.64 L 335.45 117.64 C 334.95 117.66 334.53 117.27 334.50 116.77 L 334.50 97.00 C 334.53 96.50 334.95 96.11 335.45 96.13 L 339.06 96.13 C 339.56 96.11 339.98 96.50 340.00 97.00 Z M 340.00 86.53 C 339.98 87.03 339.56 87.42 339.06 87.40 L 335.45 87.40 C 334.95 87.42 334.53 87.03 334.50 86.53 L 334.50 66.80 C 334.53 66.30 334.95 65.91 335.45 65.93 L 339.06 65.93 C 339.56 65.91 339.98 66.30 340.00 66.80 Z M 340.00 56.29 C 339.98 56.79 339.56 57.18 339.06 57.16 L 335.45 57.16 C 334.95 57.18 334.53 56.79 334.50 56.29 L 334.50 36.56 C 334.53 36.06 334.95 35.67 335.45 35.69 L 339.06 35.69 C 339.56 35.67 339.98 36.06 340.00 36.56 Z M 351.70 147.00 C 351.69 147.24 351.59 147.47 351.41 147.63 C 351.24 147.79 351.00 147.88 350.76 147.87 L 347.15 147.87 C 346.91 147.88 346.67 147.79 346.50 147.63 C 346.32 147.47 346.22 147.24 346.21 147.00 L 346.21 127.27 C 346.23 126.77 346.65 126.38 347.15 126.40 L 350.76 126.40 C 351.26 126.38 351.68 126.77 351.70 127.27 Z M 351.70 116.77 C 351.68 117.27 351.26 117.66 350.76 117.64 L 347.15 117.64 C 346.65 117.66 346.23 117.27 346.21 116.77 L 346.21 97.00 C 346.23 96.50 346.65 96.11 347.15 96.13 L 350.76 96.13 C 351.26 96.11 351.68 96.50 351.70 97.00 Z M 351.70 86.53 C 351.68 87.03 351.26 87.42 350.76 87.40 L 347.15 87.40 C 346.65 87.42 346.23 87.03 346.21 86.53 L 346.21 66.80 C 346.23 66.30 346.65 65.91 347.15 65.93 L 350.76 65.93 C 351.26 65.91 351.68 66.30 351.70 66.80 Z M 351.70 56.29 C 351.68 56.79 351.26 57.18 350.76 57.16 L 347.15 57.16 C 346.65 57.18 346.23 56.79 346.21 56.29 L 346.21 36.56 C 346.23 36.06 346.65 35.67 347.15 35.69 L 350.76 35.69 C 351.26 35.67 351.68 36.06 351.70 36.56 Z M 363.40 147.00 C 363.39 147.24 363.29 147.47 363.11 147.63 C 362.94 147.79 362.70 147.88 362.46 147.87 L 358.85 147.87 C 358.61 147.88 358.37 147.79 358.20 147.63 C 358.02 147.47 357.92 147.24 357.91 147.00 L 357.91 127.27 C 357.93 126.77 358.35 126.38 358.85 126.40 L 362.46 126.40 C 362.96 126.38 363.38 126.77 363.40 127.27 Z M 363.40 116.77 C 363.38 117.27 362.96 117.66 362.46 117.64 L 358.85 117.64 C 358.35 117.66 357.93 117.27 357.91 116.77 L 357.91 97.00 C 357.93 96.50 358.35 96.11 358.85 96.13 L 362.46 96.13 C 362.96 96.11 363.38 96.50 363.40 97.00 Z M 363.40 86.53 C 363.38 87.03 362.96 87.42 362.46 87.40 L 358.85 87.40 C 358.35 87.42 357.93 87.03 357.91 86.53 L 357.91 66.80 C 357.93 66.30 358.35 65.91 358.85 65.93 L 362.46 65.93 C 362.96 65.91 363.38 66.30 363.40 66.80 Z M 363.40 56.29 C 363.38 56.79 362.96 57.18 362.46 57.16 L 358.85 57.16 C 358.35 57.18 357.93 56.79 357.91 56.29 L 357.91 36.56 C 357.93 36.06 358.35 35.67 358.85 35.69 L 362.46 35.69 C 362.96 35.67 363.38 36.06 363.40 36.56 Z M 375.11 147.00 C 375.10 147.24 374.99 147.47 374.82 147.63 C 374.64 147.80 374.40 147.88 374.16 147.87 L 370.55 147.87 C 370.31 147.88 370.07 147.79 369.90 147.63 C 369.72 147.47 369.62 147.24 369.61 147.00 L 369.61 127.27 C 369.63 126.77 370.05 126.38 370.55 126.40 L 374.16 126.40 C 374.66 126.38 375.08 126.77 375.11 127.27 Z M 375.11 116.77 C 375.08 117.27 374.66 117.66 374.16 117.64 L 370.55 117.64 C 370.05 117.66 369.63 117.27 369.61 116.77 L 369.61 97.00 C 369.63 96.50 370.05 96.11 370.55 96.13 L 374.16 96.13 C 374.66 96.11 375.08 96.50 375.11 97.00 Z M 375.11 86.53 C 375.08 87.03 374.66 87.42 374.16 87.40 L 370.55 87.40 C 370.05 87.42 369.63 87.03 369.61 86.53 L 369.61 66.80 C 369.63 66.30 370.05 65.91 370.55 65.93 L 374.16 65.93 C 374.66 65.91 375.08 66.30 375.11 66.80 Z M 375.11 56.29 C 375.08 56.79 374.66 57.18 374.16 57.16 L 370.55 57.16 C 370.05 57.18 369.63 56.79 369.61 56.29 L 369.61 36.56 C 369.63 36.06 370.05 35.67 370.55 35.69 L 374.16 35.69 C 374.66 35.67 375.08 36.06 375.11 36.56 Z" fill="url(#未命名的渐变_26-8)" fill-opacity="0.28" fill-rule="nonzero" group-id="1,3,6" node-id="166" stroke="none" target-height="177.47417" target-width="68.23001" target-x="315.25" target-y="26.61792"/></g><g node-id="275"><path d="M 231.10 55.61 L 171.80 55.61 C 170.31 55.56 169.06 56.71 169.00 58.20 L 169.00 201.44 C 169.08 202.91 170.33 204.05 171.80 204.00 L 231.10 204.00 C 232.59 204.06 233.86 202.90 233.92 201.41 L 233.92 58.20 C 233.86 56.71 232.59 55.55 231.10 55.61 Z M 182.47 159.37 C 182.44 160.01 181.91 160.50 181.27 160.48 L 175.87 160.48 C 175.23 160.50 174.70 160.01 174.67 159.37 L 174.67 154.15 C 174.68 153.84 174.82 153.56 175.04 153.35 C 175.27 153.14 175.56 153.04 175.87 153.05 L 181.27 153.05 C 181.58 153.04 181.87 153.14 182.10 153.35 C 182.32 153.56 182.46 153.84 182.47 154.15 Z M 182.47 146.49 C 182.46 146.80 182.32 147.08 182.10 147.29 C 181.87 147.50 181.58 147.60 181.27 147.59 L 175.87 147.59 C 175.56 147.60 175.27 147.50 175.04 147.29 C 174.82 147.08 174.68 146.80 174.67 146.49 L 174.67 141.27 C 174.70 140.63 175.23 140.14 175.87 140.16 L 181.27 140.16 C 181.91 140.14 182.44 140.63 182.47 141.27 Z M 182.47 133.60 C 182.44 134.24 181.91 134.73 181.27 134.71 L 175.87 134.71 C 175.23 134.73 174.70 134.24 174.67 133.60 L 174.67 128.38 C 174.68 128.07 174.82 127.79 175.04 127.58 C 175.27 127.37 175.56 127.27 175.87 127.28 L 181.27 127.28 C 181.58 127.27 181.87 127.37 182.10 127.58 C 182.32 127.79 182.46 128.07 182.47 128.38 Z M 182.47 120.72 C 182.46 121.03 182.32 121.31 182.10 121.52 C 181.87 121.73 181.58 121.83 181.27 121.82 L 175.87 121.82 C 175.56 121.83 175.27 121.73 175.04 121.52 C 174.82 121.31 174.68 121.03 174.67 120.72 L 174.67 115.50 C 174.70 114.86 175.23 114.37 175.87 114.39 L 181.27 114.39 C 181.91 114.37 182.44 114.86 182.47 115.50 Z M 182.47 107.83 C 182.44 108.47 181.91 108.96 181.27 108.94 L 175.87 108.94 C 175.23 108.96 174.70 108.47 174.67 107.83 L 174.67 102.62 C 174.68 102.31 174.81 102.02 175.04 101.81 C 175.26 101.61 175.56 101.50 175.87 101.51 L 181.27 101.51 C 181.58 101.50 181.88 101.61 182.10 101.81 C 182.33 102.02 182.46 102.31 182.47 102.62 Z M 182.47 94.95 C 182.46 95.26 182.32 95.54 182.10 95.75 C 181.87 95.96 181.58 96.06 181.27 96.05 L 175.87 96.05 C 175.56 96.06 175.27 95.96 175.04 95.75 C 174.82 95.54 174.68 95.26 174.67 94.95 L 174.67 89.73 C 174.70 89.09 175.23 88.60 175.87 88.62 L 181.27 88.62 C 181.91 88.60 182.44 89.09 182.47 89.73 Z M 182.47 82.06 C 182.44 82.70 181.91 83.19 181.27 83.17 L 175.87 83.17 C 175.23 83.19 174.70 82.70 174.67 82.06 L 174.67 76.85 C 174.68 76.54 174.81 76.25 175.04 76.04 C 175.26 75.84 175.56 75.73 175.87 75.74 L 181.27 75.74 C 181.58 75.73 181.88 75.84 182.10 76.04 C 182.33 76.25 182.46 76.54 182.47 76.85 Z M 182.47 69.18 C 182.46 69.49 182.32 69.77 182.10 69.98 C 181.87 70.19 181.58 70.29 181.27 70.28 L 175.87 70.28 C 175.56 70.29 175.27 70.19 175.04 69.98 C 174.82 69.77 174.68 69.49 174.67 69.18 L 174.67 64.00 C 174.70 63.36 175.23 62.87 175.87 62.89 L 181.27 62.89 C 181.91 62.87 182.44 63.36 182.47 64.00 Z M 192.55 159.37 C 192.52 160.01 191.99 160.50 191.35 160.48 L 186.00 160.48 C 185.69 160.49 185.39 160.38 185.16 160.18 C 184.94 159.97 184.80 159.68 184.79 159.37 L 184.79 154.15 C 184.82 153.51 185.36 153.02 186.00 153.05 L 191.40 153.05 C 191.71 153.04 192.00 153.14 192.23 153.35 C 192.45 153.56 192.59 153.84 192.60 154.15 Z M 192.55 146.49 C 192.54 146.80 192.40 147.08 192.18 147.29 C 191.95 147.50 191.66 147.60 191.35 147.59 L 186.00 147.59 C 185.36 147.62 184.82 147.13 184.79 146.49 L 184.79 141.27 C 184.80 140.96 184.94 140.67 185.16 140.46 C 185.39 140.26 185.69 140.15 186.00 140.16 L 191.40 140.16 C 192.04 140.14 192.57 140.63 192.60 141.27 Z M 192.55 133.60 C 192.52 134.24 191.99 134.73 191.35 134.71 L 186.00 134.71 C 185.69 134.72 185.39 134.61 185.16 134.41 C 184.94 134.20 184.80 133.91 184.79 133.60 L 184.79 128.38 C 184.82 127.74 185.36 127.25 186.00 127.28 L 191.40 127.28 C 191.71 127.27 192.00 127.37 192.23 127.58 C 192.45 127.79 192.59 128.07 192.60 128.38 Z M 192.55 120.72 C 192.54 121.03 192.40 121.31 192.18 121.52 C 191.95 121.73 191.66 121.83 191.35 121.82 L 186.00 121.82 C 185.36 121.85 184.82 121.36 184.79 120.72 L 184.79 115.50 C 184.80 115.19 184.94 114.90 185.16 114.69 C 185.39 114.49 185.69 114.38 186.00 114.39 L 191.40 114.39 C 192.04 114.37 192.57 114.86 192.60 115.50 Z M 192.55 107.83 C 192.52 108.47 191.99 108.96 191.35 108.94 L 186.00 108.94 C 185.69 108.95 185.39 108.84 185.16 108.64 C 184.94 108.43 184.80 108.14 184.79 107.83 L 184.79 102.62 C 184.80 102.31 184.94 102.02 185.16 101.81 C 185.39 101.61 185.69 101.50 186.00 101.51 L 191.40 101.51 C 191.71 101.50 192.01 101.61 192.23 101.81 C 192.46 102.02 192.59 102.31 192.60 102.62 Z M 192.55 94.95 C 192.54 95.26 192.40 95.54 192.18 95.75 C 191.95 95.96 191.66 96.06 191.35 96.05 L 186.00 96.05 C 185.36 96.08 184.82 95.59 184.79 94.95 L 184.79 89.73 C 184.80 89.42 184.94 89.13 185.16 88.92 C 185.39 88.72 185.69 88.61 186.00 88.62 L 191.40 88.62 C 192.04 88.60 192.57 89.09 192.60 89.73 Z M 192.55 82.06 C 192.52 82.70 191.99 83.19 191.35 83.17 L 186.00 83.17 C 185.69 83.18 185.39 83.07 185.16 82.87 C 184.94 82.66 184.80 82.37 184.79 82.06 L 184.79 76.85 C 184.80 76.54 184.94 76.25 185.16 76.04 C 185.39 75.84 185.69 75.73 186.00 75.74 L 191.40 75.74 C 191.71 75.73 192.01 75.84 192.23 76.04 C 192.46 76.25 192.59 76.54 192.60 76.85 Z M 192.55 69.18 C 192.54 69.49 192.40 69.77 192.18 69.98 C 191.95 70.19 191.66 70.29 191.35 70.28 L 186.00 70.28 C 185.36 70.31 184.82 69.82 184.79 69.18 L 184.79 64.00 C 184.79 63.69 184.92 63.38 185.15 63.17 C 185.38 62.95 185.69 62.84 186.00 62.85 L 191.40 62.85 C 192.04 62.83 192.57 63.32 192.60 63.96 Z M 202.63 159.37 C 202.62 159.68 202.48 159.97 202.26 160.18 C 202.03 160.38 201.73 160.49 201.42 160.48 L 196.00 160.48 C 195.36 160.50 194.83 160.01 194.80 159.37 L 194.80 154.15 C 194.81 153.84 194.95 153.56 195.17 153.35 C 195.40 153.14 195.69 153.04 196.00 153.05 L 201.40 153.05 C 202.04 153.02 202.58 153.51 202.61 154.15 Z M 202.63 146.49 C 202.60 147.13 202.06 147.62 201.42 147.59 L 196.00 147.59 C 195.69 147.60 195.40 147.50 195.17 147.29 C 194.95 147.08 194.81 146.80 194.80 146.49 L 194.80 141.27 C 194.83 140.63 195.36 140.14 196.00 140.16 L 201.40 140.16 C 201.71 140.15 202.01 140.26 202.24 140.46 C 202.46 140.67 202.60 140.96 202.61 141.27 Z M 202.63 133.60 C 202.62 133.91 202.48 134.20 202.26 134.41 C 202.03 134.61 201.73 134.72 201.42 134.71 L 196.00 134.71 C 195.36 134.73 194.83 134.24 194.80 133.60 L 194.80 128.38 C 194.81 128.07 194.95 127.79 195.17 127.58 C 195.40 127.37 195.69 127.27 196.00 127.28 L 201.40 127.28 C 202.04 127.25 202.58 127.74 202.61 128.38 Z M 202.63 120.72 C 202.60 121.36 202.06 121.85 201.42 121.82 L 196.00 121.82 C 195.69 121.83 195.40 121.73 195.17 121.52 C 194.95 121.31 194.81 121.03 194.80 120.72 L 194.80 115.50 C 194.83 114.86 195.36 114.37 196.00 114.39 L 201.40 114.39 C 201.71 114.38 202.01 114.49 202.24 114.69 C 202.46 114.90 202.60 115.19 202.61 115.50 Z M 202.63 107.83 C 202.62 108.14 202.48 108.43 202.26 108.64 C 202.03 108.84 201.73 108.95 201.42 108.94 L 196.00 108.94 C 195.36 108.96 194.83 108.47 194.80 107.83 L 194.80 102.62 C 194.81 102.31 194.94 102.02 195.17 101.81 C 195.39 101.61 195.69 101.50 196.00 101.51 L 201.40 101.51 C 201.71 101.50 202.01 101.61 202.24 101.81 C 202.46 102.02 202.60 102.31 202.61 102.62 Z M 202.63 94.95 C 202.60 95.59 202.06 96.08 201.42 96.05 L 196.00 96.05 C 195.69 96.06 195.40 95.96 195.17 95.75 C 194.95 95.54 194.81 95.26 194.80 94.95 L 194.80 89.73 C 194.83 89.09 195.36 88.60 196.00 88.62 L 201.40 88.62 C 201.71 88.61 202.01 88.72 202.24 88.92 C 202.46 89.13 202.60 89.42 202.61 89.73 Z M 202.63 82.06 C 202.62 82.37 202.48 82.66 202.26 82.87 C 202.03 83.07 201.73 83.18 201.42 83.17 L 196.00 83.17 C 195.36 83.19 194.83 82.70 194.80 82.06 L 194.80 76.85 C 194.81 76.54 194.94 76.25 195.17 76.04 C 195.39 75.84 195.69 75.73 196.00 75.74 L 201.40 75.74 C 201.71 75.73 202.01 75.84 202.24 76.04 C 202.46 76.25 202.60 76.54 202.61 76.85 Z M 202.63 69.18 C 202.60 69.82 202.06 70.31 201.42 70.28 L 196.00 70.28 C 195.69 70.29 195.40 70.19 195.17 69.98 C 194.95 69.77 194.81 69.49 194.80 69.18 L 194.80 64.00 C 194.83 63.36 195.36 62.87 196.00 62.89 L 201.40 62.89 C 201.71 62.87 202.02 62.98 202.25 63.19 C 202.48 63.40 202.62 63.69 202.63 64.00 Z M 227.84 159.37 C 227.81 160.01 227.28 160.50 226.64 160.48 L 206.10 160.48 C 205.46 160.50 204.93 160.01 204.90 159.37 L 204.90 154.15 C 204.91 153.84 205.05 153.56 205.27 153.35 C 205.50 153.14 205.79 153.04 206.10 153.05 L 226.64 153.05 C 226.95 153.04 227.24 153.14 227.47 153.35 C 227.69 153.56 227.83 153.84 227.84 154.15 Z M 227.84 146.49 C 227.83 146.80 227.69 147.08 227.47 147.29 C 227.24 147.50 226.95 147.60 226.64 147.59 L 206.10 147.59 C 205.79 147.60 205.50 147.50 205.27 147.29 C 205.05 147.08 204.91 146.80 204.90 146.49 L 204.90 141.27 C 204.93 140.63 205.46 140.14 206.10 140.16 L 226.64 140.16 C 227.28 140.14 227.81 140.63 227.84 141.27 Z M 227.84 133.60 C 227.81 134.24 227.28 134.73 226.64 134.71 L 206.10 134.71 C 205.46 134.73 204.93 134.24 204.90 133.60 L 204.90 128.38 C 204.91 128.07 205.05 127.79 205.27 127.58 C 205.50 127.37 205.79 127.27 206.10 127.28 L 226.64 127.28 C 226.95 127.27 227.24 127.37 227.47 127.58 C 227.69 127.79 227.83 128.07 227.84 128.38 Z M 227.84 120.72 C 227.83 121.03 227.69 121.31 227.47 121.52 C 227.24 121.73 226.95 121.83 226.64 121.82 L 206.10 121.82 C 205.79 121.83 205.50 121.73 205.27 121.52 C 205.05 121.31 204.91 121.03 204.90 120.72 L 204.90 115.50 C 204.93 114.86 205.46 114.37 206.10 114.39 L 226.64 114.39 C 227.28 114.37 227.81 114.86 227.84 115.50 Z M 227.84 107.83 C 227.81 108.47 227.28 108.96 226.64 108.94 L 206.10 108.94 C 205.46 108.96 204.93 108.47 204.90 107.83 L 204.90 102.62 C 204.91 102.31 205.04 102.02 205.27 101.81 C 205.49 101.61 205.79 101.50 206.10 101.51 L 226.64 101.51 C 226.95 101.50 227.25 101.61 227.47 101.81 C 227.70 102.02 227.83 102.31 227.84 102.62 Z M 227.84 94.95 C 227.83 95.26 227.69 95.54 227.47 95.75 C 227.24 95.96 226.95 96.06 226.64 96.05 L 206.10 96.05 C 205.79 96.06 205.50 95.96 205.27 95.75 C 205.05 95.54 204.91 95.26 204.90 94.95 L 204.90 89.73 C 204.93 89.09 205.46 88.60 206.10 88.62 L 226.64 88.62 C 227.28 88.60 227.81 89.09 227.84 89.73 Z M 227.84 82.06 C 227.81 82.70 227.28 83.19 226.64 83.17 L 206.10 83.17 C 205.46 83.19 204.93 82.70 204.90 82.06 L 204.90 76.85 C 204.91 76.54 205.04 76.25 205.27 76.04 C 205.49 75.84 205.79 75.73 206.10 75.74 L 226.64 75.74 C 226.95 75.73 227.25 75.84 227.47 76.04 C 227.70 76.25 227.83 76.54 227.84 76.85 Z M 227.84 69.18 C 227.83 69.49 227.69 69.77 227.47 69.98 C 227.24 70.19 226.95 70.29 226.64 70.28 L 206.10 70.28 C 205.79 70.29 205.50 70.19 205.27 69.98 C 205.05 69.77 204.91 69.49 204.90 69.18 L 204.90 64.00 C 204.93 63.36 205.46 62.87 206.10 62.89 L 226.64 62.89 C 227.28 62.87 227.81 63.36 227.84 64.00 Z" fill="url(#未命名的渐变_26-9)" fill-opacity="0.28" fill-rule="nonzero" group-id="1,3,7" node-id="171" stroke="none" target-height="148.51416" target-width="64.92" target-x="169" target-y="55.54792"/></g><g node-id="276"><path d="M 161.13 26.68 L 84.83 26.68 C 84.11 26.65 83.41 26.90 82.88 27.39 C 82.35 27.87 82.03 28.55 82.00 29.27 L 82.00 201.44 C 82.08 202.93 83.34 204.07 84.83 204.00 L 161.13 204.00 C 162.62 204.06 163.89 202.90 163.95 201.41 L 163.95 29.27 C 163.89 27.78 162.62 26.62 161.13 26.68 Z M 154.34 161.00 C 154.31 161.64 153.78 162.13 153.14 162.11 L 92.83 162.11 C 92.52 162.12 92.22 162.01 91.99 161.81 C 91.77 161.60 91.63 161.31 91.62 161.00 L 91.62 155.79 C 91.63 155.48 91.77 155.19 91.99 154.98 C 92.22 154.78 92.52 154.67 92.83 154.68 L 153.14 154.68 C 153.45 154.67 153.75 154.78 153.97 154.98 C 154.20 155.19 154.33 155.48 154.34 155.79 Z M 154.34 146.33 C 154.33 146.64 154.19 146.92 153.97 147.13 C 153.74 147.34 153.45 147.44 153.14 147.43 L 92.83 147.43 C 92.19 147.46 91.65 146.97 91.62 146.33 L 91.62 141.11 C 91.63 140.80 91.77 140.51 91.99 140.30 C 92.22 140.10 92.52 139.99 92.83 140.00 L 153.14 140.00 C 153.78 139.98 154.31 140.47 154.34 141.11 Z M 154.34 131.65 C 154.31 132.29 153.78 132.78 153.14 132.76 L 92.83 132.76 C 92.52 132.77 92.22 132.66 91.99 132.46 C 91.77 132.25 91.63 131.96 91.62 131.65 L 91.62 126.43 C 91.65 125.79 92.19 125.30 92.83 125.33 L 153.14 125.33 C 153.45 125.32 153.74 125.42 153.97 125.63 C 154.19 125.84 154.33 126.12 154.34 126.43 Z M 154.34 116.97 C 154.31 117.61 153.78 118.10 153.14 118.08 L 92.83 118.08 C 92.52 118.09 92.22 117.98 91.99 117.78 C 91.77 117.57 91.63 117.28 91.62 116.97 L 91.62 111.76 C 91.63 111.45 91.77 111.16 91.99 110.95 C 92.22 110.75 92.52 110.64 92.83 110.65 L 153.14 110.65 C 153.45 110.64 153.75 110.75 153.97 110.95 C 154.20 111.16 154.33 111.45 154.34 111.76 Z M 154.34 102.30 C 154.33 102.61 154.19 102.89 153.97 103.10 C 153.74 103.31 153.45 103.41 153.14 103.40 L 92.83 103.40 C 92.19 103.43 91.65 102.94 91.62 102.30 L 91.62 97.00 C 91.63 96.69 91.77 96.40 91.99 96.19 C 92.22 95.99 92.52 95.88 92.83 95.89 L 153.14 95.89 C 153.78 95.87 154.31 96.36 154.34 97.00 Z M 154.34 87.62 C 154.31 88.26 153.78 88.75 153.14 88.73 L 92.83 88.73 C 92.52 88.74 92.22 88.63 91.99 88.43 C 91.77 88.22 91.63 87.93 91.62 87.62 L 91.62 82.35 C 91.65 81.71 92.19 81.22 92.83 81.25 L 153.14 81.25 C 153.45 81.24 153.74 81.34 153.97 81.55 C 154.19 81.76 154.33 82.04 154.34 82.35 Z M 154.34 72.94 C 154.31 73.58 153.78 74.07 153.14 74.05 L 92.83 74.05 C 92.52 74.06 92.22 73.95 91.99 73.75 C 91.77 73.54 91.63 73.25 91.62 72.94 L 91.62 67.68 C 91.63 67.37 91.77 67.08 91.99 66.87 C 92.22 66.67 92.52 66.56 92.83 66.57 L 153.14 66.57 C 153.45 66.56 153.75 66.67 153.97 66.87 C 154.20 67.08 154.33 67.37 154.34 67.68 Z M 154.34 58.27 C 154.33 58.58 154.19 58.86 153.97 59.07 C 153.74 59.28 153.45 59.38 153.14 59.37 L 92.83 59.37 C 92.19 59.40 91.65 58.91 91.62 58.27 L 91.62 53.00 C 91.63 52.69 91.77 52.40 91.99 52.19 C 92.22 51.99 92.52 51.88 92.83 51.89 L 153.14 51.89 C 153.78 51.87 154.31 52.36 154.34 53.00 Z M 154.34 43.59 C 154.31 44.23 153.78 44.72 153.14 44.70 L 92.83 44.70 C 92.52 44.71 92.22 44.60 91.99 44.40 C 91.77 44.19 91.63 43.90 91.62 43.59 L 91.62 38.32 C 91.65 37.68 92.19 37.19 92.83 37.22 L 153.14 37.22 C 153.45 37.21 153.74 37.31 153.97 37.52 C 154.19 37.73 154.33 38.01 154.34 38.32 Z" fill="url(#未命名的渐变_26-10)" fill-opacity="0.28" fill-rule="nonzero" group-id="1,3,8" node-id="176" stroke="none" target-height="177.45015" target-width="81.95" target-x="82" target-y="26.61792"/></g><path d="M 306.21 0.00 L 240.82 0.00 C 239.44 0.05 238.36 1.21 238.40 2.59 L 238.40 206.94 C 238.38 207.61 238.62 208.25 239.07 208.74 C 239.52 209.23 240.15 209.52 240.82 209.54 L 306.21 209.54 C 307.59 209.49 308.67 208.32 308.62 206.94 L 308.62 2.59 C 308.67 1.21 307.59 0.05 306.21 0.00 Z M 300.39 134.28 C 300.41 134.86 299.97 135.35 299.39 135.38 L 247.67 135.38 C 247.09 135.35 246.65 134.86 246.67 134.28 L 246.67 129.06 C 246.65 128.48 247.09 127.99 247.67 127.95 L 299.36 127.95 C 299.94 127.99 300.38 128.48 300.36 129.06 Z M 300.39 119.60 C 300.41 120.18 299.97 120.67 299.39 120.71 L 247.67 120.71 C 247.09 120.67 246.65 120.18 246.67 119.60 L 246.67 114.38 C 246.65 113.80 247.09 113.31 247.67 113.28 L 299.36 113.28 C 299.94 113.31 300.38 113.80 300.36 114.38 Z M 300.39 104.92 C 300.41 105.50 299.97 105.99 299.39 106.03 L 247.67 106.03 C 247.09 105.99 246.65 105.50 246.67 104.92 L 246.67 99.71 C 246.65 99.13 247.09 98.64 247.67 98.60 L 299.36 98.60 C 299.94 98.64 300.38 99.13 300.36 99.71 Z M 300.39 90.25 C 300.41 90.83 299.97 91.32 299.39 91.35 L 247.67 91.35 C 247.09 91.32 246.65 90.83 246.67 90.25 L 246.67 85.00 C 246.65 84.42 247.09 83.93 247.67 83.89 L 299.36 83.89 C 299.94 83.93 300.38 84.42 300.36 85.00 Z M 300.39 75.57 C 300.41 76.15 299.97 76.64 299.39 76.68 L 247.67 76.68 C 247.09 76.64 246.65 76.15 246.67 75.57 L 246.67 70.35 C 246.65 69.77 247.09 69.28 247.67 69.25 L 299.36 69.25 C 299.94 69.28 300.38 69.77 300.36 70.35 Z M 300.39 60.89 C 300.41 61.47 299.97 61.96 299.39 62.00 L 247.67 62.00 C 247.09 61.96 246.65 61.47 246.67 60.89 L 246.67 55.68 C 246.65 55.10 247.09 54.61 247.67 54.57 L 299.36 54.57 C 299.94 54.61 300.38 55.10 300.36 55.68 Z M 300.39 46.22 C 300.41 46.80 299.97 47.29 299.39 47.32 L 247.67 47.32 C 247.09 47.29 246.65 46.80 246.67 46.22 L 246.67 41.00 C 246.65 40.42 247.09 39.93 247.67 39.89 L 299.36 39.89 C 299.94 39.93 300.38 40.42 300.36 41.00 Z M 300.39 31.54 C 300.41 32.12 299.97 32.61 299.39 32.65 L 247.67 32.65 C 247.09 32.61 246.65 32.12 246.67 31.54 L 246.67 26.32 C 246.65 25.74 247.09 25.25 247.67 25.22 L 299.36 25.22 C 299.94 25.25 300.38 25.74 300.36 26.32 Z M 300.39 16.86 C 300.41 17.44 299.97 17.93 299.39 17.97 L 247.67 17.97 C 247.09 17.93 246.65 17.44 246.67 16.86 L 246.67 11.65 C 246.65 11.07 247.09 10.58 247.67 10.54 L 299.36 10.54 C 299.94 10.58 300.38 11.07 300.36 11.65 Z" fill="url(#未命名的渐变_26-11)" fill-opacity="0.28" fill-rule="nonzero" group-id="1,3,9" node-id="181" stroke="none" target-height="209.54" target-width="70.31564" target-x="238.35504" target-y="0"/></g><path d="M 182.43 170.83 L 182.52 170.92 C 182.67 171.05 182.81 171.20 182.93 171.36 L 183.05 171.51 C 183.19 171.70 183.32 171.90 183.44 172.10 C 183.45 172.13 183.47 172.17 183.49 172.20 C 183.61 172.44 183.72 172.68 183.81 172.93 L 183.81 172.93 C 183.90 173.19 183.97 173.45 184.03 173.71 C 184.03 173.77 184.03 173.83 184.03 173.90 C 184.09 174.20 184.14 174.50 184.17 174.80 L 184.17 175.00 C 184.17 175.31 184.17 175.63 184.17 176.00 L 184.17 164.28 C 184.17 164.00 184.17 163.73 184.17 163.46 L 184.17 163.32 L 184.17 163.32 C 184.17 163.06 184.11 162.81 184.06 162.57 L 184.06 162.43 C 184.06 162.37 184.06 162.30 184.06 162.24 L 184.00 162.00 C 183.95 161.83 183.90 161.67 183.84 161.51 L 183.84 161.51 L 183.84 161.51 C 183.78 161.35 183.72 161.20 183.65 161.05 C 183.58 160.90 183.56 160.88 183.52 160.80 C 183.51 160.77 183.49 160.73 183.47 160.70 C 183.47 160.67 183.47 160.65 183.47 160.62 C 183.39 160.47 183.30 160.33 183.20 160.20 L 183.12 160.10 L 183.00 159.95 C 182.95 159.89 182.90 159.82 182.84 159.76 C 182.76 159.67 182.68 159.59 182.59 159.51 L 182.50 159.42 C 182.34 159.27 182.18 159.13 182.00 159.00 L 181.89 158.93 L 181.77 158.86 L 181.59 158.74 L 181.09 158.51 C 180.83 158.40 180.56 158.29 180.28 158.19 C 180.18 158.17 180.08 158.14 179.99 158.10 L 179.45 157.94 L 179.45 157.94 L 178.80 157.78 L 178.46 157.69 C 178.14 157.63 177.81 157.56 177.46 157.51 L 177.46 157.51 C 177.10 157.45 176.73 157.40 176.34 157.36 L 175.95 157.36 L 175.15 157.29 L 175.00 157.29 L 174.26 157.29 L 173.86 157.29 L 172.60 157.29 L 169.65 157.29 L 169.65 168.78 L 172.60 168.78 C 173.03 168.78 173.45 168.78 173.86 168.78 L 174.26 168.78 L 175.06 168.78 L 175.85 168.85 L 176.25 168.85 L 177.37 169.01 L 177.37 169.01 L 178.37 169.20 L 178.71 169.28 L 179.36 169.44 L 179.94 169.62 L 180.23 169.71 C 180.51 169.81 180.78 169.91 181.04 170.02 C 181.27 170.13 181.50 170.25 181.72 170.38 L 181.84 170.45 C 182.05 170.56 182.24 170.69 182.43 170.83 Z" fill="#67c8ff" fill-rule="nonzero" group-id="1" node-id="185" stroke="none" target-height="18.710007" target-width="14.520004" target-x="169.65" target-y="157.29"/><path d="M 122.87 157.13 L 152.43 157.13 L 152.43 168.62 L 122.87 168.62 Z" fill="#67c8ff" fill-rule="nonzero" group-id="1" node-id="187" stroke="none" target-height="11.48999" target-width="29.55999" target-x="122.87" target-y="157.13"/><path d="M 169.61 106.86 C 169.61 106.51 169.61 106.18 169.61 105.86 C 169.61 105.78 169.61 105.71 169.61 105.63 C 169.61 105.55 169.61 105.28 169.61 105.11 C 169.61 105.02 169.61 104.93 169.61 104.84 C 169.61 104.59 169.55 104.35 169.51 104.11 C 169.52 104.00 169.52 103.89 169.51 103.78 C 169.49 103.70 169.47 103.63 169.46 103.55 L 169.34 103.03 C 169.34 102.92 169.34 102.80 169.27 102.69 C 169.24 102.61 169.21 102.52 169.19 102.44 C 169.19 102.30 169.11 102.17 169.06 102.04 C 169.04 101.95 169.01 101.86 168.98 101.78 C 168.98 101.66 168.89 101.55 168.84 101.43 C 168.79 101.31 168.76 101.22 168.71 101.12 L 168.71 100.97 C 168.63 100.79 168.53 100.63 168.45 100.46 C 168.41 100.40 168.38 100.34 168.35 100.27 L 168.35 100.27 C 168.21 100.02 168.05 99.78 167.89 99.55 L 167.89 99.55 C 167.80 99.42 167.70 99.31 167.61 99.19 C 167.52 99.07 167.41 98.94 167.31 98.83 C 167.21 98.72 167.31 98.83 167.31 98.83 L 166.86 98.40 L 166.60 98.16 C 166.39 97.99 166.18 97.83 165.95 97.68 L 165.82 97.58 L 165.82 97.58 L 165.36 97.31 C 165.30 97.28 165.24 97.25 165.17 97.22 L 164.65 96.97 C 164.51 96.91 164.36 96.84 164.21 96.79 C 164.06 96.74 163.84 96.65 163.64 96.59 L 163.33 96.49 C 163.28 96.48 163.24 96.48 163.19 96.49 C 162.87 96.40 162.54 96.33 162.19 96.27 L 161.99 96.27 L 161.94 96.27 C 161.54 96.21 161.11 96.16 160.68 96.13 L 160.68 96.13 C 160.29 96.13 159.89 96.13 159.48 96.13 L 159.00 96.13 L 158.57 96.13 L 158.27 96.13 C 158.06 96.13 157.84 96.13 157.63 96.22 L 157.63 96.22 L 157.50 96.22 C 157.35 96.24 157.21 96.27 157.07 96.31 C 157.03 96.30 157.00 96.30 156.96 96.31 C 156.89 96.32 156.81 96.34 156.74 96.37 L 156.50 96.43 L 156.30 96.51 L 156.07 96.59 L 155.93 96.59 L 155.66 96.71 L 155.42 96.82 L 155.34 96.82 L 155.10 96.96 L 154.77 97.14 L 154.69 97.14 L 154.55 97.24 L 154.02 97.62 L 153.90 97.71 L 153.63 97.94 C 151.50 99.96 149.53 102.15 147.76 104.49 L 111.32 150.29 L 108.77 153.46 C 108.09 154.32 107.43 155.21 106.77 156.14 C 106.18 156.96 105.70 157.85 105.33 158.79 C 105.10 159.39 104.95 160.02 104.88 160.66 C 104.88 160.86 104.88 161.07 104.88 161.27 L 104.88 161.27 L 104.88 172.76 C 104.89 171.91 105.05 171.06 105.36 170.27 C 105.73 169.33 106.21 168.45 106.80 167.63 C 107.45 166.70 108.11 165.81 108.80 164.94 L 111.35 161.78 L 147.76 116.00 C 149.53 113.66 151.50 111.46 153.63 109.44 L 154.02 109.13 C 154.19 108.99 154.37 108.87 154.55 108.74 C 154.63 108.70 154.70 108.65 154.77 108.60 L 155.10 108.41 L 155.42 108.24 L 155.66 108.13 L 156.07 107.96 L 156.30 107.87 L 156.74 107.73 L 156.96 107.67 L 157.50 107.56 L 157.63 107.56 C 157.86 107.56 158.10 107.49 158.34 107.47 L 158.60 107.47 C 158.79 107.47 158.98 107.47 159.17 107.47 C 159.59 107.47 160.00 107.47 160.40 107.47 C 160.82 107.50 161.24 107.54 161.66 107.61 L 161.91 107.61 C 162.25 107.67 162.58 107.74 162.91 107.82 L 163.36 107.96 C 163.56 108.02 163.75 108.08 163.93 108.15 L 164.37 108.34 L 164.89 108.58 C 165.11 108.70 165.33 108.82 165.54 108.95 L 165.54 108.95 L 165.67 109.05 C 165.90 109.20 166.11 109.36 166.32 109.53 C 166.41 109.60 166.49 109.69 166.58 109.77 C 166.67 109.85 166.89 110.05 167.03 110.20 C 167.17 110.35 167.24 110.46 167.35 110.59 C 167.46 110.72 167.54 110.82 167.63 110.95 C 167.81 111.20 167.98 111.46 168.13 111.73 L 168.23 111.92 C 168.34 112.13 168.45 112.35 168.54 112.57 C 168.63 112.79 168.63 112.79 168.67 112.89 C 168.75 113.09 168.83 113.29 168.89 113.50 C 168.94 113.63 168.98 113.76 169.02 113.90 L 169.17 114.49 L 169.29 115.01 L 169.38 115.57 C 169.38 115.81 169.46 116.05 169.48 116.30 C 169.50 116.55 169.54 116.82 169.56 117.09 C 169.56 117.17 169.56 117.24 169.56 117.32 C 169.56 117.74 169.56 118.16 169.56 118.61 L 169.56 118.61 L 169.56 107.13 C 169.58 107.04 169.60 106.95 169.61 106.86 Z" fill="#67c8ff" fill-rule="nonzero" group-id="1" node-id="189" stroke="none" target-height="76.63" target-width="64.73484" target-x="104.88" target-y="96.13"/><path d="M 247.00 164.23 C 246.00 169.36 244.37 173.30 242.00 176.06 C 241.73 176.36 241.45 176.65 241.15 176.93 C 241.06 177.02 240.97 177.09 240.88 177.17 C 240.69 177.34 240.50 177.51 240.29 177.66 C 240.10 177.80 239.92 177.94 239.73 178.06 C 239.54 178.18 239.34 178.33 239.13 178.45 L 238.75 178.66 C 238.47 178.81 238.18 178.96 237.89 179.09 L 237.69 179.17 C 237.32 179.33 236.94 179.46 236.56 179.57 L 236.27 179.66 C 235.95 179.74 235.63 179.82 235.27 179.88 L 235.00 180.00 C 234.57 180.07 234.13 180.14 233.68 180.18 L 233.45 180.18 C 233.02 180.18 232.58 180.23 232.12 180.23 C 231.66 180.23 231.22 180.23 230.78 180.18 L 230.08 180.10 L 229.31 180.00 L 229.10 180.00 C 228.71 179.92 228.32 179.83 227.94 179.73 C 227.56 179.63 227.46 179.57 227.22 179.48 L 226.67 179.29 C 226.43 179.19 226.21 179.08 225.97 178.96 C 225.73 178.84 225.64 178.82 225.49 178.73 L 225.28 178.60 C 225.00 178.45 224.72 178.28 224.46 178.09 C 224.25 177.94 224.05 177.78 223.85 177.62 L 223.42 177.28 C 223.21 177.09 223.01 176.89 222.82 176.69 C 222.63 176.49 222.55 176.44 222.43 176.30 C 222.16 176.00 221.90 175.69 221.66 175.36 L 221.49 175.14 C 221.26 174.82 221.02 174.48 220.80 174.14 C 220.77 174.08 220.74 174.02 220.70 173.97 C 220.50 173.63 220.30 173.28 220.11 172.97 C 220.07 172.91 220.04 172.85 220.01 172.79 C 219.81 172.40 219.62 171.99 219.43 171.57 L 219.30 171.26 C 219.13 170.86 218.96 170.45 218.81 170.02 L 218.75 169.88 C 218.58 169.41 218.42 168.88 218.27 168.41 L 218.15 167.98 C 218.03 167.59 217.93 167.19 217.82 166.78 C 217.82 166.63 217.75 166.47 217.71 166.32 C 217.58 165.77 217.45 165.21 217.34 164.64 C 217.23 164.07 217.11 163.39 217.01 162.74 L 217.01 162.60 C 216.91 161.99 216.82 161.35 216.74 160.70 C 216.74 160.53 216.74 160.36 216.67 160.19 C 216.60 159.62 216.54 159.05 216.48 158.46 C 216.48 158.34 216.48 158.23 216.48 158.11 L 216.39 157.11 C 216.39 156.62 216.30 156.11 216.26 155.63 C 216.22 155.15 216.26 154.88 216.19 154.51 C 216.12 154.14 216.13 153.51 216.10 153.00 C 216.07 152.49 216.10 152.19 216.05 151.79 C 216.00 151.39 216.05 150.79 215.98 150.24 L 215.98 148.94 L 215.98 147.33 C 215.98 146.48 215.98 145.63 215.98 144.76 L 215.98 156.24 C 215.98 156.99 215.98 157.73 215.98 158.45 C 215.98 158.58 215.98 158.69 215.98 158.81 C 215.98 159.36 215.98 159.89 215.98 160.42 C 215.98 160.95 215.98 161.30 215.98 161.72 C 215.98 162.14 215.98 162.72 216.05 163.28 C 216.12 163.84 216.05 164.10 216.10 164.49 L 216.19 165.99 C 216.19 166.37 216.19 166.75 216.26 167.11 C 216.26 167.62 216.35 168.11 216.39 168.60 C 216.39 168.89 216.44 169.20 216.47 169.49 C 216.47 169.49 216.47 169.58 216.47 169.62 C 216.47 169.66 216.47 169.85 216.47 169.97 C 216.53 170.56 216.59 171.13 216.66 171.69 C 216.66 171.87 216.71 172.04 216.73 172.21 C 216.81 172.86 216.90 173.49 217.00 174.11 L 217.00 174.25 C 217.06 174.66 217.13 175.07 217.20 175.46 C 217.20 175.69 217.29 175.92 217.33 176.14 C 217.44 176.72 217.57 177.28 217.70 177.83 C 217.70 177.98 217.77 178.13 217.81 178.29 C 217.85 178.45 217.90 178.66 217.95 178.84 C 218.00 179.02 218.07 179.27 218.14 179.49 L 218.26 179.92 C 218.41 180.40 218.56 180.92 218.72 181.34 C 218.72 181.34 218.72 181.34 218.72 181.34 L 218.78 181.48 C 218.93 181.91 219.10 182.32 219.27 182.72 L 219.40 183.03 L 219.51 183.29 C 219.66 183.62 219.82 183.94 219.98 184.29 C 220.01 184.35 220.04 184.41 220.08 184.47 C 220.17 184.65 220.27 184.83 220.37 185.01 L 220.67 185.51 L 220.77 185.68 C 220.95 185.96 221.13 186.24 221.31 186.50 L 221.47 186.70 L 221.63 186.92 C 221.88 187.25 222.13 187.56 222.40 187.86 L 222.46 187.92 C 222.56 188.04 222.68 188.14 222.79 188.25 C 222.90 188.36 223.18 188.65 223.39 188.83 C 223.60 189.01 223.68 189.06 223.82 189.18 C 223.96 189.30 224.22 189.50 224.43 189.65 L 224.50 189.71 C 224.75 189.87 225.00 190.02 225.25 190.16 L 225.46 190.29 L 225.46 190.29 L 225.92 190.51 C 226.15 190.62 226.38 190.74 226.62 190.84 L 227.17 191.03 C 227.41 191.11 227.64 191.20 227.89 191.27 L 227.89 191.27 C 228.26 191.37 228.63 191.45 229.01 191.52 L 229.22 191.52 L 229.42 191.52 C 229.60 191.52 229.80 191.52 229.99 191.58 C 230.18 191.64 230.45 191.65 230.69 191.66 L 230.84 191.66 C 231.23 191.66 231.62 191.66 232.03 191.66 L 232.29 191.66 C 232.65 191.66 233.01 191.66 233.36 191.60 L 233.62 191.60 C 234.00 191.60 234.38 191.52 234.75 191.46 L 234.91 191.46 L 235.23 191.39 L 235.75 191.29 L 236.20 191.16 L 236.49 191.08 L 236.67 191.03 C 236.98 190.93 237.27 190.83 237.56 190.71 L 237.62 190.71 L 237.82 190.62 L 238.44 190.34 C 238.53 190.34 238.60 190.24 238.68 190.20 L 239.06 189.99 C 239.16 189.92 239.27 189.87 239.37 189.81 L 239.66 189.60 L 240.22 189.20 L 240.46 189.02 L 240.81 188.71 L 241.08 188.47 C 241.38 188.19 241.66 187.90 241.93 187.59 C 244.32 184.84 245.93 180.90 246.93 175.77 C 248.01 169.11 248.49 162.37 248.37 155.62 L 248.37 144.08 C 248.51 150.82 248.05 157.57 247.00 164.23 Z" fill="#67c8ff" fill-rule="nonzero" group-id="1" node-id="191" stroke="none" target-height="47.58" target-width="32.533447" target-x="215.98" target-y="144.08"/><path d="M 267.31 143.70 C 267.31 143.58 267.31 143.47 267.31 143.36 C 267.31 142.87 267.31 142.36 267.31 141.93 C 267.31 141.50 267.31 141.24 267.31 140.93 C 267.31 140.43 267.31 139.93 267.25 139.47 C 267.25 139.16 267.25 138.85 267.25 138.55 C 267.25 138.01 267.19 137.47 267.15 136.94 C 267.15 136.71 267.15 136.48 267.15 136.26 C 267.09 135.51 267.03 134.77 266.96 134.04 L 266.96 134.04 C 266.90 133.41 266.83 132.79 266.76 132.17 C 266.76 131.98 266.71 131.80 266.69 131.61 C 266.63 131.18 266.58 130.75 266.52 130.32 C 266.52 130.10 266.45 129.89 266.42 129.67 C 266.36 129.28 266.30 128.89 266.23 128.50 C 266.23 128.29 266.16 128.08 266.13 127.88 L 266.07 127.53 C 266.07 127.39 266.01 127.26 265.99 127.12 L 265.66 125.49 C 265.61 125.28 265.57 125.07 265.52 124.86 C 265.36 124.15 265.19 123.45 265.01 122.78 L 265.01 122.78 C 264.85 122.18 264.68 121.59 264.50 121.02 L 264.32 120.46 C 264.20 120.08 264.07 119.69 263.94 119.32 C 263.94 119.25 263.94 119.18 263.87 119.11 C 263.80 119.04 263.74 118.79 263.68 118.62 L 263.38 117.82 C 263.29 117.59 263.19 117.36 263.09 117.13 C 262.99 116.90 262.88 116.62 262.77 116.37 C 262.77 116.29 262.70 116.20 262.66 116.12 C 262.53 115.83 262.39 115.54 262.26 115.26 C 261.92 114.58 261.56 113.92 261.20 113.26 C 261.15 113.18 261.11 113.09 261.07 113.01 L 260.89 112.72 C 260.69 112.38 260.49 112.04 260.29 111.72 C 260.09 111.40 260.06 111.34 259.94 111.16 C 259.71 110.80 259.47 110.44 259.22 110.09 C 259.15 109.98 259.08 109.87 259.00 109.76 L 259.00 109.70 C 258.63 109.19 258.25 108.69 257.86 108.20 L 257.56 107.83 C 257.26 107.47 256.95 107.11 256.64 106.76 C 256.58 106.69 256.51 106.60 256.44 106.53 L 256.27 106.36 C 255.83 105.87 255.37 105.36 254.90 104.95 L 253.90 104.03 L 253.58 103.76 L 252.84 103.15 L 252.47 102.87 C 252.20 102.66 251.93 102.46 251.66 102.27 L 251.37 102.06 L 251.27 101.99 L 250.85 101.72 C 250.59 101.54 250.32 101.37 250.05 101.20 L 249.49 100.87 L 248.71 100.42 L 248.53 100.32 L 248.24 100.17 C 247.82 99.96 247.41 99.75 246.98 99.55 L 246.50 99.33 C 245.93 99.08 245.36 98.84 244.77 98.62 C 244.18 98.40 243.86 98.29 243.40 98.14 L 242.94 98.00 L 242.20 97.78 L 242.03 97.78 C 241.54 97.64 241.03 97.52 240.54 97.41 L 240.30 97.35 C 239.71 97.22 239.12 97.11 238.51 97.01 L 238.39 97.01 L 237.82 96.93 L 236.82 96.80 L 236.07 96.72 L 235.07 96.63 L 234.82 96.63 L 234.03 96.63 L 233.51 96.63 C 232.97 96.63 232.43 96.63 231.88 96.63 L 230.97 96.63 C 230.62 96.63 230.27 96.63 229.92 96.63 L 229.45 96.63 L 228.04 96.73 L 227.97 96.73 C 227.52 96.78 227.07 96.82 226.63 96.88 L 226.22 96.94 L 225.31 97.07 L 225.18 97.07 L 224.77 97.14 L 224.08 97.27 L 223.53 97.38 L 222.86 97.53 L 222.67 97.53 L 222.30 97.63 L 221.69 97.78 L 221.13 97.94 L 220.54 98.12 L 220.33 98.18 L 220.00 98.30 L 219.41 98.50 L 218.88 98.69 L 218.31 98.91 L 218.07 99.00 L 217.80 99.12 L 217.18 99.38 L 216.70 99.60 L 216.09 99.90 L 215.81 100.03 C 215.75 100.06 215.69 100.09 215.63 100.12 L 214.87 100.54 L 214.51 100.73 C 214.14 100.94 213.78 101.16 213.42 101.38 L 213.42 101.38 C 212.84 101.74 212.29 102.13 211.75 102.53 C 211.58 102.64 211.43 102.77 211.27 102.89 C 211.11 103.01 210.82 103.22 210.61 103.40 C 210.40 103.58 210.29 103.68 210.13 103.81 L 209.58 104.29 C 209.21 104.62 208.85 104.97 208.50 105.29 L 208.06 105.72 C 207.58 106.22 207.06 106.72 206.66 107.28 L 206.49 107.50 C 206.10 107.97 205.72 108.50 205.36 108.97 C 205.22 109.16 205.09 109.36 204.96 109.55 C 204.68 109.96 204.40 110.37 204.14 110.79 L 203.73 111.46 C 203.47 111.90 203.22 112.35 202.97 112.81 L 202.64 113.43 C 202.30 114.11 201.97 114.79 201.64 115.50 C 199.87 119.80 198.65 124.30 198.00 128.90 C 197.23 134.72 196.86 140.59 196.90 146.47 L 196.90 158.00 C 196.86 152.12 197.23 146.25 198.00 140.43 C 198.59 135.83 199.75 131.31 201.46 127.00 C 201.77 126.29 202.10 125.60 202.46 124.93 L 202.79 124.31 C 203.04 123.85 203.29 123.40 203.55 122.96 L 203.96 122.29 C 204.22 121.87 204.50 121.45 204.78 121.05 C 204.91 120.85 205.04 120.65 205.18 120.46 C 205.54 119.96 205.92 119.46 206.31 119.00 L 206.48 118.78 C 206.93 118.24 207.40 117.72 207.88 117.22 L 208.32 116.78 C 208.67 116.43 209.03 116.09 209.40 115.78 L 209.95 115.30 C 210.32 114.98 210.70 114.68 211.09 114.38 C 211.25 114.26 211.40 114.13 211.57 114.01 C 212.12 113.61 212.69 113.21 213.27 112.84 C 213.63 112.62 213.99 112.40 214.36 112.19 L 214.72 111.99 L 215.48 111.58 L 215.94 111.35 L 216.55 111.06 L 217.03 110.84 L 217.65 110.57 L 218.16 110.37 L 218.73 110.15 L 219.26 109.95 L 219.85 109.75 L 220.39 109.58 L 220.98 109.40 L 221.54 109.24 L 222.15 109.09 L 222.71 108.95 L 223.37 108.80 L 223.93 108.69 L 224.61 108.56 L 225.16 108.46 L 226.07 108.33 L 226.48 108.28 C 226.92 108.22 227.37 108.17 227.82 108.13 L 227.89 108.13 C 228.35 108.13 228.82 108.05 229.30 108.03 L 229.77 108.03 L 230.82 108.03 L 231.73 108.03 C 232.28 108.03 232.82 108.03 233.36 108.03 L 233.88 108.03 L 234.88 108.09 C 235.21 108.09 235.53 108.15 235.88 108.18 L 236.63 108.25 L 237.63 108.39 L 238.32 108.49 C 238.93 108.59 239.52 108.70 240.11 108.83 L 240.35 108.83 L 241.84 109.20 L 242.75 109.47 L 243.21 109.61 C 243.67 109.76 244.13 109.92 244.58 110.09 C 245.03 110.26 245.74 110.55 246.31 110.80 L 246.79 111.02 C 247.22 111.22 247.63 111.42 248.05 111.64 L 248.52 111.89 C 248.78 112.03 249.04 112.18 249.30 112.34 C 249.49 112.45 249.68 112.55 249.86 112.67 C 250.04 112.79 250.40 113.01 250.66 113.18 L 251.18 113.53 L 251.47 113.74 C 251.74 113.93 252.02 114.13 252.28 114.34 L 252.64 114.62 C 252.90 114.82 253.14 115.02 253.39 115.23 L 253.71 115.50 C 254.05 115.80 254.39 116.10 254.71 116.42 C 255.03 116.74 255.64 117.34 256.08 117.82 L 256.45 118.23 C 256.76 118.58 257.07 118.94 257.37 119.30 L 257.67 119.67 C 258.06 120.16 258.44 120.67 258.81 121.17 L 259.07 121.56 C 259.32 121.91 259.56 122.27 259.79 122.63 L 260.14 123.18 L 260.74 124.18 L 261.05 124.72 C 261.41 125.37 261.77 126.03 262.11 126.72 L 262.62 127.83 C 262.73 128.08 262.84 128.33 262.94 128.59 C 263.04 128.85 263.14 129.04 263.23 129.28 L 263.53 130.08 C 263.62 130.31 263.71 130.54 263.79 130.78 C 263.87 131.02 264.05 131.53 264.17 131.92 L 264.35 132.48 C 264.53 133.05 264.70 133.64 264.86 134.24 L 264.86 134.24 C 265.04 134.91 265.21 135.61 265.37 136.31 C 265.42 136.52 265.46 136.74 265.51 136.95 C 265.62 137.48 265.73 138.03 265.84 138.58 C 265.84 138.83 265.93 139.08 265.98 139.33 C 266.03 139.58 266.05 139.75 266.08 139.96 C 266.15 140.35 266.21 140.73 266.27 141.13 C 266.27 141.34 266.34 141.56 266.37 141.78 C 266.43 142.20 266.48 142.63 266.54 143.07 C 266.54 143.26 266.59 143.44 266.61 143.63 C 266.68 144.25 266.75 144.88 266.82 145.53 C 266.89 146.18 266.95 146.99 267.01 147.74 C 267.01 147.97 267.01 148.20 267.01 148.43 C 267.01 148.96 267.08 149.50 267.11 150.04 C 267.11 150.34 267.11 150.65 267.11 150.95 C 267.11 151.44 267.16 151.95 267.17 152.41 C 267.18 152.87 267.17 153.09 267.17 153.41 C 267.17 153.73 267.17 154.41 267.17 154.84 C 267.17 155.51 267.17 156.18 267.17 156.84 L 267.17 156.84 L 267.17 145.37 C 267.32 144.81 267.32 144.25 267.31 143.70 Z" fill="#67c8ff" fill-rule="nonzero" group-id="1" node-id="193" stroke="none" target-height="61.370003" target-width="70.45903" target-x="196.86098" target-y="96.63"/><path d="M 356.80 170.83 L 356.89 170.92 C 357.04 171.05 357.18 171.20 357.30 171.36 L 357.42 171.51 C 357.56 171.70 357.69 171.90 357.81 172.10 C 357.82 172.13 357.84 172.17 357.86 172.20 C 357.98 172.44 358.09 172.68 358.18 172.93 L 358.18 172.93 C 358.27 173.18 358.34 173.45 358.40 173.71 C 358.41 173.77 358.41 173.84 358.40 173.90 C 358.46 174.20 358.51 174.50 358.54 174.80 C 358.54 174.84 358.54 174.88 358.54 174.92 C 358.54 175.23 358.54 175.56 358.54 175.92 L 358.54 164.28 C 358.54 163.99 358.54 163.71 358.54 163.44 C 358.54 163.40 358.54 163.36 358.54 163.32 L 358.54 163.32 C 358.54 163.07 358.48 162.82 358.44 162.58 C 358.44 162.58 358.44 162.48 358.44 162.43 C 358.44 162.37 358.44 162.30 358.44 162.24 C 358.44 162.15 358.44 162.05 358.38 161.97 C 358.32 161.89 358.28 161.62 358.22 161.46 L 358.22 161.46 C 358.16 161.30 358.10 161.14 358.03 160.99 C 357.96 160.84 357.94 160.82 357.90 160.74 L 357.85 160.64 C 357.85 160.64 357.85 160.59 357.85 160.56 C 357.85 160.53 357.68 160.28 357.59 160.14 L 357.50 160.04 L 357.38 159.89 L 357.22 159.69 L 356.97 159.45 L 356.88 159.36 C 356.74 159.23 356.58 159.11 356.42 159.00 L 356.31 158.93 L 356.19 158.86 L 356.00 158.74 L 355.51 158.51 C 355.25 158.40 354.98 158.29 354.70 158.20 L 354.41 158.10 L 353.87 157.94 L 353.87 157.94 L 353.22 157.78 L 352.88 157.70 L 351.88 157.51 L 351.79 157.51 C 351.43 157.45 351.05 157.40 350.67 157.36 L 350.29 157.36 L 349.47 157.29 L 349.42 157.29 L 348.69 157.29 L 348.28 157.29 L 347.02 157.29 L 344.02 157.29 L 344.02 168.78 L 347.02 168.78 C 347.45 168.78 347.87 168.78 348.28 168.78 L 348.68 168.78 L 349.47 168.78 L 350.29 168.85 L 350.67 168.85 L 351.79 169.01 L 351.88 169.01 L 352.88 169.19 L 353.22 169.27 L 353.87 169.43 L 354.45 169.61 L 354.74 169.70 C 355.02 169.80 355.29 169.90 355.55 170.01 C 355.78 170.12 356.01 170.24 356.23 170.37 L 356.35 170.44 C 356.51 170.56 356.66 170.69 356.80 170.83 Z" fill="#67c8ff" fill-rule="nonzero" group-id="1" node-id="195" stroke="none" target-height="18.630005" target-width="14.52002" target-x="344.02" target-y="157.29"/><path d="M 297.24 157.13 L 326.80 157.13 L 326.80 168.62 L 297.24 168.62 Z" fill="#67c8ff" fill-rule="nonzero" group-id="1" node-id="197" stroke="none" target-height="11.48999" target-width="29.559998" target-x="297.24" target-y="157.13"/><path d="M 344.00 106.86 C 344.00 106.51 344.00 106.17 344.00 105.86 C 344.00 105.78 344.00 105.71 344.00 105.63 C 344.00 105.55 344.00 105.28 344.00 105.11 C 344.00 104.94 344.00 104.93 344.00 104.84 C 344.00 104.59 343.94 104.35 343.90 104.11 C 343.86 103.87 343.90 103.88 343.85 103.78 C 343.84 103.70 343.82 103.63 343.80 103.55 C 343.80 103.37 343.73 103.20 343.69 103.03 C 343.65 102.86 343.64 102.80 343.61 102.69 C 343.59 102.60 343.56 102.52 343.53 102.44 L 343.41 102.04 C 343.41 101.95 343.36 101.86 343.33 101.78 C 343.30 101.70 343.24 101.55 343.19 101.43 C 343.14 101.31 343.11 101.22 343.06 101.12 L 343.00 100.97 C 342.92 100.79 342.83 100.63 342.74 100.46 C 342.71 100.39 342.68 100.33 342.64 100.27 L 342.64 100.27 C 342.50 100.02 342.35 99.78 342.19 99.55 L 342.19 99.55 C 342.10 99.43 342.00 99.31 341.90 99.20 C 341.80 99.09 341.71 98.94 341.61 98.83 L 341.61 98.83 C 341.47 98.68 341.32 98.54 341.16 98.40 L 340.91 98.16 C 340.71 97.99 340.49 97.83 340.27 97.68 L 340.13 97.58 L 340.13 97.58 L 339.67 97.31 C 339.61 97.27 339.55 97.24 339.48 97.22 C 339.32 97.13 339.14 97.05 338.97 96.97 C 338.80 96.89 338.68 96.84 338.53 96.79 L 337.96 96.59 L 337.65 96.49 L 337.51 96.49 C 337.18 96.40 336.85 96.33 336.51 96.27 L 336.31 96.27 L 336.31 96.27 C 335.90 96.21 335.48 96.16 335.04 96.13 L 335.04 96.13 C 334.66 96.13 334.26 96.13 333.85 96.13 L 333.71 96.13 L 333.28 96.13 L 332.98 96.13 C 332.77 96.13 332.55 96.13 332.34 96.22 L 332.34 96.22 L 332.21 96.22 C 332.06 96.22 331.92 96.22 331.78 96.31 C 331.74 96.30 331.71 96.30 331.67 96.31 C 331.60 96.32 331.52 96.34 331.45 96.37 L 331.21 96.43 L 331.01 96.51 L 330.78 96.59 L 330.64 96.59 L 330.37 96.71 L 330.13 96.82 L 330.05 96.82 L 329.81 96.96 L 329.48 97.14 L 329.41 97.14 L 329.27 97.25 C 329.08 97.36 328.91 97.49 328.74 97.63 L 328.62 97.71 L 328.34 97.95 C 326.20 99.97 324.23 102.16 322.46 104.50 L 286.03 150.30 C 285.03 151.55 284.17 152.61 283.49 153.47 C 282.81 154.33 282.13 155.22 281.49 156.15 C 280.90 156.97 280.42 157.86 280.05 158.80 C 279.82 159.40 279.67 160.03 279.60 160.67 C 279.60 160.87 279.60 161.08 279.60 161.28 L 279.60 161.28 L 279.60 172.77 C 279.61 171.92 279.77 171.07 280.08 170.28 C 280.45 169.34 280.93 168.46 281.52 167.64 C 282.16 166.71 282.83 165.82 283.52 164.95 L 286.06 161.79 L 322.12 116.00 C 323.90 113.65 325.86 111.46 328.00 109.44 L 328.40 109.12 L 328.93 108.74 L 329.14 108.60 L 329.47 108.41 L 329.79 108.24 L 330.03 108.13 L 330.44 107.96 L 330.67 107.87 L 331.11 107.73 L 331.33 107.67 L 331.87 107.56 L 332.00 107.56 C 332.23 107.56 332.47 107.49 332.71 107.47 L 333.00 107.47 C 333.19 107.47 333.37 107.47 333.57 107.47 C 333.99 107.47 334.40 107.47 334.79 107.47 C 335.22 107.50 335.64 107.54 336.06 107.61 L 336.31 107.61 C 336.65 107.67 336.98 107.74 337.31 107.82 L 337.76 107.96 C 337.95 108.02 338.15 108.08 338.33 108.15 L 338.77 108.34 L 339.28 108.58 C 339.51 108.70 339.73 108.82 339.93 108.95 L 339.93 108.95 L 340.08 109.05 C 340.30 109.20 340.52 109.36 340.72 109.53 C 340.81 109.60 340.89 109.69 340.98 109.77 C 341.07 109.85 341.28 110.05 341.42 110.20 C 341.53 110.32 341.64 110.45 341.74 110.59 C 341.84 110.71 341.94 110.82 342.03 110.95 C 342.21 111.20 342.38 111.46 342.52 111.73 C 342.56 111.79 342.59 111.85 342.62 111.92 C 342.73 112.13 342.84 112.35 342.94 112.57 C 343.04 112.79 343.03 112.78 343.07 112.89 C 343.11 113.00 343.22 113.29 343.29 113.50 L 343.41 113.89 C 343.47 114.09 343.52 114.29 343.57 114.49 C 343.62 114.69 343.65 114.83 343.68 115.01 C 343.71 115.19 343.75 115.38 343.78 115.57 C 343.81 115.76 343.85 116.05 343.88 116.30 C 343.91 116.55 343.94 116.82 343.96 117.09 C 343.96 117.17 343.96 117.24 343.96 117.32 C 343.96 117.74 343.96 118.16 343.96 118.61 L 343.96 118.61 L 343.96 106.86 Z" fill="#67c8ff" fill-rule="nonzero" group-id="1" node-id="199" stroke="none" target-height="76.64001" target-width="64.399994" target-x="279.6" target-y="96.13"/><path d="M 181.06 170.00 C 183.19 170.91 184.25 172.89 184.26 175.95 C 184.44 178.10 183.44 180.19 181.65 181.40 C 179.91 182.55 177.29 183.12 173.81 183.12 L 169.62 183.12 L 169.62 195.12 C 169.62 198.45 168.84 200.92 167.28 202.51 C 163.75 205.76 158.30 205.73 154.80 202.44 C 153.22 200.79 152.43 198.34 152.43 195.12 L 152.43 183.12 L 117.92 183.12 C 113.57 183.12 110.30 182.19 108.13 180.34 C 105.93 178.46 104.72 175.67 104.86 172.78 C 104.87 171.93 105.03 171.08 105.34 170.29 C 105.71 169.35 106.19 168.47 106.78 167.65 C 107.43 166.72 108.09 165.83 108.78 164.96 L 111.33 161.80 L 147.76 116.00 C 149.53 113.66 151.50 111.46 153.63 109.44 C 155.16 108.10 157.14 107.39 159.17 107.44 C 166.13 107.44 169.61 111.19 169.62 118.69 L 169.62 168.69 L 172.57 168.69 C 175.46 168.57 178.34 169.01 181.06 170.00 Z M 152.43 168.65 L 152.43 131.09 L 122.87 168.62 L 152.43 168.62" fill="#8cd7ff" fill-rule="nonzero" group-id="1" node-id="201" stroke="none" target-height="98.37277" target-width="79.71204" target-x="104.723015" target-y="107.38982"/><path d="M 262.10 126.69 C 265.58 133.80 267.32 143.86 267.32 156.86 C 267.41 162.96 266.97 169.05 266.00 175.07 C 265.16 179.95 263.43 184.64 260.91 188.90 C 257.97 193.81 253.80 197.86 248.81 200.66 C 243.76 203.44 238.07 204.87 232.31 204.79 C 225.65 204.88 219.12 202.95 213.58 199.24 C 207.99 195.46 203.65 190.11 201.10 183.86 C 199.60 180.04 198.53 176.06 197.92 172.00 C 197.24 167.37 196.90 162.69 196.92 158.00 C 196.88 152.12 197.25 146.25 198.02 140.43 C 198.60 135.83 199.75 131.31 201.46 127.00 C 203.85 121.18 207.96 116.23 213.25 112.82 C 218.40 109.57 224.56 107.95 231.71 107.94 C 236.09 107.88 240.44 108.62 244.56 110.11 C 248.34 111.50 251.79 113.66 254.70 116.44 C 257.75 119.39 260.26 122.86 262.10 126.69 Z M 247.04 175.69 C 248.12 169.03 248.60 162.29 248.48 155.54 C 248.61 149.07 248.11 142.60 247.00 136.22 C 246.00 131.22 244.30 127.41 241.92 124.85 C 239.54 122.29 236.20 121.00 232.00 121.00 C 225.95 121.00 221.75 123.86 219.39 129.59 C 217.03 135.32 215.85 144.14 215.85 156.07 C 215.73 162.74 216.24 169.40 217.36 175.97 C 218.37 181.14 220.06 185.05 222.45 187.70 C 224.93 190.40 228.48 191.87 232.14 191.70 C 236.36 191.70 239.66 190.32 242.04 187.56 C 244.43 184.81 246.04 180.87 247.04 175.74" fill="#8cd7ff" fill-rule="nonzero" group-id="1" node-id="203" stroke="none" target-height="97.00145" target-width="70.52992" target-x="196.88097" target-y="107.880035"/><path d="M 355.43 170.00 C 357.56 170.91 358.62 172.89 358.63 175.95 C 358.80 178.11 357.80 180.19 356.01 181.40 C 354.27 182.55 351.66 183.13 348.18 183.12 L 344.00 183.12 L 344.00 195.12 C 344.00 198.45 343.22 200.92 341.67 202.51 C 340.02 204.16 337.74 205.04 335.41 204.93 C 333.08 205.02 330.81 204.12 329.19 202.44 C 327.61 200.79 326.82 198.34 326.82 195.12 L 326.82 183.12 L 292.29 183.12 C 287.93 183.12 284.66 182.19 282.49 180.34 C 280.30 178.45 279.10 175.67 279.23 172.78 C 279.24 171.93 279.40 171.08 279.71 170.29 C 280.08 169.35 280.56 168.47 281.15 167.65 C 281.79 166.72 282.46 165.83 283.15 164.96 L 285.69 161.80 L 322.12 116.00 C 323.90 113.65 325.86 111.46 328.00 109.44 C 329.53 108.10 331.51 107.39 333.54 107.44 C 340.50 107.44 343.98 111.19 343.98 118.69 L 343.98 168.69 L 346.98 168.69 C 349.85 168.57 352.73 169.02 355.43 170.00 Z M 326.80 168.65 L 326.80 131.09 L 297.24 168.62 L 326.80 168.62" fill="#8cd7ff" fill-rule="nonzero" group-id="1" node-id="205" stroke="none" target-height="97.65399" target-width="79.70325" target-x="279.09964" target-y="107.38785"/><path d="M 270.46 172.17 C 270.53 173.59 269.96 174.78 269.18 174.81 C 268.40 174.84 267.72 173.73 267.65 172.31 C 267.58 170.89 268.15 169.71 268.93 169.67 C 269.71 169.63 270.39 170.75 270.46 172.17 Z" fill="#b0e7ff" fill-rule="nonzero" group-id="1" node-id="207" stroke="none" target-height="5.2099915" target-width="2.9500122" target-x="267.58" target-y="169.63"/><path d="M 285.58 170.34 C 285.91 170.34 286.20 170.80 286.23 171.40 C 286.26 172.00 286.02 172.50 285.69 172.52 L 284.81 172.61 C 284.93 172.42 284.98 172.25 284.81 172.13 C 284.43 171.79 284.06 171.79 283.81 172.05 C 283.56 172.31 283.64 172.62 283.33 172.76 L 283.33 172.76 L 280.07 173.10 L 279.46 173.17 C 279.62 172.70 279.68 172.21 279.65 171.72 C 279.63 171.23 279.52 170.75 279.32 170.30 L 281.32 170.30 C 281.32 170.61 281.42 171.03 281.74 171.13 C 282.75 171.25 283.78 171.30 284.80 171.26 C 285.80 171.26 285.21 170.61 285.27 170.33 L 285.56 170.33 Z" fill="#728cb9" fill-rule="nonzero" group-id="1" node-id="209" stroke="none" target-height="2.869995" target-width="6.9400024" target-x="279.32" target-y="170.3"/><path d="M 279.17 171.65 C 279.19 172.64 278.79 173.58 278.07 174.26 L 269.40 175.49 C 270.29 175.28 270.93 173.85 270.84 172.15 C 270.75 170.45 270.00 169.06 269.00 169.00 L 277.79 169.38 C 278.59 169.87 279.10 170.72 279.17 171.65 Z" fill="#7798b9" fill-rule="nonzero" group-id="1" node-id="211" stroke="none" target-height="6.4900055" target-width="10.188721" target-x="269" target-y="169"/><path d="M 279.37 170.30 C 279.57 170.75 279.68 171.23 279.70 171.72 C 279.73 172.21 279.67 172.70 279.51 173.17 C 279.30 173.77 278.94 174.17 278.51 174.17 L 278.08 174.23 C 278.80 173.55 279.20 172.61 279.18 171.62 C 279.13 170.68 278.63 169.83 277.84 169.32 L 278.28 169.32 C 278.70 169.35 279.10 169.71 279.37 170.30 Z" fill="#a4c0d9" fill-rule="nonzero" group-id="1" node-id="213" stroke="none" target-height="4.9099884" target-width="1.8943176" target-x="277.84" target-y="169.32"/><path d="M 269.18 174.81 C 269.96 174.81 270.53 173.59 270.46 172.17 C 270.39 170.75 269.71 169.63 268.93 169.67 C 268.15 169.71 267.58 170.89 267.65 172.31 C 267.72 173.73 268.41 174.85 269.18 174.81 Z M 270.84 172.15 C 270.93 173.85 270.29 175.28 269.40 175.49 L 269.40 175.49 L 269.23 175.49 C 268.23 175.49 267.37 174.11 267.23 172.30 C 267.09 170.49 267.87 168.99 268.86 168.94 L 269.00 168.94 C 270.00 169.06 270.76 170.44 270.84 172.15 Z" fill="#a4c0d9" fill-rule="nonzero" group-id="1" node-id="215" stroke="none" target-height="6.550003" target-width="3.8399963" target-x="267.09" target-y="168.94"/><path d="M 303.00 176.00 C 303.02 176.27 303.14 176.52 303.33 176.71 C 303.02 176.63 302.72 176.50 302.45 176.32 C 302.64 176.23 302.82 176.12 303.00 176.00 Z" fill="#000000" fill-rule="nonzero" group-id="1" node-id="217" stroke="none" target-height="0.7100067" target-width="0.87997437" target-x="302.45" target-y="176"/><path d="M 298.64 166.65 L 298.76 166.81 C 298.00 167.38 297.39 168.13 297.00 169.00 C 296.18 168.70 295.47 168.17 294.94 167.48 C 296.92 168.00 297.50 166.05 298.64 166.65 Z" fill="#000000" fill-rule="nonzero" group-id="1" node-id="219" stroke="none" target-height="2.949997" target-width="3.8200073" target-x="294.94" target-y="166.05"/><path d="M 306.62 169.68 C 305.76 165.80 302.78 165.47 302.78 165.47 C 302.78 165.47 299.71 165.00 298.64 166.65 L 298.76 166.81 C 298.00 167.38 297.39 168.13 297.00 169.00 C 297.43 169.19 297.89 169.33 298.35 169.43 C 300.15 169.77 302.53 169.56 303.20 170.58 C 303.87 171.60 303.42 173.24 302.29 174.74 C 301.70 175.54 302.01 176.05 302.45 176.36 C 302.64 176.25 302.83 176.13 303.00 176.00 C 302.98 175.80 303.09 175.60 303.28 175.52 C 303.44 175.46 303.60 175.42 303.77 175.41 C 304.24 175.41 304.71 175.27 305.11 175.02 C 305.68 174.58 307.49 173.56 306.62 169.68 Z" fill="#000000" fill-rule="nonzero" group-id="1" node-id="221" stroke="none" target-height="11.360001" target-width="10.48999" target-x="297" target-y="165"/><path d="M 320.54 231.08 C 320.54 231.71 320.77 234.64 320.01 234.92 C 317.61 235.48 315.18 235.87 312.73 236.09 C 311.66 236.09 311.83 235.24 311.83 235.24 C 311.83 235.24 319.01 234.73 319.64 234.12 C 320.27 233.51 319.96 231.29 319.70 230.04 C 319.43 228.60 319.29 227.13 319.29 225.66 C 319.38 225.08 319.44 224.50 319.46 223.92 C 319.40 223.57 317.87 222.30 317.87 222.30 C 317.98 222.08 318.26 221.99 318.77 221.99 C 319.28 221.99 320.17 223.51 320.21 223.86 C 320.25 224.21 319.83 225.35 319.83 226.22 C 319.83 227.09 320.49 230.45 320.54 231.08 Z" fill="#ebfcff" fill-rule="nonzero" group-id="1" node-id="223" stroke="none" target-height="14.099991" target-width="9.109985" target-x="311.66" target-y="221.99"/><path d="M 319.70 230.00 C 319.96 231.25 320.27 233.47 319.64 234.08 C 319.01 234.69 311.83 235.20 311.83 235.20 C 311.83 235.20 311.83 234.28 311.83 233.90 C 311.83 233.52 315.89 232.72 316.03 231.90 C 316.17 231.08 315.56 229.70 314.80 229.74 C 314.42 229.74 314.32 229.48 314.31 229.17 C 314.32 228.91 314.34 228.65 314.38 228.39 C 314.38 228.15 315.33 229.39 315.73 229.16 C 316.13 228.93 316.59 225.41 315.45 224.39 C 315.22 224.17 314.90 224.07 314.59 224.11 C 314.59 224.11 313.79 223.25 313.90 222.93 C 314.01 222.61 314.53 222.12 314.90 222.62 C 315.27 223.12 316.36 222.55 316.78 222.40 C 317.15 222.31 317.53 222.26 317.91 222.26 C 317.91 222.26 319.44 223.53 319.50 223.88 C 319.48 224.46 319.42 225.04 319.33 225.62 C 319.32 227.09 319.44 228.55 319.70 230.00 Z" fill="#ffb056" fill-rule="nonzero" group-id="1" node-id="225" stroke="none" target-height="13.080002" target-width="8.440002" target-x="311.83" target-y="222.12"/><path d="M 313.73 229.30 L 313.90 232.30 L 295.00 235.55 C 294.16 235.69 293.30 235.48 292.61 234.98 C 291.93 234.47 291.48 233.71 291.36 232.87 L 288.62 212.58 L 297.82 214.68 L 297.47 227.57 L 313.47 224.57 L 313.47 224.75 Z" fill="#257fba" fill-rule="nonzero" group-id="1" node-id="227" stroke="none" target-height="23.110321" target-width="25.279999" target-x="288.62" target-y="212.58"/><path d="M 288.06 204.33 C 288.57 204.78 297.54 206.69 303.21 206.64 L 303.21 206.64 L 302.44 211.74 C 302.29 212.74 301.73 213.63 300.90 214.20 C 300.06 214.77 299.03 214.97 298.04 214.74 L 297.80 214.74 L 288.60 212.64 L 279.94 210.64 L 281.80 229.64 L 279.49 230.03 L 275.04 230.78 L 274.71 230.84 L 272.81 204.00 C 272.75 203.13 273.11 202.28 273.78 201.73 C 274.46 201.17 275.36 200.97 276.20 201.19 Z" fill="#398eed" fill-rule="nonzero" group-id="1" node-id="229" stroke="none" target-height="29.87117" target-width="30.460693" target-x="272.7493" target-y="200.96883"/><path d="M 305.83 192.12 L 305.83 192.12 C 305.79 193.04 305.81 193.96 305.88 194.88 L 295.21 195.19 C 294.58 194.45 293.64 193.79 293.21 194.19 C 293.06 194.35 293.01 194.58 293.08 194.79 C 293.15 195.00 293.33 195.15 293.55 195.19 C 293.87 195.19 294.63 195.90 293.21 195.77 C 291.79 195.64 291.11 194.92 290.59 195.33 C 290.07 195.74 289.93 197.81 290.59 197.98 C 291.25 198.15 294.86 198.31 295.96 197.76 L 306.01 198.27 C 306.17 201.27 306.40 204.64 306.54 206.21 C 305.45 206.53 304.31 206.67 303.17 206.64 C 297.50 206.69 288.53 204.78 288.02 204.33 C 287.51 203.88 289.27 195.23 290.54 188.91 C 289.62 189.48 288.64 189.95 287.62 190.31 C 286.79 189.77 286.13 189.01 285.71 188.12 C 284.97 186.73 284.72 185.12 285.01 183.57 C 285.06 183.36 285.14 183.16 285.25 182.97 C 286.69 181.92 290.43 180.17 292.45 178.78 C 293.67 178.03 295.07 177.61 296.51 177.56 C 296.34 177.88 295.76 180.56 297.38 181.00 C 299.00 181.44 302.38 180.13 302.38 177.92 C 303.48 177.80 304.59 177.98 305.60 178.44 C 307.37 179.44 309.67 184.83 311.49 189.78 C 311.17 190.86 309.27 191.66 307.49 191.97 C 306.94 192.08 306.39 192.13 305.83 192.12 Z" fill="#ffb056" fill-rule="nonzero" group-id="1" node-id="231" stroke="none" target-height="29.130005" target-width="26.771942" target-x="284.71805" target-y="177.56"/><path d="M 279.49 229.99 L 279.48 231.93 L 275.27 232.85 L 275.04 231.33 L 275.04 230.74 L 279.49 229.99 Z" fill="#ffeed2" fill-rule="nonzero" group-id="1" node-id="233" stroke="none" target-height="2.8600006" target-width="4.4499817" target-x="275.04" target-y="229.99"/><path d="M 314.38 228.43 C 314.34 228.69 314.32 228.95 314.31 229.21 L 314.31 229.21 L 313.73 229.30 L 313.46 224.75 L 315.46 224.43 C 316.60 225.43 316.07 229.03 315.74 229.20 C 315.41 229.37 314.38 228.19 314.38 228.43 Z" fill="#ffeed2" fill-rule="nonzero" group-id="1" node-id="235" stroke="none" target-height="4.9400024" target-width="3.1400146" target-x="313.46" target-y="224.43"/><path d="M 314.00 197.18 C 313.48 195.53 312.57 192.73 311.49 189.78 C 311.17 190.86 309.27 191.66 307.49 191.97 L 308.57 194.80 L 305.89 194.88 L 295.22 195.19 C 294.59 194.45 293.65 193.79 293.22 194.19 C 293.07 194.35 293.02 194.58 293.09 194.79 C 293.16 195.00 293.34 195.15 293.56 195.19 C 293.88 195.19 294.64 195.90 293.22 195.77 C 291.80 195.64 291.12 194.92 290.60 195.33 C 290.08 195.74 289.94 197.81 290.60 197.98 C 291.26 198.15 294.87 198.31 295.97 197.76 L 306.02 198.27 L 312.86 198.62 C 313.23 198.65 313.58 198.49 313.81 198.20 C 314.04 197.91 314.11 197.53 314.00 197.18 Z" fill="#ffeed2" fill-rule="nonzero" group-id="1" node-id="237" stroke="none" target-height="8.866882" target-width="24.170319" target-x="289.94" target-y="189.78"/><path d="M 302.38 177.92 C 302.38 180.13 299.04 181.44 297.38 181.00 C 295.72 180.56 296.38 177.88 296.51 177.56 C 297.01 177.53 297.52 177.53 298.02 177.56 C 298.19 177.47 298.32 177.02 298.32 176.65 C 298.68 176.80 299.06 176.89 299.44 176.92 C 300.48 177.01 301.52 176.81 302.44 176.33 C 302.12 176.89 301.63 177.48 301.70 177.81 C 301.73 177.92 302.00 177.93 302.38 177.92 Z" fill="#ffeed2" fill-rule="nonzero" group-id="1" node-id="239" stroke="none" target-height="5.1100006" target-width="6.720001" target-x="295.72" target-y="176.33"/><path d="M 303.19 170.55 C 303.86 171.55 303.41 173.21 302.28 174.71 C 301.69 175.51 302.00 176.02 302.44 176.33 C 301.52 176.81 300.48 177.01 299.44 176.92 C 299.06 176.89 298.68 176.80 298.32 176.65 C 296.67 175.94 296.03 174.42 296.27 171.79 C 296.46 170.85 296.80 169.95 297.27 169.11 C 297.59 169.25 297.93 169.35 298.27 169.40 C 300.14 169.74 302.52 169.53 303.19 170.55 Z" fill="#ffeed2" fill-rule="nonzero" group-id="1" node-id="241" stroke="none" target-height="7.899719" target-width="7.8299866" target-x="296.03" target-y="169.11"/><path d="M 285.29 170.34 L 285.29 170.34 C 285.29 170.05 284.55 169.13 283.82 168.83 C 283.00 168.68 282.16 168.68 281.34 168.83 C 281.00 168.83 280.50 170.16 280.44 170.31 L 281.34 170.31 C 281.34 170.62 281.44 171.04 281.76 171.14 C 282.77 171.26 283.80 171.31 284.82 171.27 C 285.80 171.29 285.23 170.62 285.29 170.34 Z" fill="#ffeed2" fill-rule="nonzero" group-id="1" node-id="243" stroke="none" target-height="2.629898" target-width="5.3599854" target-x="280.44" target-y="168.67798"/><path d="M 283.87 172.05 C 284.09 171.79 284.46 171.79 284.87 172.13 C 285.01 172.25 284.96 172.42 284.87 172.61 L 283.45 172.76 C 283.70 172.62 283.64 172.31 283.87 172.05 Z" fill="#ffeed2" fill-rule="nonzero" group-id="1" node-id="245" stroke="none" target-height="0.9700012" target-width="1.5599976" target-x="283.45" target-y="171.79"/><path d="M 283.38 172.76 L 283.38 172.76 L 284.80 172.61 C 284.59 172.95 284.16 173.35 284.10 173.67 C 284.01 174.16 283.02 174.42 282.58 175.02 L 282.10 185.26 L 285.04 183.57 C 284.75 185.12 285.00 186.73 285.74 188.12 L 279.20 191.00 C 278.86 191.16 278.47 191.12 278.17 190.89 C 277.88 190.67 277.73 190.30 277.79 189.93 L 279.99 174.71 C 280.11 173.71 280.12 173.10 280.12 173.10 Z" fill="#ffeed2" fill-rule="nonzero" group-id="1" node-id="247" stroke="none" target-height="18.547287" target-width="8.010956" target-x="277.72903" target-y="172.61"/><path d="M 303.00 187.14 L 304.72 191.95 C 305.08 192.07 305.45 192.13 305.83 192.12" fill="none" group-id="1" node-id="249" stroke="#e49056" stroke-linecap="butt" stroke-width="0.26" target-height="4.9860077" target-width="2.8299866" target-x="303" target-y="187.14"/><path d="M 317.87 222.30 C 317.98 222.08 318.26 221.99 318.77 221.99 C 319.28 221.99 320.17 223.51 320.21 223.86 C 320.25 224.21 319.83 225.35 319.83 226.22 C 319.83 227.09 320.49 230.45 320.54 231.08 C 320.59 231.71 320.77 234.64 320.01 234.92 C 317.61 235.48 315.18 235.87 312.73 236.09 C 311.66 236.09 311.83 235.24 311.83 235.24" fill="none" group-id="1" node-id="251" stroke="#4986d9" stroke-linecap="butt" stroke-width="0.1" target-height="14.099991" target-width="9.109985" target-x="311.66" target-y="221.99"/><path d="M 303.73 172.00 L 304.00 172.24 L 304.14 172.63 L 303.96 173.59 L 303.30 174.30 L 302.91 174.43 L 302.56 174.36 L 302.29 174.12 L 302.15 173.73 L 302.33 172.77 L 302.98 172.06 L 303.38 171.93 L 303.73 172.00 Z" fill="#ffeed2" fill-rule="nonzero" group-id="1,4" node-id="255" stroke="none" target-height="2.4944458" target-width="1.9841003" target-x="302.15146" target-y="171.93295"/><path d="M 303.49 172.49 L 303.72 172.83 L 303.62 173.42 L 303.21 173.85 L 302.80 173.87 L 302.57 173.53 L 302.67 172.94 L 303.07 172.51 L 303.49 172.49 Z" fill="#e55c5c" fill-opacity="0.2" fill-rule="nonzero" group-id="1,5" node-id="260" stroke="none" target-height="1.3785706" target-width="1.1478882" target-x="302.56958" target-y="172.4909"/><path d="M 262.55 235.72 C 262.33 235.61 262.18 235.39 262.16 235.15 C 262.13 234.90 262.24 234.66 262.43 234.51 C 262.26 234.69 262.48 234.88 262.91 234.90 C 266.84 235.36 270.81 235.18 274.68 234.35 C 275.68 234.27 278.33 234.55 279.74 234.50 C 280.90 234.45 281.36 234.03 281.47 233.64 C 281.76 233.80 281.95 234.09 281.99 234.42 C 282.02 234.74 281.89 235.07 281.64 235.28 C 281.04 235.89 277.50 235.80 276.82 235.79 C 276.14 235.78 269.26 235.79 268.25 235.91 C 266.35 236.05 264.44 235.99 262.55 235.72 Z" fill="#ebfcff" fill-rule="nonzero" group-id="1" node-id="263" stroke="none" target-height="2.410202" target-width="19.887634" target-x="262.13303" target-y="233.64"/><path d="M 280.69 231.61 C 281.03 232.18 281.30 232.78 281.50 233.41 C 281.51 233.49 281.51 233.56 281.50 233.64 C 281.39 234.03 280.93 234.45 279.77 234.50 C 278.36 234.55 275.77 234.27 274.71 234.35 C 270.84 235.18 266.87 235.36 262.94 234.90 C 262.51 234.90 262.29 234.69 262.46 234.51 C 264.05 233.78 265.69 233.17 267.37 232.70 C 269.63 232.38 271.76 231.46 273.54 230.04 C 273.79 230.02 274.04 230.02 274.29 230.04 C 275.16 230.12 275.90 230.48 275.87 230.82 C 275.84 231.16 275.40 231.64 276.33 231.74 C 277.16 231.85 278.00 231.64 278.69 231.16 C 279.02 230.79 279.03 230.49 279.69 230.60 C 279.87 230.60 280.02 230.60 280.15 230.60 C 280.54 230.60 280.73 230.60 280.85 230.77 C 280.97 230.94 280.52 231.25 280.69 231.61 Z" fill="#ffb056" fill-rule="nonzero" group-id="1" node-id="265" stroke="none" target-height="5.3477936" target-width="19.219727" target-x="262.29" target-y="230.01508"/><path d="M 262.43 234.51 C 262.24 234.66 262.13 234.90 262.16 235.15 C 262.18 235.39 262.33 235.61 262.55 235.72 C 264.44 235.99 266.35 236.05 268.25 235.91 C 269.25 235.74 276.15 235.78 276.82 235.79 C 277.49 235.80 281.04 235.89 281.64 235.28 C 281.89 235.07 282.02 234.74 281.99 234.42 C 281.95 234.09 281.76 233.80 281.47 233.64 L 281.47 233.64" fill="none" group-id="1" node-id="267" stroke="#4986d9" stroke-linecap="butt" stroke-width="0.1" target-height="2.410202" target-width="19.887634" target-x="262.13303" target-y="233.64"/></g></svg>