<svg t="1698658370631" class="icon" viewBox="0 0 1024 1024" version="1.1" xmlns="http://www.w3.org/2000/svg" p-id="5452" width="64" height="64"><path d="M796.1 905.3h-40.9 16.2c13.8-0.8 24.7-12.2 24.7-26.2v26.2zM795.8 497.6v40.9-16.2c-0.8-13.8-12.2-24.7-26.2-24.7h26.2zM226 497.2h40.9-16.2c-13.8 0.8-24.7 12.2-24.7 26.2v-26.2zM226.1 904.7v-40.9V880c0.8 13.8 12.2 24.7 26.2 24.7h-26.2zM309.4 244.9c22.6 0 41 18.3 41 41v170.8c0 22.6-18.3 41-41 41-22.6 0-41-18.3-41-41V285.9c0.1-22.6 18.4-41 41-41zM436.9 701.1c0-22.6 18.3-41 41-41h66.2c22.6 0 41 18.3 41 41 0 22.6-18.3 41-41 41h-66.2c-22.6-0.1-41-18.4-41-41zM713.5 240.9c22.6 0 41 18.3 41 41v23.4c0 22.6-18.3 41-41 41-22.6 0-41-18.3-41-41v-23.4c0.1-22.6 18.4-41 41-41z" fill="#242424" p-id="5453"></path><path d="M511.5 120.9c89 0 161.1 72.1 161.1 161.1h81.9c0-134.2-108.8-243-243-243s-243 108.8-243 243h81.9c0-89 72.1-161.1 161.1-161.1zM877.4 932.6V476.8c-3.4-33.4-31-59.7-64.9-61H212.7c-37.5 0-68 30.4-68.1 67.9V928c4 30.2 27.8 54.2 57.9 58.5H824c27-5.5 48.2-26.8 53.4-53.9z m-650.9-28.1V497.6h569.1v406.9H226.5z" fill="#242424" p-id="5454"></path></svg>