<?xml version="1.0" standalone="no"?><!DOCTYPE svg PUBLIC "-//W3C//DTD SVG 1.1//EN" "http://www.w3.org/Graphics/SVG/1.1/DTD/svg11.dtd"><svg class="icon" width="64px" height="64.00px" viewBox="0 0 1024 1024" version="1.1" xmlns="http://www.w3.org/2000/svg"><path d="M512 1024A512 512 0 1 1 512 0a512 512 0 0 1 0 1024z m-63.168-320.128V832h130.624v-128.128H448.832zM311.04 416.576h122.304c0-14.976 1.664-28.992 4.992-41.984a101.12 101.12 0 0 1 15.36-34.112c7.04-9.728 15.872-17.472 26.688-23.296 10.816-5.824 23.68-8.768 38.656-8.768 22.208 0 39.552 6.08 52.032 18.304 12.48 12.16 18.688 31.04 18.688 56.576 0.576 14.976-2.048 27.52-7.872 37.44-5.824 9.984-13.44 19.2-22.912 27.52-9.408 8.32-19.648 16.64-30.72 24.96-11.136 8.32-21.696 18.112-31.68 29.44a171.904 171.904 0 0 0-26.24 41.216c-7.424 16.064-12.032 36.032-13.696 59.904v37.44H568.96v-31.616c2.24-16.64 7.68-30.528 16.256-41.6 8.576-11.072 18.432-20.928 29.504-29.504 11.136-8.64 22.912-17.216 35.392-25.792a162.048 162.048 0 0 0 59.904-75.264c6.912-17.28 10.368-39.168 10.368-65.792a149.312 149.312 0 0 0-44.928-104c-16.064-16.064-37.248-29.504-63.616-40.32-26.368-10.88-59.2-16.256-98.56-16.256-30.528 0-58.112 5.12-82.816 15.36a183.68 183.68 0 0 0-63.232 42.88A195.392 195.392 0 0 0 326.4 334.208c-9.728 24.96-14.848 52.48-15.36 82.368z" fill="#262626" /></svg>