<?xml version="1.0" standalone="no"?><!DOCTYPE svg PUBLIC "-//W3C//DTD SVG 1.1//EN" "http://www.w3.org/Graphics/SVG/1.1/DTD/svg11.dtd"><svg class="icon" width="64px" height="64.00px" viewBox="0 0 1024 1024" version="1.1" xmlns="http://www.w3.org/2000/svg"><path d="M85.504 938.688H1024V1024H0v-85.312h0.192V0h85.312v938.688zM384.192 512a128 128 0 1 1 0-256 128 128 0 0 1 0 256z m298.688 298.688a128 128 0 1 1 0-256 128 128 0 0 1 0 256zM320.192 213.312a64 64 0 1 1 0-128 64 64 0 0 1 0 128z m-42.688 597.376a64 64 0 1 1 0-128 64 64 0 0 1 0 128z m426.688-341.376a64 64 0 1 1 0-128 64 64 0 0 1 0 128zM917.504 384a64 64 0 1 1 0-128 64 64 0 0 1 0 128zM746.88 170.688a64 64 0 1 1 0-128 64 64 0 0 1 0 128z m-298.688 512a64 64 0 1 1 0-128 64 64 0 0 1 0 128z" fill="#262626" /></svg>