<svg t="1698658521027" class="icon" viewBox="0 0 1024 1024" version="1.1" xmlns="http://www.w3.org/2000/svg" p-id="7465" width="64" height="64"><path d="M512 0C228.430769 0 0 228.430769 0 512s228.430769 512 512 512 512-228.430769 512-512S795.569231 0 512 0z m196.923077 701.046154c-47.261538 51.2-114.215385 78.769231-185.107692 74.830769h-7.876923c-145.723077 0-263.876923-122.092308-259.938462-267.815385 0-145.723077 122.092308-263.876923 267.815385-259.938461 66.953846 0 133.907692 23.630769 181.16923 74.830769l-51.2 51.2c-35.446154-35.446154-82.707692-51.2-129.96923-51.2-106.338462 0-192.984615 86.646154-192.984616 192.984616s86.646154 192.984615 192.984616 192.984615c51.2 3.938462 98.461538-15.753846 133.907692-51.2 23.630769-23.630769 35.446154-59.076923 39.384615-90.584615h-173.292307v-70.892308h244.184615c3.938462 15.753846 3.938462 31.507692 3.938462 43.323077 0 55.138462-23.630769 118.153846-63.015385 161.476923z" fill="#080405" p-id="7466"></path></svg>