<svg t="1698039208161" class="icon" viewBox="0 0 2634 1024" version="1.1" xmlns="http://www.w3.org/2000/svg" p-id="5405" width="64" height="64"><path d="M524.8 43.27619C264.533333 43.27619 54.247619 254.171429 54.247619 513.828571c0 205.409524 131.657143 379.733333 315.12381 444.342857 24.990476 6.095238 20.72381-11.580952 20.72381-23.161905L390.095238 853.333333c-142.628571 16.457143-148.114286-78.019048-157.866667-93.257143-19.504762-32.914286-65.219048-41.447619-51.2-57.295238 32.304762-17.066667 65.828571 4.266667 104.228571 60.952381 28.038095 40.838095 81.67619 34.133333 109.104762 27.428571 6.095238-24.380952 18.895238-46.933333 36.571429-64-147.504762-26.209524-209.066667-116.419048-209.066667-223.695238 0-51.809524 17.066667-99.961905 50.590476-138.361905-21.333333-64 1.828571-118.247619 4.87619-126.171429 60.952381-5.485714 124.342857 43.885714 129.219048 47.542857 34.742857-9.142857 74.361905-14.628571 118.857143-14.628571 44.495238 0 84.114286 4.87619 119.466667 14.628571 12.190476-9.142857 70.704762-51.2 127.390476-46.32381 3.047619 7.92381 26.209524 60.952381 6.095238 123.733333 34.133333 39.009524 51.2 86.552381 51.2 138.971429 0 107.27619-62.171429 198.095238-210.285714 223.695238 24.990476 24.380952 40.228571 58.514286 40.228571 95.695238l0 118.247619c0.609524 9.142857 0 18.895238 15.847619 18.895238 185.904762-62.780952 320-238.32381 320-445.561905C994.742857 254.171429 784.457143 43.27619 524.8 43.27619z" p-id="5406"></path><path d="M1272.685714 460.190476c-10.361905-6.704762-21.942857-11.580952-34.133333-15.238095-12.190476-3.047619-24.380952-4.87619-36.571429-4.87619-14.019048 0-27.428571 2.438095-40.838095 6.704762-13.409524 4.266667-24.990476 10.361905-35.352381 18.895238-10.361905 8.533333-18.895238 18.285714-24.990476 31.085714-6.704762 12.190476-9.752381 26.819048-9.752381 42.666667 0 19.504762 3.657143 35.961905 11.580952 49.371429 7.314286 12.8 18.895238 23.771429 33.52381 32.304762-4.87619 1.219048-10.361905 3.047619-16.457143 6.095238-6.095238 3.047619-12.190476 6.095238-17.67619 10.361905s-10.361905 9.142857-14.019048 14.019048c-3.657143 5.485714-5.485714 10.971429-5.485714 17.066667 0 5.485714 1.219048 10.971429 3.657143 15.238095 2.438095 4.266667 5.485714 7.92381 8.533333 11.580952 3.657143 3.047619 7.92381 6.095238 12.190476 8.533333 4.266667 2.438095 9.142857 4.87619 14.019048 7.314286-6.095238 4.266667-11.580952 8.533333-17.066667 13.409524-5.485714 4.87619-10.361905 10.361905-14.019048 16.457143-4.266667 6.095238-7.314286 12.190476-9.752381 18.895238-2.438095 6.704762-3.657143 13.409524-3.657143 20.114286 0 12.190476 2.438095 23.161905 7.92381 32.304762 5.485714 9.142857 12.8 16.457143 22.552381 22.552381 9.752381 6.095238 21.333333 10.361905 34.742857 12.8 13.409524 3.047619 28.038095 4.266667 44.495238 4.266667 10.361905 0 20.72381-0.609524 32.304762-1.219048s22.552381-2.438095 33.52381-4.87619c10.971429-2.438095 21.333333-5.485714 31.695238-9.142857s18.895238-9.142857 26.209524-15.238095 14.019048-14.019048 18.285714-22.552381c4.266667-8.533333 6.704762-19.504762 6.704762-31.085714 0-12.8-3.047619-23.161905-9.142857-31.695238-6.095238-8.533333-14.019048-15.847619-24.380952-21.942857s-21.333333-10.971429-34.133333-14.628571c-12.8-3.657143-32.304762-7.314286-59.12381-12.190476-25.6-3.657143-43.27619-6.095238-53.028571-7.92381-9.752381-1.828571-18.285714-4.266667-24.380952-6.704762-6.095238-2.438095-9.142857-6.095238-9.142857-10.971429 0-4.266667 1.219048-7.92381 4.266667-10.971429 3.047619-3.657143 6.704762-6.704762 10.361905-9.142857 4.266667-2.438095 8.533333-4.87619 12.8-6.095238 4.266667-1.828571 7.92381-2.438095 10.971429-3.047619 12.8 3.047619 24.990476 4.266667 37.180952 4.266667 14.019048 0 27.428571-1.828571 40.228571-6.095238s24.380952-9.752381 34.742857-18.285714c9.752381-7.92381 18.285714-18.285714 23.771429-31.085714 6.095238-12.8 9.142857-27.428571 9.142857-44.495238 0-11.580952-1.828571-21.333333-4.87619-29.866667-3.047619-8.533333-6.704762-15.847619-10.971429-22.552381 5.485714-1.828571 11.580952-3.047619 17.67619-3.657143 6.095238-0.609524 12.190476-1.219048 19.504762-1.219048l17.67619 0.609524 4.87619-33.52381c-11.580952 0-23.771429 1.219048-36.571429 3.047619C1299.504762 451.047619 1286.095238 454.704762 1272.685714 460.190476zM1122.133333 743.009524c4.266667-8.533333 10.361905-17.066667 18.285714-25.6 3.047619 0.609524 7.314286 0.609524 12.8 1.219048 5.485714 0.609524 12.8 1.219048 20.114286 1.828571 7.92381 0.609524 18.285714 2.438095 31.695238 4.266667 20.72381 3.657143 34.742857 7.314286 43.27619 10.361905 8.533333 3.047619 15.847619 6.095238 21.942857 9.752381 6.095238 3.657143 10.971429 7.92381 15.238095 12.8 3.657143 4.87619 5.485714 10.361905 5.485714 16.457143 0 6.095238-1.828571 12.190476-5.485714 16.457143-3.657143 4.87619-8.533333 9.142857-14.019048 12.190476-6.095238 3.657143-12.190476 6.704762-19.504762 8.533333-7.314286 2.438095-14.628571 4.266667-21.942857 5.485714-7.314286 1.219048-14.628571 2.438095-21.333333 3.047619-6.704762 0.609524-12.8 1.219048-17.67619 1.219048-9.142857 0-17.67619-0.609524-26.819048-2.438095s-17.066667-4.266667-24.380952-8.533333c-7.314286-4.266667-12.8-9.752381-17.67619-16.457143-4.266667-6.704762-6.704762-15.847619-6.704762-26.209524C1115.428571 760.07619 1117.866667 751.542857 1122.133333 743.009524zM1258.666667 565.028571c-2.438095 9.142857-5.485714 17.066667-10.361905 23.771429-4.87619 6.704762-10.971429 11.580952-18.895238 15.238095-7.92381 3.657143-17.066667 5.485714-28.038095 5.485714-11.580952 0-21.333333-1.828571-29.866667-6.095238-8.533333-4.266667-15.238095-9.752381-20.72381-16.457143-5.485714-6.704762-9.752381-14.019048-12.190476-22.552381-2.438095-8.533333-4.266667-17.066667-4.266667-25.6 0-8.533333 1.219048-17.066667 3.047619-25.6 1.828571-8.533333 5.485714-15.847619 10.971429-22.552381s11.580952-12.190476 20.114286-16.457143c8.533333-4.266667 18.895238-6.095238 31.695238-6.095238 10.361905 0 19.504762 1.828571 27.428571 5.485714 7.92381 3.657143 14.019048 8.533333 18.895238 14.628571 4.87619 6.095238 8.533333 12.8 10.971429 20.72381s3.657143 16.457143 3.657143 24.990476C1262.32381 544.914286 1261.104762 555.27619 1258.666667 565.028571z" p-id="5407"></path><path d="M1393.371429 444.342857l41.447619 0 0 284.038095-41.447619 0 0-284.038095Z" p-id="5408"></path><path d="M1414.095238 327.314286c-7.314286 0-13.409524 2.438095-18.285714 7.92381-4.266667 5.485714-6.704762 10.971429-6.704762 17.066667 0 7.314286 2.438095 13.409524 7.314286 18.285714 4.87619 4.87619 10.971429 7.314286 17.67619 7.314286 6.704762 0 12.190476-2.438095 17.066667-7.314286 4.87619-4.87619 7.314286-10.971429 7.314286-18.285714 0-6.095238-2.438095-12.190476-6.704762-17.066667C1427.504762 329.752381 1421.409524 327.314286 1414.095238 327.314286z" p-id="5409"></path><path d="M1624.380952 696.07619c-9.142857 1.828571-17.066667 3.047619-23.161905 3.047619-11.580952 0-19.504762-4.87619-24.990476-14.628571-5.485714-9.752381-7.92381-23.161905-7.92381-39.009524L1568.304762 480.304762l64.609524 0 4.266667-35.961905-69.485714 0L1567.695238 372.419048l-41.447619 0 0 71.92381-40.838095 0 0 35.961905 40.838095 0 0 174.933333c0 29.866667 6.095238 49.980952 18.285714 61.561905 12.190476 10.971429 29.866667 16.457143 51.809524 16.457143 6.704762 0 15.238095-0.609524 26.819048-2.438095 11.580952-1.219048 18.895238-2.438095 21.942857-3.047619l-3.047619-35.961905C1639.619048 692.419048 1633.52381 694.247619 1624.380952 696.07619z" p-id="5410"></path><path d="M1833.447619 440.07619c-19.504762 0-37.180952 3.047619-53.028571 9.142857-15.238095 6.095238-28.038095 11.580952-37.790476 17.066667L1742.628571 316.342857l-41.447619 0 0 412.038095 41.447619 0 0-231.619048c11.580952-6.095238 24.380952-11.580952 38.4-15.847619 14.019048-4.266667 27.428571-6.704762 40.838095-6.704762 21.333333 0 36.571429 5.485714 46.933333 17.066667s15.238095 26.819048 15.238095 46.933333l0 190.780952 41.447619 0L1925.485714 535.771429c0-29.257143-7.92381-52.419048-23.771429-69.485714C1885.866667 448.609524 1863.314286 440.07619 1833.447619 440.07619z" p-id="5411"></path><path d="M2225.980952 444.342857l-41.447619 0 0 221.257143c-9.142857 9.142857-21.333333 16.457143-36.571429 21.942857s-32.914286 8.533333-53.028571 8.533333c-15.238095 0-28.038095-4.87619-37.790476-15.238095-9.752381-9.752381-14.628571-24.380952-14.628571-43.885714L2042.514286 444.342857l-41.447619 0 0 198.095238c0 26.819048 7.314286 48.761905 21.333333 65.828571 14.019048 16.457143 36.571429 24.990476 67.047619 24.990476 7.92381 0 16.457143-1.219048 25.6-3.047619 9.142857-1.828571 20.72381-6.095238 34.133333-11.580952 13.409524-5.485714 24.990476-12.190476 34.742857-19.504762 0.609524 9.752381 1.828571 19.504762 3.047619 29.257143l42.666667 0c-2.438095-13.409524-3.657143-25.6-3.657143-37.180952L2225.980952 444.342857z" p-id="5412"></path><path d="M2524.038095 477.866667c-19.504762-24.990476-46.933333-37.790476-83.504762-37.790476-17.67619 0-34.742857 3.047619-49.980952 8.533333-15.238095 5.485714-26.819048 12.8-35.352381 21.942857L2355.2 316.342857l-41.447619 0 0 410.209524c13.409524 1.828571 28.647619 3.047619 46.32381 4.266667 17.67619 1.219048 32.304762 1.828571 45.104762 1.828571 53.638095 0 91.428571-13.409524 113.980952-40.228571 22.552381-26.819048 34.133333-64 34.133333-110.32381C2552.685714 537.6 2542.933333 502.857143 2524.038095 477.866667zM2486.247619 667.428571c-15.238095 23.161905-39.619048 34.133333-73.142857 34.133333-24.990476 0-43.885714-3.657143-57.904762-10.971429L2355.2 497.980952c8.533333-6.095238 19.504762-11.580952 32.914286-15.847619 13.409524-4.266667 27.428571-6.704762 42.057143-6.704762 24.380952 0 43.885714 9.752381 57.904762 28.647619 14.019048 18.895238 21.333333 46.32381 21.333333 82.895238C2508.8 617.447619 2501.485714 644.266667 2486.247619 667.428571z" p-id="5413"></path></svg>