<svg height="800" node-id="1" sillyvg="true" template-height="800" template-width="800" version="1.1" viewBox="0 0 800 800" width="800" xmlns="http://www.w3.org/2000/svg" xmlns:xlink="http://www.w3.org/1999/xlink"><defs node-id="155"><linearGradient gradientUnits="userSpaceOnUse" id="SVGID_1_" node-id="19" spreadMethod="pad" x1="402.08" x2="402.08" y1="157.7809" y2="713.2725"><stop offset="0.00000009590021" stop-color="#f4f2fb"/><stop offset="1" stop-color="#e1eef5"/></linearGradient><linearGradient gradientUnits="userSpaceOnUse" id="SVGID_2_" node-id="23" spreadMethod="pad" x1="463.0548" x2="568.6028" y1="622.3301" y2="439.5156"><stop offset="0.3396" stop-color="#b0b9e1"/><stop offset="0.8657" stop-color="#eaf0f8"/></linearGradient><linearGradient gradientUnits="userSpaceOnUse" id="SVGID_3_" node-id="28" spreadMethod="pad" x1="117.1618" x2="117.1618" y1="538.1672" y2="400.9926"><stop offset="0.2267" stop-color="#b7ace0"/><stop offset="0.7893" stop-color="#e8e7fa"/></linearGradient><linearGradient gradientUnits="userSpaceOnUse" id="SVGID_4_" node-id="33" spreadMethod="pad" x1="117.1637" x2="117.1637" y1="416.2243" y2="567.3577"><stop offset="0" stop-color="#ecf1fb"/><stop offset="0.818" stop-color="#afb0e7"/></linearGradient><linearGradient gradientUnits="userSpaceOnUse" id="SVGID_5_" node-id="38" spreadMethod="pad" x1="618.2906" x2="618.2906" y1="446.6453" y2="358.3208"><stop offset="0.2267" stop-color="#ccd4f4"/><stop offset="0.7893" stop-color="#ecf1fb"/></linearGradient><linearGradient gradientUnits="userSpaceOnUse" id="SVGID_6_" node-id="43" spreadMethod="pad" x1="618.2919" x2="618.2919" y1="368.1282" y2="465.4406"><stop offset="0" stop-color="#ecf1fb"/><stop offset="1" stop-color="#a6a8e2"/></linearGradient><linearGradient gradientUnits="userSpaceOnUse" id="SVGID_7_" node-id="47" spreadMethod="pad" x1="464.2087" x2="429.4545" y1="84.0387" y2="144.2348"><stop offset="0" stop-color="#ffdb80"/><stop offset="1" stop-color="#ffbb24"/></linearGradient><linearGradient gradientUnits="userSpaceOnUse" id="SVGID_8_" node-id="51" spreadMethod="pad" x1="421.8716" x2="421.8716" y1="114.5048" y2="171.9588"><stop offset="0" stop-color="#f9fafe"/><stop offset="1" stop-color="#e5edf7"/></linearGradient><linearGradient gradientUnits="userSpaceOnUse" id="SVGID_9_" node-id="56" spreadMethod="pad" x1="688.8929" x2="688.8929" y1="535.8854" y2="508.0572"><stop offset="0.2267" stop-color="#afb0e7"/><stop offset="1" stop-color="#ecf1fb"/></linearGradient><linearGradient gradientUnits="userSpaceOnUse" id="SVGID_10_" node-id="60" spreadMethod="pad" x1="688.9421" x2="688.9421" y1="511.5709" y2="556.3668"><stop offset="0.00000009590021" stop-color="#dde1f6"/><stop offset="0.818" stop-color="#a6a8e2"/></linearGradient><linearGradient gradientUnits="userSpaceOnUse" id="SVGID_11_" node-id="65" spreadMethod="pad" x1="-975.222" x2="-785.7928" y1="330.9702" y2="659.0713"><stop offset="0.1157" stop-color="#dee4ff"/><stop offset="0.8472" stop-color="#bacbee"/></linearGradient><linearGradient gradientUnits="userSpaceOnUse" id="SVGID_12_" node-id="69" spreadMethod="pad" x1="-776.7258" x2="-668.6151" y1="404.1654" y2="591.4186"><stop offset="0" stop-color="#afc5eb"/><stop offset="1" stop-color="#afb0e7"/></linearGradient><linearGradient gradientUnits="userSpaceOnUse" id="SVGID_13_" node-id="73" spreadMethod="pad" x1="-901.6494" x2="-817.3886" y1="288.493" y2="434.437"><stop offset="0.1157" stop-color="#c6d3f4"/><stop offset="0.8472" stop-color="#bacbee"/></linearGradient><linearGradient gradientUnits="userSpaceOnUse" id="SVGID_14_" node-id="77" spreadMethod="pad" x1="-918.4705" x2="-862.8185" y1="494.555" y2="494.555"><stop offset="0" stop-color="#afc5eb"/><stop offset="1" stop-color="#afb0e7"/></linearGradient><linearGradient gradientUnits="userSpaceOnUse" id="SVGID_15_" node-id="81" spreadMethod="pad" x1="-878.4778" x2="-894.777" y1="520.823" y2="549.0541"><stop offset="0" stop-color="#ebf2fa"/><stop offset="0.5247" stop-color="#fdfeff"/></linearGradient><linearGradient gradientUnits="userSpaceOnUse" id="SVGID_16_" node-id="85" spreadMethod="pad" x1="314.9389" x2="502.06" y1="306.7861" y2="306.7861"><stop offset="0" stop-color="#c8cbf2"/><stop offset="1" stop-color="#afb0e7"/></linearGradient><linearGradient gradientUnits="userSpaceOnUse" id="SVGID_17_" node-id="89" spreadMethod="pad" x1="-866.9017" x2="-866.9017" y1="382.9418" y2="232.497"><stop offset="0.1157" stop-color="#dee4ff"/><stop offset="0.8472" stop-color="#bacbee"/></linearGradient><linearGradient gradientTransform="matrix(-0.8876 -0.4606 -0.4606 0.8876 2001.9746 -2229.927)" gradientUnits="userSpaceOnUse" id="SVGID_18_" node-id="94" spreadMethod="pad" x1="308.1577" x2="288.1865" y1="3375.3723" y2="3340.7813"><stop offset="0" stop-color="#ffdb80"/><stop offset="1" stop-color="#ffbb24"/></linearGradient><linearGradient gradientTransform="matrix(-0.9533 0.3019 0.3019 0.9533 9867.2061 -686.3129)" gradientUnits="userSpaceOnUse" id="SVGID_19_" node-id="99" spreadMethod="pad" x1="9535.746" x2="9535.746" y1="-1728.132" y2="-1750.0448"><stop offset="0" stop-color="#f4b9a4"/><stop offset="0.652" stop-color="#fad1bb"/></linearGradient><linearGradient gradientTransform="matrix(-0.9533 0.3019 0.3019 0.9533 9867.2061 -686.3129)" gradientUnits="userSpaceOnUse" id="SVGID_20_" node-id="103" spreadMethod="pad" x1="9520.397" x2="9520.397" y1="-1707.7672" y2="-1734.9916"><stop offset="0" stop-color="#c3d5fd"/><stop offset="1" stop-color="#1a90fc"/></linearGradient><linearGradient gradientTransform="matrix(-0.9533 0.3019 0.3019 0.9533 9867.2061 -686.3129)" gradientUnits="userSpaceOnUse" id="SVGID_21_" node-id="107" spreadMethod="pad" x1="9525.047" x2="9560.478" y1="-1745.4132" y2="-1745.4132"><stop offset="0" stop-color="#4f5c7c"/><stop offset="1" stop-color="#274168"/></linearGradient><linearGradient gradientTransform="matrix(-0.9533 0.3019 0.3019 0.9533 9867.2061 -686.3129)" gradientUnits="userSpaceOnUse" id="SVGID_22_" node-id="111" spreadMethod="pad" x1="9522.179" x2="9557.007" y1="-1749.519" y2="-1749.519"><stop offset="0" stop-color="#18264b"/><stop offset="0.652" stop-color="#2d3c65"/></linearGradient><linearGradient gradientTransform="matrix(-0.9533 0.3019 0.3019 0.9533 9867.2061 -686.3129)" gradientUnits="userSpaceOnUse" id="SVGID_23_" node-id="115" spreadMethod="pad" x1="9542.698" x2="9542.698" y1="-1728.8141" y2="-1750.8636"><stop offset="0" stop-color="#f4b9a4"/><stop offset="0.652" stop-color="#fad1bb"/></linearGradient><linearGradient gradientTransform="matrix(-0.9146 0.4044 0.4044 0.9146 10993.9385 -814.6962)" gradientUnits="userSpaceOnUse" id="SVGID_24_" node-id="119" spreadMethod="pad" x1="10317.098" x2="10317.098" y1="-3140.7097" y2="-3170.8604"><stop offset="0" stop-color="#f4b9a4"/><stop offset="0.652" stop-color="#fad1bb"/></linearGradient><linearGradient gradientTransform="matrix(-0.7377 0.6751 0.6751 0.7377 13877.5566 -2005.8057)" gradientUnits="userSpaceOnUse" id="SVGID_25_" node-id="123" spreadMethod="pad" x1="11724.987" x2="11684.333" y1="-7365.388" y2="-7365.388"><stop offset="0" stop-color="#4f5c7c"/><stop offset="1" stop-color="#274168"/></linearGradient><linearGradient gradientTransform="matrix(-0.9533 0.3019 0.3019 0.9533 9867.2061 -686.3129)" gradientUnits="userSpaceOnUse" id="SVGID_26_" node-id="127" spreadMethod="pad" x1="9507.243" x2="9588.399" y1="-1691.1556" y2="-1691.1556"><stop offset="0" stop-color="#18264b"/><stop offset="0.652" stop-color="#2d3c65"/></linearGradient><linearGradient gradientTransform="matrix(-0.9533 0.3019 0.3019 0.9533 9867.2061 -686.3129)" gradientUnits="userSpaceOnUse" id="SVGID_27_" node-id="131" spreadMethod="pad" x1="9614.839" x2="9474.55" y1="-1709.598" y2="-1709.598"><stop offset="0" stop-color="#445677"/><stop offset="1" stop-color="#293861"/></linearGradient><linearGradient gradientTransform="matrix(-1.1235 0.2935 0.2528 0.9675 8943.5547 -566.5258)" gradientUnits="userSpaceOnUse" id="SVGID_28_" node-id="135" spreadMethod="pad" x1="7439.1006" x2="7439.1006" y1="-1068.0662" y2="-1182.7621"><stop offset="0" stop-color="#c3d5fd"/><stop offset="1" stop-color="#1a90fc"/></linearGradient><linearGradient gradientUnits="userSpaceOnUse" id="SVGID_29_" node-id="139" spreadMethod="pad" x1="233.8553" x2="228.9221" y1="599.3071" y2="590.7626"><stop offset="0" stop-color="#ffdb80"/><stop offset="1" stop-color="#ffbb24"/></linearGradient><linearGradient gradientTransform="matrix(-0.9206 0.3905 0.3905 0.9206 10669.4912 -1058.2303)" gradientUnits="userSpaceOnUse" id="SVGID_30_" node-id="144" spreadMethod="pad" x1="10188.788" x2="10212.315" y1="-2604.8564" y2="-2604.8564"><stop offset="0" stop-color="#f4b9a4"/><stop offset="0.652" stop-color="#fad1bb"/></linearGradient><linearGradient gradientTransform="matrix(-0.9533 0.3019 0.3019 0.9533 9867.2061 -686.3129)" gradientUnits="userSpaceOnUse" id="SVGID_31_" node-id="148" spreadMethod="pad" x1="9492.696" x2="9492.696" y1="-1695.0824" y2="-1767.3904"><stop offset="0" stop-color="#c3d5fd"/><stop offset="1" stop-color="#1a90fc"/></linearGradient></defs><g node-id="436"><g node-id="437"><path d="M 485.34 199.13 C 446.97 229.42 364.60 232.94 304.17 196.91 C 243.74 160.88 132.17 165.53 101.95 231.78 C 71.73 298.03 139.14 363.11 114.73 410.76 C 90.32 458.41 8.97 525.81 64.75 607.16 C 120.53 688.51 191.35 667.78 233.97 659.61 C 318.14 643.48 423.76 775.28 542.59 675.74 C 611.06 618.39 713.03 717.83 752.76 594.38 C 785.54 492.52 667.09 454.88 702.79 386.35 C 740.75 313.47 733.46 227.11 692.33 185.29 C 654.02 146.34 551.58 146.84 485.34 199.13 Z" fill="url(#SVGID_1_)" fill-rule="nonzero" group-id="1,2" node-id="349" stroke="none" target-height="628.94006" target-width="776.57" target-x="8.97" target-y="146.34"/><path d="M 415.12 493.59 L 662.26 493.59 L 568.99 590.31 L 369.40 568.26 Z" fill="url(#SVGID_2_)" fill-rule="nonzero" group-id="1,2" node-id="351" stroke="none" target-height="96.72" target-width="292.86002" target-x="369.4" target-y="493.59"/><g node-id="440"><path d="M 117.94 401.23 C 117.94 401.23 117.72 400.66 117.42 401.27 C 114.72 406.76 90.27 466.23 88.33 512.13 C 88.33 512.13 84.25 538.50 118.44 538.15 C 146.98 537.86 146.22 513.55 146.12 505.36 C 145.74 472.14 117.94 401.23 117.94 401.23 Z" fill="url(#SVGID_3_)" fill-rule="nonzero" group-id="1,2,5" node-id="355" stroke="none" target-height="137.84" target-width="62.729996" target-x="84.25" target-y="400.66"/><g node-id="443"><path d="M 117.16 567.36 C 116.61 567.36 116.16 566.91 116.16 566.36 L 116.16 417.22 C 116.16 416.67 116.61 416.22 117.16 416.22 C 117.71 416.22 118.16 416.67 118.16 417.22 L 118.16 566.35 C 118.16 566.91 117.72 567.36 117.16 567.36 Z" fill="url(#SVGID_4_)" fill-rule="nonzero" group-id="1,2,5,8" node-id="359" stroke="none" target-height="151.13998" target-width="2" target-x="116.16" target-y="416.22"/></g></g><g node-id="441"><path d="M 618.79 358.48 C 618.79 358.48 618.65 358.11 618.46 358.51 C 616.72 362.04 600.98 400.34 599.73 429.89 C 599.73 429.89 597.10 446.87 619.12 446.65 C 637.50 446.47 637.01 430.81 636.94 425.54 C 636.69 404.13 618.79 358.48 618.79 358.48 Z" fill="url(#SVGID_5_)" fill-rule="nonzero" group-id="1,2,6" node-id="365" stroke="none" target-height="88.76001" target-width="40.400024" target-x="597.1" target-y="358.11"/><g node-id="444"><path d="M 618.29 465.44 C 617.93 465.44 617.65 465.15 617.65 464.80 L 617.65 368.78 C 617.65 368.42 617.94 368.14 618.29 368.14 C 618.64 368.14 618.93 368.43 618.93 368.78 L 618.93 464.80 C 618.94 465.15 618.65 465.44 618.29 465.44 Z" fill="url(#SVGID_6_)" fill-rule="nonzero" group-id="1,2,6,9" node-id="369" stroke="none" target-height="97.29999" target-width="1.289978" target-x="617.65" target-y="368.14"/></g></g><path d="M 481.58 114.14 C 481.58 133.33 466.02 148.89 446.83 148.89 C 427.64 148.89 412.08 133.33 412.08 114.14 C 412.08 94.95 427.64 79.39 446.83 79.39 C 466.02 79.39 481.58 94.95 481.58 114.14 Z" fill="url(#SVGID_7_)" fill-rule="nonzero" group-id="1,2" node-id="373" stroke="none" target-height="69.5" target-width="69.5" target-x="412.08" target-y="79.39"/><path d="M 466.61 133.09 L 432.04 133.09 C 429.81 122.48 420.39 114.51 409.11 114.51 C 397.83 114.51 388.42 122.48 386.18 133.09 L 377.13 133.09 C 366.40 133.09 357.69 141.79 357.69 152.53 L 357.69 152.53 C 357.69 163.26 366.39 171.97 377.13 171.97 L 466.60 171.97 C 477.33 171.97 486.04 163.27 486.04 152.53 L 486.04 152.53 C 486.04 141.79 477.34 133.09 466.61 133.09 Z" fill="url(#SVGID_8_)" fill-rule="nonzero" group-id="1,2" node-id="375" stroke="none" target-height="57.46" target-width="128.35" target-x="357.69" target-y="114.51"/><path d="M 702.80 521.97 C 702.80 529.65 696.57 535.88 688.89 535.88 C 681.21 535.88 674.98 529.65 674.98 521.97 C 674.98 514.29 681.21 508.06 688.89 508.06 C 696.57 508.06 702.80 514.29 702.80 521.97 Z" fill="url(#SVGID_9_)" fill-rule="nonzero" group-id="1,2,7" node-id="379" stroke="none" target-height="27.820007" target-width="27.820007" target-x="674.98" target-y="508.06"/><path d="M 688.94 556.37 C 688.70 556.37 688.51 556.18 688.51 555.94 L 688.51 512.00 C 688.51 511.76 688.70 511.57 688.94 511.57 C 689.18 511.57 689.37 511.76 689.37 512.00 L 689.37 555.94 C 689.37 556.17 689.18 556.37 688.94 556.37 Z" fill="url(#SVGID_10_)" fill-rule="nonzero" group-id="1,2,7" node-id="381" stroke="none" target-height="44.799988" target-width="0.85998535" target-x="688.51" target-y="511.57"/></g><g node-id="438"><path d="M 515.61 637.98 L 238.97 570.44 L 238.97 360.23 L 515.61 395.10 Z" fill="url(#SVGID_11_)" fill-rule="nonzero" group-id="1,3" node-id="387" stroke="none" target-height="277.74997" target-width="276.63998" target-x="238.97" target-y="360.23"/><path d="M 568.79 357.61 L 515.61 395.10 L 515.61 637.98 L 568.99 590.31 Z" fill="url(#SVGID_12_)" fill-rule="nonzero" group-id="1,3" node-id="389" stroke="none" target-height="280.37" target-width="53.380005" target-x="515.61" target-y="357.61"/><path d="M 313.20 343.02 L 568.79 357.61 L 515.61 395.10 L 238.97 360.23 Z" fill="url(#SVGID_13_)" fill-rule="nonzero" group-id="1,3" node-id="391" stroke="none" target-height="52.080017" target-width="329.81998" target-x="238.97" target-y="343.02"/><path d="M 346.40 470.79 C 346.40 453.77 358.86 439.98 374.23 439.98 C 389.60 439.98 402.06 453.78 402.06 470.79 C 402.06 483.56 395.05 494.51 385.06 499.19 L 389.17 549.13 L 355.78 540.78 L 358.55 496.24 C 351.21 490.69 346.40 481.37 346.40 470.79 Z" fill="url(#SVGID_14_)" fill-rule="nonzero" group-id="1,3" node-id="393" stroke="none" target-height="109.149994" target-width="55.660004" target-x="346.4" target-y="439.98"/><path d="M 389.15 549.13 L 355.76 540.78 L 355.76 540.77 L 386.85 521.09 Z" fill="url(#SVGID_15_)" fill-rule="nonzero" group-id="1,3" node-id="395" stroke="none" target-height="28.039978" target-width="33.389984" target-x="355.76" target-y="521.09"/><path d="M 500.62 381.08 L 491.29 382.95 C 491.29 382.95 455.48 353.67 455.48 341.92 C 455.48 330.17 450.36 277.71 404.84 274.52 C 357.85 271.22 359.64 330.79 359.43 364.18 C 354.01 365.27 350.10 366.05 350.10 366.05 C 350.10 366.05 313.67 341.48 314.98 325.64 C 316.55 306.58 323.43 222.79 409.79 231.24 C 496.15 239.69 502.07 321.83 502.07 347.39 C 502.06 355.83 500.62 381.08 500.62 381.08 Z" fill="url(#SVGID_16_)" fill-rule="nonzero" group-id="1,3" node-id="397" stroke="none" target-height="160.16002" target-width="188.4" target-x="313.67" target-y="222.79"/><path d="M 491.28 382.94 L 446.14 377.17 C 446.14 377.17 446.14 355.53 446.14 343.78 C 446.14 332.03 441.02 279.57 395.50 276.38 C 348.51 273.08 350.30 332.65 350.09 366.04 C 320.20 362.54 303.20 360.17 303.20 360.17 C 303.20 360.17 304.33 343.34 305.64 327.50 C 307.21 308.44 314.09 224.65 400.45 233.10 C 486.81 241.55 492.73 323.69 492.73 349.25 C 492.73 357.69 491.28 382.94 491.28 382.94 Z" fill="url(#SVGID_17_)" fill-rule="nonzero" group-id="1,3" node-id="399" stroke="none" target-height="158.29001" target-width="189.53" target-x="303.2" target-y="224.65"/></g><g node-id="439"><path d="M 204.98 598.90 C 204.98 598.90 201.84 605.57 191.10 603.96 C 186.53 608.44 180.38 612.80 175.96 615.10 C 171.54 617.40 172.37 622.51 173.42 623.65 C 179.55 621.41 197.88 617.72 209.28 610.35 C 206.44 602.17 204.98 598.90 204.98 598.90 Z" fill="url(#SVGID_18_)" fill-rule="nonzero" group-id="1,4" node-id="404" stroke="none" target-height="24.75" target-width="37.740005" target-x="171.54" target-y="598.9"/><path d="M 210.79 613.05 L 209.42 609.59 C 209.42 609.59 195.94 616.41 171.64 621.15 C 171.82 623.07 171.79 624.05 171.79 624.05 C 171.79 624.05 190.46 621.36 210.79 613.05 Z" fill="#d4e4fe" fill-rule="nonzero" group-id="1,4" node-id="406" stroke="none" target-height="14.459961" target-width="39.149994" target-x="171.64" target-y="609.59"/><path d="M 261.65 535.27 C 261.65 535.27 255.51 528.77 253.46 527.56 C 251.41 526.35 244.53 523.98 242.62 526.45 C 240.71 528.92 240.21 532.90 241.24 534.09 C 242.27 535.28 258.31 544.03 258.31 544.03 L 262.83 538.98 L 261.65 535.27 Z" fill="url(#SVGID_19_)" fill-rule="nonzero" group-id="1,4" node-id="408" stroke="none" target-height="20.050049" target-width="22.61998" target-x="240.21" target-y="523.98"/><path d="M 282.62 540.89 C 282.62 540.89 264.00 541.09 256.52 537.40 C 254.24 545.05 253.04 550.25 253.04 550.25 C 253.04 550.25 271.23 561.97 282.16 557.81 C 293.09 553.65 290.87 547.42 290.87 547.42 L 282.62 540.89 Z" fill="url(#SVGID_20_)" fill-rule="nonzero" group-id="1,4" node-id="410" stroke="none" target-height="24.569946" target-width="40.050003" target-x="253.04" target-y="537.4"/><path d="M 224.28 514.11 L 222.54 514.06 L 221.85 523.39 L 260.01 548.54 L 264.35 540.21 L 263.74 538.29 Z" fill="url(#SVGID_21_)" fill-rule="nonzero" group-id="1,4" node-id="412" stroke="none" target-height="34.47998" target-width="42.5" target-x="221.85" target-y="514.06"/><path d="M 224.11 511.91 L 222.54 514.06 L 264.35 540.21 L 266.56 537.70 Z" fill="url(#SVGID_22_)" fill-rule="nonzero" group-id="1,4" node-id="414" stroke="none" target-height="28.300018" target-width="44.020004" target-x="222.54" target-y="511.91"/><path d="M 250.24 542.10 C 251.31 540.68 254.10 535.55 252.72 534.32 C 251.34 533.09 247.68 538.55 247.68 538.55 C 247.68 538.55 249.96 533.20 248.14 532.72 C 246.32 532.24 245.40 534.96 244.79 536.33 C 243.82 538.54 244.01 541.26 242.94 539.95 C 241.88 538.65 242.79 538.62 243.15 537.19 C 243.52 535.76 245.38 530.50 244.11 529.60 C 242.84 528.70 241.23 531.63 240.27 535.24 C 239.31 538.85 236.99 532.20 236.88 530.59 C 236.77 528.98 236.47 527.44 235.54 527.43 C 234.61 527.42 233.75 529.70 235.31 535.11 C 236.87 540.52 243.45 547.63 245.86 547.23 C 248.28 546.84 250.24 542.10 250.24 542.10 Z" fill="url(#SVGID_23_)" fill-rule="nonzero" group-id="1,4" node-id="416" stroke="none" target-height="20.210022" target-width="20.350006" target-x="233.75" target-y="527.42"/><path d="M 262.99 464.61 C 262.99 464.61 268.07 477.55 277.78 479.94 C 278.86 480.24 279.92 480.08 281.82 477.90 C 283.72 475.72 286.04 480.90 288.00 484.00 C 289.95 487.10 299.50 474.82 299.37 474.67 C 299.24 474.52 287.22 462.27 283.44 457.61 C 279.64 452.95 262.99 464.61 262.99 464.61 Z" fill="url(#SVGID_24_)" fill-rule="nonzero" group-id="1,4" node-id="418" stroke="none" target-height="34.149994" target-width="36.51001" target-x="262.99" target-y="452.95"/><path d="M 262.50 451.25 C 262.50 451.25 265.60 443.06 271.85 446.74 C 278.74 440.86 285.00 445.86 285.88 452.49 C 286.11 453.86 287.47 455.12 288.89 456.33 C 290.30 457.55 296.49 463.75 288.47 472.35 C 285.82 475.02 281.53 471.73 281.05 468.37 C 280.57 465.01 277.25 462.38 276.82 466.07 C 276.39 469.76 277.54 469.65 277.09 469.99 C 276.64 470.32 274.65 468.82 273.84 466.07 C 273.04 463.31 271.80 462.24 270.40 466.15 C 269.01 470.05 258.42 479.66 250.00 470.48 C 241.57 461.29 249.11 450.85 262.50 451.25 Z" fill="url(#SVGID_25_)" fill-rule="nonzero" group-id="1,4" node-id="420" stroke="none" target-height="38.80002" target-width="54.919983" target-x="241.57" target-y="440.86"/><path d="M 267.15 564.99 C 267.15 564.99 218.61 571.35 213.99 581.17 C 209.37 590.99 218.89 598.63 235.44 599.44 C 241.84 596.58 245.53 594.36 245.53 594.36 L 242.66 592.55 C 242.66 592.55 266.87 599.83 297.76 589.54 C 300.09 577.11 267.15 564.99 267.15 564.99 Z" fill="url(#SVGID_26_)" fill-rule="nonzero" group-id="1,4" node-id="422" stroke="none" target-height="34.840027" target-width="90.72" target-x="209.37" target-y="564.99"/><path d="M 320.60 550.58 C 320.60 550.58 282.97 560.19 262.41 548.21 C 241.12 535.81 233.84 529.93 226.36 533.01 C 214.72 537.79 190.53 604.52 190.53 604.52 L 206.39 603.89 C 206.39 603.89 229.58 573.82 233.51 560.99 C 241.16 570.80 268.18 593.29 283.41 593.12 C 332.64 592.56 320.60 550.58 320.60 550.58 Z" fill="url(#SVGID_27_)" fill-rule="nonzero" group-id="1,4" node-id="424" stroke="none" target-height="74.59003" target-width="142.11002" target-x="190.53" target-y="529.93"/><path d="M 298.74 469.52 C 298.74 469.52 287.33 480.80 284.25 482.27 C 285.47 485.54 286.72 487.80 286.72 487.80 C 286.72 487.80 283.37 502.99 284.78 520.56 C 286.12 537.35 275.35 545.73 275.35 545.73 C 275.35 545.73 304.87 565.92 317.97 583.05 C 337.99 524.06 327.91 486.56 305.74 476.01 C 303.26 470.41 298.74 469.52 298.74 469.52 Z" fill="url(#SVGID_28_)" fill-rule="nonzero" group-id="1,4" node-id="426" stroke="none" target-height="113.53" target-width="62.639984" target-x="275.35" target-y="469.52"/><path d="M 250.58 589.61 C 250.58 589.61 246.77 583.87 240.42 588.40 C 234.07 592.93 233.46 591.44 228.16 592.71 C 222.86 593.98 211.93 598.34 215.24 605.74 C 228.16 603.35 250.58 589.61 250.58 589.61 Z" fill="url(#SVGID_29_)" fill-rule="nonzero" group-id="1,4" node-id="428" stroke="none" target-height="21.869995" target-width="38.65001" target-x="211.93" target-y="583.87"/><path d="M 251.50 589.14 C 249.32 586.45 245.46 586.88 241.91 590.19 C 238.36 593.51 230.09 593.42 224.74 596.00 C 219.39 598.58 213.21 601.79 215.74 607.15 C 218.27 612.51 225.04 612.77 234.62 608.06 C 244.20 603.35 247.93 600.29 250.32 598.60 C 252.71 596.90 255.28 593.79 251.50 589.14 Z" fill="#d4e4fe" fill-rule="nonzero" group-id="1,4" node-id="430" stroke="none" target-height="26.320007" target-width="42.069992" target-x="213.21" target-y="586.45"/><path d="M 277.52 534.29 C 277.52 534.29 268.52 530.84 267.25 528.93 C 265.98 527.01 264.29 518.10 261.70 515.84 C 259.11 513.58 255.46 510.77 253.48 511.24 C 251.50 511.71 248.98 512.40 248.63 512.75 C 248.28 513.10 246.89 514.28 247.08 514.93 C 247.26 515.58 247.73 515.99 248.32 515.88 C 248.91 515.77 250.64 515.40 250.65 515.55 C 249.88 516.47 250.02 517.59 250.17 517.80 C 248.52 518.34 248.20 519.79 248.55 520.73 C 247.66 521.26 246.48 522.27 247.56 523.76 C 248.65 525.25 251.05 525.35 252.35 527.34 C 253.65 529.33 255.19 533.72 257.06 534.92 C 258.93 536.12 264.40 538.21 266.19 539.09 C 267.98 539.97 271.60 542.43 271.60 542.43 L 277.52 534.29 Z" fill="url(#SVGID_30_)" fill-rule="nonzero" group-id="1,4" node-id="432" stroke="none" target-height="31.660004" target-width="31.039993" target-x="246.48" target-y="510.77"/><path d="M 305.30 488.49 C 298.63 488.55 287.72 495.17 294.34 517.76 C 297.72 529.31 299.99 536.20 299.99 536.20 C 299.99 536.20 284.20 534.98 270.79 530.79 C 265.81 536.08 263.86 538.74 263.86 538.74 C 263.86 538.74 300.27 568.36 313.60 561.03 C 324.75 554.90 323.47 524.81 321.89 513.37 C 320.32 501.92 319.18 488.36 305.30 488.49 Z" fill="url(#SVGID_31_)" fill-rule="nonzero" group-id="1,4" node-id="434" stroke="none" target-height="80" target-width="60.890015" target-x="263.86" target-y="488.36"/></g></g></svg>