<?xml version="1.0" standalone="no"?><!DOCTYPE svg PUBLIC "-//W3C//DTD SVG 1.1//EN" "http://www.w3.org/Graphics/SVG/1.1/DTD/svg11.dtd"><svg class="icon" width="64px" height="64.00px" viewBox="0 0 1024 1024" version="1.1" xmlns="http://www.w3.org/2000/svg"><path d="M403.520683 655.339712l-91.333603 68.819998a127.918212 127.918212 0 1 1-36.392732-52.638344l93.700091-70.610853a223.856872 223.856872 0 0 1 292.612911-296.130662l31.915593-71.634199a127.918212 127.918212 0 1 1 59.929683 22.641524l-36.776486 82.507247a223.409158 223.409158 0 0 1 81.164106 172.497709c0 55.772341-20.338996 106.747748-54.045445 145.890721l99.200574 122.545648a127.918212 127.918212 0 1 1-50.016021 39.846523l-97.409719-120.24312c-34.985631 22.641524-76.750927 35.817099-121.586261 35.8171a223.345199 223.345199 0 0 1-170.962691-79.309292z" fill="#262626" /></svg>