<svg xmlns="http://www.w3.org/2000/svg" width="150" height="45" viewBox="0,0,150,45"><path fill="#2c3142" d="M85.82 26.62L85.81 26.61L85.85 26.65Q84.01 26.68 82.79 28.01L82.85 28.07L82.89 28.11Q81.62 29.39 81.47 31.29L81.52 31.34L81.51 31.33Q81.27 33.42 82.49 34.43L82.47 34.41L82.45 34.38Q83.73 35.45 85.86 35.38L85.80 35.31L85.86 35.38Q88.12 35.16 89.07 34.21L89.00 34.14L89.09 34.23Q90.08 32.74 89.96 30.91L89.98 30.93L90.10 31.05Q89.93 29.13 88.85 27.93L88.89 27.98L88.78 27.87Q87.62 26.59 85.79 26.59ZM85.75 17.15L85.77 17.17L85.80 17.20Q84.45 17.14 83.12 17.64L83.16 17.68L83.01 17.53Q81.82 18.44 82.05 20.30L82.08 20.33L81.97 20.21Q82.56 24.04 85.91 24.04L85.84 23.98L85.96 24.09Q87.52 24.29 88.51 23.15L88.52 23.15L88.43 23.06Q89.39 21.89 89.42 20.32L89.42 20.33L89.43 20.33Q89.54 18.62 88.82 18.01L88.80 17.99L88.87 18.06Q87.13 17.16 85.84 17.23ZM85.57 37.79L85.67 37.89L82.58 37.85L82.63 37.89Q81.09 37.88 79.76 37.00L79.61 36.85L79.70 36.94Q78.25 35.73 78.41 32.87L78.54 33.01L78.48 32.94Q78.99 26.15 82.61 25.16L82.47 25.03L82.63 25.18Q80.27 24.19 78.94 18.83L79.01 18.89L78.90 18.79Q78.53 17.35 78.61 16.55L78.57 16.51L78.72 16.67Q79.03 14.54 82.72 14.50L82.62 14.39L82.60 14.37Q86.79 14.27 88.24 14.46L88.26 14.48L88.28 14.50Q92.10 15.01 92.55 17.02L92.61 17.07L92.61 17.08Q92.75 17.72 92.75 18.10L92.64 17.99L92.81 18.15Q92.67 18.70 92.48 19.31L92.57 19.40L92.54 19.37Q92.01 23.67 89.07 25.19L89.04 25.16L89.08 25.19Q92.58 25.99 93.07 31.28L93.04 31.25L93.03 31.24Q93.09 31.45 93.13 32.75L93.09 32.71L93.02 32.64Q93.21 35.49 91.61 36.56L91.58 36.53L91.44 36.39Q90.06 37.25 85.49 37.71ZM87.86 40.12L87.86 40.12L91.21 40.19L91.13 40.12Q92.89 40.24 94.42 39.52L94.40 39.50L94.37 39.47Q95.65 38.88 95.72 37.02L95.63 36.93L95.70 37.00Q95.78 35.93 95.40 33.99L95.34 33.93L95.25 33.84Q94.36 29.22 92.26 27.35L92.40 27.49L92.18 27.08L91.98 26.80L91.83 26.54L91.85 26.56Q93.52 25.22 94.43 21.07L94.36 21.00L94.32 20.96Q94.29 20.55 94.37 19.71L94.46 19.81L94.51 19.85Q94.46 19.04 94.38 18.43L94.37 18.42L94.37 18.42Q94.35 17.11 93.17 16.61L93.07 16.51L93.10 16.50L92.85 16.33L93.00 16.47Q92.71 15.73 91.53 14.93L91.58 14.98L91.50 14.87L91.47 14.84Q89.50 14.16 85.42 13.97L85.46 14.00L85.40 13.94Q83.96 13.95 82.59 14.06L82.61 14.08L82.61 14.08Q81.73 14.04 80.44 14.19L80.46 14.22L80.49 14.25Q78.43 14.51 78.20 16.14L78.24 16.18L78.33 16.27Q78.20 16.68 78.24 17.48L78.36 17.60L78.22 17.46Q78.32 17.98 78.89 20.34L78.99 20.44L78.99 20.44Q79.66 23.55 81.41 24.88L81.45 24.91L81.60 25.06L81.65 25.12Q78.74 26.28 78.21 31.46L78.21 31.45L78.25 31.50Q78.16 33.81 78.16 34.72L78.18 34.74L78.03 34.59Q78.26 36.53 79.44 37.44L79.27 37.28L79.35 37.36Q79.51 37.48 79.78 37.67L79.67 37.56L79.77 37.67Q80.72 39.87 87.84 40.10ZM87.51 29.03L87.53 29.05L87.51 29.03Q88.37 28.90 89.25 29.36L89.35 29.47L89.30 29.41Q89.75 30.47 89.71 31.01L89.59 30.88L89.74 31.03Q89.75 31.31 89.75 31.61L89.62 31.48L89.67 31.54Q89.68 33.91 87.40 34.74L87.46 34.81L87.45 34.79Q86.64 35.09 85.84 34.98L85.75 34.88L85.79 34.93Q84.63 34.99 83.49 34.53L83.54 34.58L83.64 34.68Q83.31 33.97 83.39 32.98L83.38 32.97L83.42 33.01Q83.53 31.37 84.73 30.15L84.70 30.13L84.80 30.22Q85.92 28.93 87.52 29.04ZM87.83 19.65L87.72 19.54L87.76 19.57Q88.50 19.40 89.03 19.55L88.99 19.51L89.16 20.48L89.11 20.43Q89.13 21.86 88.21 22.87L88.12 22.77L88.19 22.84Q87.32 23.90 85.95 23.71L85.98 23.74L85.86 23.61Q84.92 23.66 84.50 23.43L84.45 23.38L84.52 23.46Q84.41 23.12 84.30 22.43L84.26 22.39L84.32 22.45Q84.07 21.07 85.29 20.23L85.21 20.15L85.36 20.30Q86.26 19.45 87.67 19.49Z"></path><path fill="#2c3142" d="M56.82 20.82L56.90 20.91L56.93 20.94Q53.71 20.91 51.88 19.84L51.85 19.81L51.78 19.75Q54.30 18.38 59.17 14.16L59.27 14.25L59.29 14.27Q59.98 14.05 61.27 13.44L61.33 13.49L61.34 13.50Q59.87 19.30 59.75 25.66L59.76 25.67L59.89 25.80Q59.77 32.15 60.84 38.24L60.84 38.24L60.85 38.25Q59.14 37.49 57.01 37.38L56.95 37.32L57.06 37.44Q56.90 33.24 56.90 29.16L56.84 29.10L56.82 29.08Q56.83 24.98 56.86 20.87ZM56.60 23.23L56.61 37.82L56.51 37.72Q57.64 37.63 58.59 37.82L58.69 37.92L58.72 37.95Q58.77 38.61 58.96 39.98L58.92 39.94L58.95 39.97Q61.71 40.41 64.15 42.66L64.28 42.78L64.32 42.83Q61.73 35.60 61.70 28.14L61.77 28.21L61.68 28.12Q61.62 20.67 63.44 13.44L63.47 13.46L63.39 13.39Q62.93 13.88 61.33 14.98L61.35 15.00L61.26 14.90Q61.52 14.22 61.82 12.69L61.79 12.66L61.79 12.66Q60.60 13.57 59.16 13.95L59.10 13.89L59.00 13.79Q55.27 17.40 50.96 19.69L50.93 19.66L50.91 19.64Q52.45 20.87 54.81 21.22L54.84 21.24L54.67 21.07Q54.08 21.67 52.79 22.73L52.91 22.86L52.80 22.74Q54.35 23.19 56.55 23.19L56.57 23.20Z"></path><path d="M19 21 C85 10,65 14,140 25" stroke="#2c3142" fill="none"></path><path fill="#2c3142" d="M111.47 30.36L111.48 30.37L111.55 30.44Q114.71 30.14 117.91 30.25L117.94 30.28L117.80 30.14Q117.79 27.62 117.79 25.22L117.81 25.24L117.76 25.20Q117.86 22.81 118.05 20.26L118.04 20.26L118.01 20.23Q116.88 22.03 111.66 30.55ZM121.51 37.85L121.55 37.89L121.46 37.80Q119.74 37.45 117.95 37.37L118.10 37.52L117.97 37.40Q117.83 35.08 117.72 32.61L117.76 32.65L117.66 32.55Q112.44 32.47 107.71 33.88L107.69 33.85L107.63 33.79Q107.71 33.26 107.90 32.27L107.94 32.31L107.92 32.29Q109.72 29.14 113.30 22.86L113.39 22.95L113.36 22.92Q116.28 18.08 119.71 14.20L119.68 14.16L119.70 14.19Q120.50 13.92 122.17 13.65L122.13 13.61L122.19 13.67Q120.29 20.10 120.29 27.15L120.36 27.22L120.37 27.23Q120.25 28.60 120.33 30.08L120.41 30.16L121.74 30.32L121.67 30.24Q122.19 30.19 122.79 30.30L122.93 30.44L122.78 30.29Q123.00 31.38 123.26 33.32L123.24 33.30L123.28 33.34Q121.96 32.97 120.47 32.78L120.54 32.84L120.58 32.89Q120.72 34.81 121.40 37.74ZM123.16 30.02L123.09 29.95L123.22 30.08Q123.00 29.97 122.81 29.97L122.71 29.87L122.32 29.86L122.32 29.86Q122.32 28.49 122.32 27.08L122.20 26.96L122.33 27.09Q122.23 20.60 124.28 14.58L124.28 14.58L124.33 14.63Q123.57 14.90 122.12 15.28L122.17 15.32L122.07 15.22Q122.26 14.43 122.72 13.02L122.75 13.05L122.78 13.08Q121.53 13.50 119.47 13.73L119.48 13.74L119.47 13.73Q115.57 18.09 110.36 27.46L110.34 27.44L112.47 23.83L112.47 23.82Q111.96 24.76 111.70 25.33L111.78 25.41L107.26 34.38L107.36 34.47Q107.93 34.24 109.07 33.86L109.04 33.83L108.88 34.05L108.81 33.98Q108.83 34.80 108.53 36.06L108.56 36.09L108.41 35.94Q112.69 34.78 117.52 34.97L117.44 34.88L117.53 34.97Q117.42 35.77 117.61 37.75L117.57 37.72L117.57 37.72Q118.69 37.78 119.76 37.89L119.89 38.02L119.82 37.95Q119.91 38.57 120.17 39.94L120.14 39.91L120.26 40.03Q122.19 40.28 125.20 41.20L125.02 41.02L125.14 41.14Q124.22 39.07 123.30 35.80L123.25 35.74L124.71 36.22L124.74 36.24Q125.27 36.31 125.95 36.66L126.06 36.77L126.08 36.78Q125.17 34.16 125.02 32.48L125.01 32.48L124.98 32.45Q124.48 32.37 123.34 32.14L123.35 32.15L123.30 32.10Q123.10 30.83 123.10 29.96ZM115.12 29.82L115.08 29.78L115.13 29.83Q115.96 28.61 117.52 26.06L117.40 25.94L117.56 26.09Q117.45 26.94 117.41 27.89L117.35 27.83L117.41 27.88Q117.41 28.88 117.45 29.83L117.49 29.87L117.48 29.86Q116.93 29.85 116.36 29.85L116.28 29.76L116.33 29.81Q115.84 29.94 115.23 29.94Z"></path><path fill="#2c3142" d="M27.33 20.94L27.32 20.92L27.21 20.82Q24.07 20.87 22.24 19.80L22.20 19.77L22.22 19.78Q24.69 18.37 29.57 14.15L29.73 14.31L29.62 14.20Q30.34 14.01 31.63 13.40L31.71 13.47L31.59 13.36Q30.33 19.36 30.21 25.72L30.28 25.79L30.17 25.68Q30.20 32.18 31.27 38.27L31.22 38.22L31.23 38.24Q29.51 37.47 27.38 37.36L27.29 37.27L27.38 37.36Q27.18 33.12 27.18 29.05L27.28 29.15L27.21 29.07Q27.31 25.06 27.35 20.95ZM26.97 23.20L27.01 37.82L26.99 37.81Q28.22 37.81 29.17 38.00L29.05 37.89L29.01 37.84Q29.18 38.63 29.37 40.00L29.45 40.07L29.34 39.97Q32.24 40.54 34.67 42.78L34.56 42.67L34.66 42.77Q32.08 35.54 32.04 28.08L32.11 28.15L32.19 28.23Q31.99 20.65 33.82 13.41L33.92 13.52L33.87 13.47Q33.30 13.85 31.70 14.95L31.71 14.96L31.82 15.07Q32.03 14.33 32.33 12.80L32.23 12.70L32.22 12.69Q30.92 13.49 29.48 13.87L29.56 13.95L29.48 13.87Q25.75 17.49 21.45 19.77L21.40 19.73L21.48 19.80Q22.80 20.82 25.16 21.16L25.21 21.21L25.12 21.12Q24.49 21.67 23.20 22.74L23.32 22.86L23.20 22.74Q24.79 23.23 27.00 23.23L26.95 23.18Z"></path></svg>