<svg width="100%" height="100%" id="svg" viewBox="0 0 1440 590" xmlns="http://www.w3.org/2000/svg" class="transition duration-300 ease-in-out delay-150"><defs><linearGradient id="gradient" x1="11%" y1="19%" x2="89%" y2="81%"><stop offset="5%" stop-color="#0693e3"></stop><stop offset="95%" stop-color="#0693e3"></stop></linearGradient></defs><path d="M 0,600 C 0,600 0,200 0,200 C 63.22662507599989,213.9231409764995 126.45325015199978,227.84628195299902 170,233 C 213.54674984800022,238.15371804700098 237.4136244680007,234.53801316450344 275,210 C 312.5863755319993,185.46198683549656 363.8922519759973,140.0016653889873 414,151 C 464.1077480240027,161.9983346110127 513.0173676280102,229.45532527954742 562,235 C 610.9826323719898,240.54467472045258 660.0382775119617,184.17703349282297 716,165 C 771.9617224880383,145.82296650717703 834.829522324143,163.83654074916066 882,175 C 929.170477675857,186.16345925083934 960.6436331914667,190.47680351053427 998,182 C 1035.3563668085333,173.52319648946573 1078.5959449099898,152.25624520870232 1137,145 C 1195.4040550900102,137.74375479129768 1268.9725871685744,144.4982156546565 1322,156 C 1375.0274128314256,167.5017843453435 1407.513706415713,183.75089217267174 1440,200 C 1440,200 1440,600 1440,600 Z" stroke="none" stroke-width="0" fill="url(#gradient)" fill-opacity="0.53" class="transition-all duration-300 ease-in-out delay-150 path-0"></path><defs><linearGradient id="gradient" x1="11%" y1="19%" x2="89%" y2="81%"><stop offset="5%" stop-color="#0693e3"></stop><stop offset="95%" stop-color="#0693e3"></stop></linearGradient></defs><path d="M 0,600 C 0,600 0,400 0,400 C 34.81026461180576,358.8528906394565 69.62052922361153,317.705781278913 122,341 C 174.37947077638847,364.294218721087 244.32814771735968,452.0297655238045 294,446 C 343.6718522826403,439.9702344761955 373.0668799069497,340.175156625869 426,325 C 478.9331200930503,309.824843374131 555.4043326548416,379.26960797271937 598,399 C 640.5956673451584,418.73039202728063 649.3157894736843,388.7464114832536 693,376 C 736.6842105263157,363.2535885167464 815.3325094504215,367.74474609426625 867,386 C 918.6674905495785,404.25525390573375 943.3541727246293,436.27460413968123 994,456 C 1044.6458272753707,475.72539586031877 1121.2507996510612,483.1568373470089 1171,459 C 1220.7492003489388,434.8431626529911 1243.6426286711255,379.0980464722832 1284,364 C 1324.3573713288745,348.9019535277168 1382.1786856644371,374.4509767638584 1440,400 C 1440,400 1440,600 1440,600 Z" stroke="none" stroke-width="0" fill="url(#gradient)" fill-opacity="1" class="transition-all duration-300 ease-in-out delay-150 path-1"></path></svg>