<svg t="1698658386579" class="icon" viewBox="0 0 1024 1024" version="1.1" xmlns="http://www.w3.org/2000/svg" p-id="6449" width="64" height="64"><path d="M877.19 151.588L927 144.42v481.433l-2.542 7.15a622.398 622.398 0 0 1-142.386 227.621l-0.182 0.185-0.183 0.183c-36.781 36.581-80.07 70.963-122.936 96.574C607.109 988.43 557.585 1006 512.5 1006c-45.088 0-94.592-17.534-146.202-48.35-42.884-25.605-86.18-60.003-123.018-96.671l-0.191-0.19-0.189-0.193A624.791 624.791 0 0 1 100.555 633.04L98 625.874V150.83l44.375 0.378c48.96 0.418 97.62-7.685 143.797-23.945l0.521-0.184 0.526-0.17a748.46 748.46 0 0 0 199.96-99.893L511.573 9.85l24.979 16.306a986.95 986.95 0 0 0 201.955 100.987c36.862 11.904 69.104 19.111 96.726 22.556 18.276 2.28 31.852 2.633 40.737 1.992 0.527-0.038 0.934-0.074 1.22-0.103z m-52.849 85.435c-33.369-4.162-71.286-12.66-113.692-26.402l-0.73-0.237-0.72-0.261a1074.982 1074.982 0 0 1-195.89-94.53 836.489 836.489 0 0 1-198.436 94.86A510.113 510.113 0 0 1 186 237.65V610.5a536.8 536.8 0 0 0 119.554 188.3C374.804 867.672 459.142 918 512.5 918c53.292 0 137.733-50.42 206.967-119.22A534.407 534.407 0 0 0 839 610.522v-371.92c-4.676-0.42-9.563-0.944-14.659-1.58z m-354.355 342.84l197.99-197.99c17.183-17.182 45.043-17.182 62.226 0 17.183 17.184 17.183 45.043 0 62.226L469.986 704.314 310.887 545.215c-17.183-17.183-17.183-45.042 0-62.225s45.043-17.183 62.226 0l96.873 96.874z" fill="#000000" p-id="6450"></path></svg>