<?xml version="1.0" standalone="no"?><!DOCTYPE svg PUBLIC "-//W3C//DTD SVG 1.1//EN" "http://www.w3.org/Graphics/SVG/1.1/DTD/svg11.dtd"><svg class="icon" width="64px" height="64.00px" viewBox="0 0 1024 1024" version="1.1" xmlns="http://www.w3.org/2000/svg"><path d="M153.6 445.248v133.504h716.8V445.248H153.6zM576 934.976V1024H64v-311.68h512v89.088H153.6v133.568H576z m384-356.16H576v88.96H64V356.224h896v222.72zM64 0h896v311.68H64V0z m89.6 89.024v133.568h716.8V89.024H153.6z m44.8 44.544h89.6v44.544H198.4v-44.544z m0 356.16h89.6v44.544H198.4v-44.544z m565.312 273.984V640h85.376v123.712H972.8v85.376h-123.712V972.8h-85.376v-123.712H640v-85.376h123.712zM198.4 845.888h89.6v44.544H198.4v-44.544z" fill="#262626" /></svg>