<svg t="1698658327956" class="icon" viewBox="0 0 1024 1024" version="1.1" xmlns="http://www.w3.org/2000/svg" p-id="4441" width="64" height="64"><path d="M954.181818 953.746618 512 953.746618 69.818182 953.746618 69.818182 932.126255C78.405818 911.646255 95.604364 892.422982 121.018182 874.945164 146.455273 857.444073 179.618909 841.897891 219.601455 828.772073 286.580364 806.802618 354.141091 798.075345 373.224727 795.934255 395.008 793.490618 414.510545 781.761164 426.612364 763.934255L434.385455 752.297891 437.341091 739.474618C445.789091 702.680436 425.239273 666.002618 412.229818 647.430982 408.040727 641.449891 402.990545 636.120436 397.288727 631.605527 364.776727 605.958982 336.546909 568.280436 315.624727 522.665891 304.872727 499.206982 283.205818 483.125527 258.490182 479.797527 254.557091 478.470982 241.245091 466.718255 235.403636 442.468073 228.794182 415.076073 235.938909 397.412073 238.545455 394.8288 261.213091 381.074618 275.013818 356.056436 274.548364 329.502255 273.128727 245.976436 293.050182 181.301527 333.730909 137.246255 385.186909 81.508073 459.077818 69.825164 512 69.825164 564.922182 69.825164 638.813091 81.508073 690.292364 137.246255 730.973091 181.301527 750.871273 245.976436 749.451636 329.502255 748.986182 356.056436 762.786909 381.074618 784.849455 394.409891 788.061091 397.412073 795.205818 415.076073 788.596364 442.491345 782.754909 466.718255 769.442909 478.470982 766.301091 479.634618 740.770909 483.125527 719.127273 499.206982 708.398545 522.642618 687.453091 568.280436 659.223273 605.958982 626.757818 631.582255 621.009455 636.120436 615.959273 641.449891 611.793455 647.430982 598.760727 666.002618 578.210909 702.680436 586.705455 739.614255L589.986909 753.019345 597.294545 763.771345C609.489455 781.761164 628.992 793.490618 650.752 795.934255 669.858909 798.075345 737.419636 806.802618 804.398545 828.772073 844.381091 841.897891 877.544727 857.444073 902.981818 874.945164 928.628364 892.585891 945.92 911.995345 954.181818 931.986618L954.181818 953.746618ZM1021.975273 913.973527 1021.882182 913.7408C1009.058909 877.225891 982.365091 844.830255 942.568727 817.414982 911.639273 796.143709 872.471273 777.641891 826.181818 762.4448 754.269091 738.846255 683.589818 729.374255 658.571636 726.558255 657.175273 726.395345 655.848727 725.720436 655.057455 724.580073 654.894545 724.324073 654.778182 724.068073 654.708364 723.835345 652.962909 716.225164 660.596364 699.4688 668.974545 687.483345 669.253818 687.064436 669.602909 686.715345 669.998545 686.4128 711.214545 653.854255 746.286545 607.448436 771.863273 551.7568 772.584727 550.174255 774.050909 549.033891 775.773091 548.801164 811.613091 543.890618 844.730182 507.561891 856.482909 458.8288 869.352727 405.441164 854.760727 355.241891 821.666909 335.157527 820.130909 334.203345 819.223273 332.504436 819.246545 330.689164 820.992 228.591709 794.88 147.579345 741.585455 89.886255 672.977455 15.599709 578.862545 0.006982 512 0.006982 445.137455 0.006982 351.022545 15.599709 282.414545 89.886255 229.12 147.579345 203.008 228.591709 204.753455 330.689164 204.776727 332.504436 203.869091 334.203345 202.333091 335.157527 169.239273 355.241891 154.647273 405.441164 167.517091 458.8288 179.269818 507.561891 212.386909 543.890618 248.250182 548.801164 249.949091 549.033891 251.415273 550.174255 252.136727 551.7568 277.713455 607.448436 312.785455 653.854255 354.001455 686.4128 354.397091 686.715345 354.746182 687.064436 355.025455 687.483345 363.403636 699.4688 371.037091 716.225164 369.291636 723.835345 369.221818 724.068073 369.105455 724.324073 368.942545 724.580073 368.151273 725.720436 366.824727 726.395345 365.451636 726.558255 340.410182 729.374255 269.730909 738.846255 197.818182 762.4448 151.528727 777.641891 112.360727 796.143709 81.454545 817.414982 41.634909 844.830255 14.941091 877.225891 2.117818 913.7408L2.024727 913.973527C0.674909 918.022982 0 922.142255 0 926.261527L0 980.370618C0 1004.225164 19.339636 1023.5648 43.194182 1023.5648L512 1023.5648 980.805818 1023.5648C1004.660364 1023.5648 1024 1004.225164 1024 980.370618L1024 926.261527C1024 922.142255 1023.325091 918.022982 1021.975273 913.973527L1021.975273 913.973527Z" fill="#050001" p-id="4442"></path></svg>