<?xml version="1.0" standalone="no"?><!DOCTYPE svg PUBLIC "-//W3C//DTD SVG 1.1//EN" "http://www.w3.org/Graphics/SVG/1.1/DTD/svg11.dtd"><svg class="icon" width="64px" height="64.00px" viewBox="0 0 1024 1024" version="1.1" xmlns="http://www.w3.org/2000/svg"><path d="M367.0016 530.29376H280.81152v98.7136H367.0016c7.48032 0 59.9296-2.44736 59.9296-47.5136 0-45.1328-41.216-51.2-59.9296-51.2zM684.3904 461.48096c-57.92768 0-67.4304 55.5776-67.4304 59.2384h126.86848c-3.93728-18.4832-20.57728-59.2384-59.43808-59.2384zM412.7488 435.18976c0-37.5808-48.72192-40.2432-56.192-40.2432H281.6v84.1216h82.4576c11.2384-0.01024 48.6912-6.3232 48.6912-43.8784z" fill="#2196F3" /><path d="M849.92 51.2H174.08c-67.8656 0-122.88 55.0144-122.88 122.88v675.84c0 67.8656 55.0144 122.88 122.88 122.88h675.84c67.8656 0 122.88-55.0144 122.88-122.88V174.08c0-67.8656-55.0144-122.88-122.88-122.88z m-261.12 281.58976h179.2v51.2h-179.2v-51.2z m-204.16 358.42048H204.8V332.81536h172.3392c18.70848 0 119.8848-1.2032 119.8848 91.39712 0 49.22368-33.74592 65.83808-48.7168 73.1392 22.4768 7.3216 63.68256 28.05248 63.68256 91.41248 0.01024 98.19648-112.37376 102.4256-127.34976 102.44608z m303.7184-55.552c15.872 0 27.7504-3.75808 39.64928-11.1616 11.87328-7.4496 15.85152-14.82752 19.81952-22.25664h67.39968c-11.8784 29.64992-27.71968 51.90656-51.5584 66.71872-23.78752 14.84288-51.57888 22.2208-83.27168 22.2208-19.84 0-39.68-3.71712-59.49952-11.16672-15.87712-7.4496-31.71328-18.4832-43.60192-29.61408-11.89888-11.0592-19.84-25.91744-27.7504-44.44672-7.97184-14.80192-11.9552-37.0688-11.9552-55.57248 0-18.47296 7.39328-140.8 146.7904-140.8 99.73248 0 126.84288 77.824 130.84672 96.384 3.96288 18.56 3.96288 34.9952 3.96288 57.2416h-202.24c0.01024 22.25664 11.85792 72.45312 71.40864 72.45312z" fill="#2196F3" /></svg>