<?xml version="1.0" standalone="no"?><!DOCTYPE svg PUBLIC "-//W3C//DTD SVG 1.1//EN" "http://www.w3.org/Graphics/SVG/1.1/DTD/svg11.dtd"><svg class="icon" width="64px" height="64.00px" viewBox="0 0 1024 1024" version="1.1" xmlns="http://www.w3.org/2000/svg"><path d="M481.28 404.48l-153.6 168.96 138.24-76.8 76.8 76.8L696.32 404.48 558.08 481.28z" fill="#448AFF" /><path d="M849.92 51.2H174.08c-67.8656 0-122.88 55.0144-122.88 122.88V849.92c0 67.8656 55.0144 122.88 122.88 122.88H849.92c67.8656 0 122.88-55.0144 122.88-122.88V174.08c0-67.8656-55.0144-122.88-122.88-122.88zM512 757.76c-27.64288 0-55.296-4.60288-79.87712-10.75712L312.32 819.2V682.49088C255.48288 631.80288 220.16 561.15712 220.16 481.28c0-152.064 130.56-276.48 291.84-276.48s291.84 124.416 291.84 276.48c0 152.06912-130.56 276.48-291.84 276.48z" fill="#448AFF" /></svg>