<svg t="1700201140589" class="icon" viewBox="0 0 1024 1024" version="1.1" xmlns="http://www.w3.org/2000/svg" p-id="5107" width="64" height="64"><path d="M97.322314 1009.613223c-37.236364-19.464463-62.624793-44.852893-81.242975-80.396694-15.233058-29.619835-16.079339-55.008264-16.079339-417.216529s0.846281-387.596694 16.079339-417.216529c18.618182-36.390083 44.852893-61.778512 82.935537-81.242975C122.710744 1.692562 173.487603 0 512 0c362.208264 0 387.596694 0.846281 417.216529 16.079339 36.390083 18.618182 61.778512 44.852893 81.242975 82.935537 11.847934 23.695868 13.540496 74.472727 13.540496 412.985124s-1.692562 389.289256-13.540496 412.985124c-19.464463 38.082645-44.852893 64.317355-81.242975 82.935537-29.619835 15.233058-54.161983 16.079339-418.909091 16.079339-336.819835-0.846281-390.981818-2.538843-412.985124-14.386777z" fill="#004E9D" p-id="5108"></path><path d="M97.322314 1009.613223c-37.236364-19.464463-62.624793-44.852893-81.242975-80.396694-15.233058-29.619835-16.079339-55.008264-16.079339-417.216529s0.846281-387.596694 16.079339-417.216529c18.618182-36.390083 44.852893-61.778512 82.935537-81.242975C122.710744 1.692562 173.487603 0 512 0c362.208264 0 387.596694 0.846281 417.216529 16.079339 36.390083 18.618182 61.778512 44.852893 81.242975 82.935537 11.847934 23.695868 13.540496 74.472727 13.540496 412.985124s-1.692562 389.289256-13.540496 412.985124c-19.464463 38.082645-44.852893 64.317355-81.242975 82.935537-29.619835 15.233058-54.161983 16.079339-418.909091 16.079339-336.819835-0.846281-390.981818-2.538843-412.985124-14.386777z m313.123967-286.042975c-13.540496-11.847934-28.773554-20.310744-33.004959-18.618182-5.923967 1.692562-45.699174 121.018182-47.391735 140.482645 0 1.692562 23.695868-20.310744 53.315702-49.084298l52.469422-52.469421-25.38843-20.310744z" fill="#0B5FAA" p-id="5109"></path><path d="M97.322314 1009.613223c-37.236364-19.464463-62.624793-44.852893-81.242975-80.396694-15.233058-29.619835-16.079339-55.008264-16.079339-417.216529s0.846281-387.596694 16.079339-417.216529c18.618182-36.390083 44.852893-61.778512 82.935537-81.242975C122.710744 1.692562 173.487603 0 512 0c362.208264 0 387.596694 0.846281 417.216529 16.079339 36.390083 18.618182 61.778512 44.852893 81.242975 82.935537 11.847934 23.695868 13.540496 74.472727 13.540496 412.985124s-1.692562 389.289256-13.540496 412.985124c-19.464463 38.082645-44.852893 64.317355-81.242975 82.935537-29.619835 15.233058-54.161983 16.079339-418.909091 16.079339-336.819835-0.846281-390.981818-2.538843-412.985124-14.386777z m319.047934-287.735537c-38.928926-32.158678-48.238017-26.234711-66.009917 41.467769-14.386777 54.161983-16.92562 58.393388-21.157025 36.390082-5.923967-25.38843-5.923967-24.542149-6.770248 5.077686 0 16.92562 1.692562 33.004959 5.077686 36.390083 3.385124 2.538843 29.619835-18.618182 59.239669-47.391736l53.315703-52.469421-23.695868-19.464463z m-97.322314-29.619835c-2.538843-6.770248-5.077686-4.231405-5.077686 5.077686-0.846281 9.309091 1.692562 14.386777 4.231405 11.001653 2.538843-2.538843 3.385124-10.155372 0.846281-16.079339z" fill="#0066BD" p-id="5110"></path><path d="M97.322314 1009.613223c-37.236364-19.464463-62.624793-44.852893-81.242975-80.396694-15.233058-29.619835-16.079339-55.008264-16.079339-417.216529s0.846281-387.596694 16.079339-417.216529c18.618182-36.390083 44.852893-61.778512 82.935537-81.242975C122.710744 1.692562 173.487603 0 512 0c362.208264 0 387.596694 0.846281 417.216529 16.079339 36.390083 18.618182 61.778512 44.852893 81.242975 82.935537 11.847934 23.695868 13.540496 74.472727 13.540496 412.985124s-1.692562 389.289256-13.540496 412.985124c-19.464463 38.082645-44.852893 64.317355-81.242975 82.935537-29.619835 15.233058-54.161983 16.079339-418.909091 16.079339-336.819835-0.846281-390.981818-2.538843-412.985124-14.386777z m332.58843-280.119008c-5.077686-5.923967-20.310744-16.92562-33.85124-23.695868l-24.542149-12.694215 214.109091-220.033058c297.044628-304.661157 295.352066-305.507438-54.161983-8.46281L308.892562 653.328926l9.309091 94.783471c5.077686 51.62314 10.155372 95.629752 11.001653 98.168595 0 1.692562 25.38843-20.310744 55.854545-50.77686 43.160331-43.160331 52.469421-56.700826 44.852893-66.009917z" fill="#0093FD" p-id="5111"></path><path d="M97.322314 1009.613223c-37.236364-19.464463-62.624793-44.852893-81.242975-80.396694-15.233058-29.619835-16.079339-55.008264-16.079339-417.216529s0.846281-387.596694 16.079339-417.216529c18.618182-36.390083 44.852893-61.778512 82.935537-81.242975C122.710744 1.692562 173.487603 0 512 0c362.208264 0 387.596694 0.846281 417.216529 16.079339 36.390083 18.618182 61.778512 44.852893 81.242975 82.935537 11.847934 23.695868 13.540496 74.472727 13.540496 412.985124s-1.692562 389.289256-13.540496 412.985124c-19.464463 38.082645-44.852893 64.317355-81.242975 82.935537-29.619835 15.233058-54.161983 16.079339-418.909091 16.079339-336.819835-0.846281-390.981818-2.538843-412.985124-14.386777z m629.633058-232.727273c54.161983-214.955372 145.560331-569.547107 149.791735-583.933884 5.923967-21.157025-10.155372-19.464463-60.932231 5.077686-22.849587 11.001653-58.393388 27.927273-79.550413 37.236364-34.697521 15.233058-66.856198 30.466116-215.801653 99.014876-323.279339 148.945455-396.905785 181.950413-402.829752 181.950413-20.310744 0-0.846281 16.92562 66.856198 58.393388 135.404959 83.781818 126.095868 71.933884 132.866116 171.795042 3.385124 48.238017 8.46281 90.552066 10.155372 94.783471 2.538843 3.385124 29.619835-17.771901 60.932231-49.084298l55.854546-55.008264 118.479339 75.319008c65.163636 41.467769 122.710744 76.165289 126.942148 76.165289 5.077686 0 21.157025-50.77686 37.236364-111.709091z" fill="#E6C73E" p-id="5112"></path><path d="M97.322314 1009.613223c-37.236364-19.464463-62.624793-44.852893-81.242975-80.396694-15.233058-29.619835-16.079339-55.008264-16.079339-417.216529s0.846281-387.596694 16.079339-417.216529c18.618182-36.390083 44.852893-61.778512 82.935537-81.242975C122.710744 1.692562 173.487603 0 512 0c362.208264 0 387.596694 0.846281 417.216529 16.079339 36.390083 18.618182 61.778512 44.852893 81.242975 82.935537 11.847934 23.695868 13.540496 74.472727 13.540496 412.985124s-1.692562 389.289256-13.540496 412.985124c-19.464463 38.082645-44.852893 64.317355-81.242975 82.935537-29.619835 15.233058-54.161983 16.079339-418.909091 16.079339-336.819835-0.846281-390.981818-2.538843-412.985124-14.386777z m629.633058-232.727273c54.161983-214.955372 145.560331-569.547107 149.791735-583.933884 5.923967-21.157025-10.155372-19.464463-60.932231 5.077686-22.849587 11.001653-58.393388 27.927273-79.550413 37.236364-34.697521 15.233058-66.856198 30.466116-215.801653 99.014876-323.279339 148.945455-396.905785 181.950413-402.829752 181.950413-20.310744 0-0.846281 16.92562 66.856198 58.393388 135.404959 83.781818 126.095868 71.933884 132.866116 171.795042 3.385124 48.238017 8.46281 90.552066 10.155372 93.93719 2.538843 4.231405 18.618182-5.923967 35.543801-22.849587 28.773554-27.927273 33.85124-29.619835 93.937191-31.312397l63.471074-1.692562 80.396694 52.469422c44.006612 27.927273 84.628099 51.62314 88.859504 51.62314 5.077686 0 21.157025-50.77686 37.236364-111.709091z" fill="#E6BB5C" p-id="5113"></path><path d="M97.322314 1009.613223c-37.236364-19.464463-62.624793-44.852893-81.242975-80.396694-15.233058-29.619835-16.079339-54.161983-16.079339-418.06281 0.846281-360.515702 1.692562-387.596694 16.079339-416.370248 18.618182-36.390083 44.852893-61.778512 82.935537-81.242975C122.710744 1.692562 173.487603 0 512 0c336.819835 0 390.135537 1.692562 412.985124 13.540496 38.082645 19.464463 64.317355 44.852893 82.935537 81.242975 15.233058 30.466116 16.079339 54.161983 16.079339 418.06281-0.846281 335.127273-2.538843 389.289256-13.540496 412.985124-19.464463 37.236364-44.852893 63.471074-81.242975 82.089256-29.619835 15.233058-54.161983 16.079339-418.909091 16.079339-336.819835-0.846281-390.981818-2.538843-412.985124-14.386777z m613.553719-169.256198c5.923967-27.080992 13.540496-52.469421 16.92562-57.547108 3.385124-4.231405 5.923967-14.386777 5.923967-21.157024 0-13.540496 111.709091-459.530579 143.021487-568.700827 5.923967-20.310744-10.155372-19.464463-60.932231 5.077686-22.849587 11.001653-58.393388 27.927273-79.550413 37.236364-34.697521 15.233058-66.856198 30.466116-215.801653 99.014876-323.279339 148.945455-396.905785 181.950413-402.829752 181.950413-19.464463 0-2.538843 16.079339 49.930578 49.084297l58.393389 35.543802-6.770248 39.775207c-6.770248 39.775207-5.923967 41.467769 49.930578 125.249587 55.008264 82.089256 86.320661 109.170248 86.320662 73.626446 0-33.85124 33.004959-51.62314 101.553719-53.315703l63.471074-1.692562 80.396694 52.469422c44.006612 27.927273 84.628099 51.62314 89.705785 51.62314s14.386777-22.003306 20.310744-48.238016z" fill="#AFE880" p-id="5114"></path><path d="M97.322314 1009.613223c-37.236364-19.464463-62.624793-44.852893-81.242975-80.396694-15.233058-28.773554-16.079339-53.315702-16.079339-319.894215V321.586777h211.570248V0h152.330578v321.586777h91.398348c84.628099 0 88.859504 0.846281 65.163636 12.694215-101.553719 48.238017-396.905785 181.950413-402.829752 181.950413-19.464463 0-2.538843 16.079339 49.930578 49.084297l58.393389 35.543802-6.770248 39.775207c-6.770248 39.775207-5.923967 41.467769 49.930578 125.249587 55.008264 82.089256 86.320661 109.170248 86.320662 73.626446 0-33.85124 33.004959-51.62314 101.553719-53.315703l63.471074-1.692562 81.242975 52.469422c44.006612 27.927273 84.628099 51.62314 89.705785 51.62314 4.231405 0 13.540496-22.003306 19.464463-48.238016 5.923967-27.080992 13.540496-52.469421 16.92562-57.547108 3.385124-4.231405 5.923967-14.386777 5.923967-21.157024 0-13.540496 111.709091-459.530579 143.021487-568.700827 5.077686-18.618182-10.155372-19.464463-44.006611-3.385124-44.006612 22.003306-176.026446 82.935537-195.490909 90.552066l-19.464463 7.616529V0h139.636364c151.484298 0 180.257851 6.770248 220.879338 52.469421 46.545455 50.77686 45.699174 43.160331 45.699174 460.37686-0.846281 335.127273-2.538843 389.289256-13.540496 412.985124-19.464463 37.236364-44.852893 63.471074-81.242975 82.089256-29.619835 15.233058-54.161983 16.079339-418.909091 16.079339-336.819835-0.846281-390.981818-2.538843-412.985124-14.386777z" fill="#DECD76" p-id="5115"></path><path d="M97.322314 1009.613223c-37.236364-19.464463-62.624793-44.852893-81.242975-80.396694-15.233058-28.773554-16.079339-53.315702-16.079339-319.047934V322.433058l108.323967-2.538843 107.477686-2.538843 2.538843-158.254546 1.692562-159.100826h143.867768v321.586777h91.398348l90.552066 0.846281-38.082645 17.771901c-92.244628 43.160331-143.867769 65.163636-143.867769 60.932231 0-2.538843-16.92562 5.077686-37.236363 16.92562-21.157025 11.847934-43.160331 22.003306-49.930579 22.003306s-24.542149 8.46281-40.621487 19.464463c-16.079339 10.155372-50.77686 28.773554-77.011571 39.775206-27.080992 11.847934-49.084298 22.849587-49.084297 25.38843s23.695868 19.464463 53.315702 37.236364l52.469422 32.158677-2.538843 44.006612c-2.538843 41.467769 0 46.545455 55.008264 127.78843 39.775207 59.239669 63.471074 85.47438 77.011571 87.166942 15.233058 2.538843 18.618182-0.846281 18.618181-17.771901 0-32.158678 15.233058-38.082645 94.783472-40.621488l72.780165-1.692562 76.165289 48.238017c41.467769 26.234711 79.550413 47.391736 83.781818 47.391735s13.540496-22.003306 19.464463-48.238016c5.923967-27.080992 14.386777-53.315702 18.618182-59.23967s5.923967-14.386777 3.385124-18.618181c-3.385124-4.231405-0.846281-11.001653 4.231405-13.540496 4.231405-3.385124 6.770248-11.001653 4.231405-17.771901-2.538843-5.923967-0.846281-13.540496 3.385124-16.079339 5.077686-3.385124 8.46281-13.540496 8.46281-24.542149 0-14.386777 104.092562-434.142149 123.557024-497.613223 5.923967-18.618182-10.155372-19.464463-44.006611-3.385124-44.006612 22.003306-176.026446 82.935537-195.490909 90.552066l-19.464463 7.616529V0h139.636364c151.484298 0 180.257851 6.770248 220.879338 52.469421 46.545455 50.77686 45.699174 43.160331 45.699174 460.37686-0.846281 335.127273-2.538843 389.289256-13.540496 412.985124-19.464463 37.236364-44.852893 63.471074-81.242975 82.089256-29.619835 15.233058-54.161983 16.079339-418.909091 16.079339-336.819835-0.846281-390.981818-2.538843-412.985124-14.386777z" fill="#FFDF48" p-id="5116"></path><path d="M97.322314 1009.613223C30.466116 974.915702 0 922.446281 0 842.049587v-55.008265h211.570248V682.102479l57.547107 83.781819c39.775207 59.239669 62.624793 85.47438 76.16529 87.166942 15.233058 2.538843 18.618182-0.846281 18.618181-17.771901 0-32.158678 15.233058-38.082645 94.783472-40.621488l72.780165-1.692562 76.165289 48.238017c41.467769 26.234711 79.550413 47.391736 83.781818 47.391735 5.077686 0 13.540496-22.003306 18.618182-48.238016l11.001653-49.084298 151.484297 2.538843 151.484298 2.538843v50.77686c0 74.472727-31.312397 128.634711-94.783471 160.793388-29.619835 15.233058-54.161983 16.079339-418.909091 16.079339-336.819835-0.846281-390.981818-2.538843-412.985124-14.386777zM0 499.305785V322.433058l108.323967-2.538843 107.477686-2.538843 2.538843-159.100827 1.692562-158.254545h143.867768v321.586777h91.398348l90.552066 0.846281-38.082645 17.771901c-92.244628 43.160331-143.867769 65.163636-143.867769 60.932231 0-2.538843-16.92562 5.077686-37.236363 16.92562-21.157025 11.847934-43.160331 22.003306-49.930579 22.003306s-24.542149 8.46281-40.621487 19.464463c-16.079339 10.155372-50.77686 28.773554-77.011571 39.775206-27.080992 11.847934-49.084298 22.849587-49.084297 25.38843s23.695868 19.464463 53.315702 37.236364l52.469422 32.158677-2.538843 41.467769-3.385124 41.467768H0V499.305785zM753.190083 674.48595c0-3.385124 117.633058-463.761983 123.557024-481.533884 5.923967-18.618182-10.155372-19.464463-44.006611-3.385124-44.006612 22.003306-176.026446 82.935537-195.490909 90.552066l-19.464463 7.616529V0h139.636364c151.484298 0 180.257851 6.770248 220.879338 52.469421 44.852893 49.084298 45.699174 53.315702 45.699174 349.51405v275.041322h-135.404959c-74.472727 0-135.404959-0.846281-135.404958-2.538843z" fill="#FECF69" p-id="5117"></path><path d="M97.322314 1009.613223C30.466116 974.069421 0 922.446281 0 842.049587v-55.854546l108.323967 2.538843 107.477686 2.538843 2.538843 116.786777 2.538843 115.940496h-49.084298c-27.927273-0.846281-60.08595-6.770248-74.472727-14.386777zM357.130579 922.446281c2.538843-73.626446 6.770248-104.938843 16.079338-114.247934 7.616529-7.616529 34.697521-11.847934 85.474381-13.540496l72.780165-1.692562 76.165289 48.238017c41.467769 26.234711 79.550413 47.391736 83.781818 47.391735 5.077686 0 13.540496-22.003306 18.618182-48.238016l11.001653-49.084298 151.484297 2.538843 151.484298 2.538843v50.77686c0 76.165289-32.158678 129.480992-99.014876 163.332231-23.695868 11.847934-65.163636 13.540496-299.583471 13.540496H353.745455l3.385124-101.553719zM0 499.305785V321.586777h220.879339l-2.538843 77.01157-2.538843 77.01157-52.469422 22.003306c-29.619835 12.694215-53.315702 24.542149-53.315702 27.080992s23.695868 19.464463 53.315702 37.236364l52.469422 32.158677-2.538843 41.467769-3.385124 41.467768H0V499.305785zM753.190083 674.48595c0-3.385124 117.633058-463.761983 123.557024-481.533884 5.923967-18.618182-10.155372-19.464463-44.006611-3.385124-44.006612 22.003306-176.026446 82.935537-195.490909 90.552066l-19.464463 7.616529V0h139.636364c151.484298 0 180.257851 6.770248 220.879338 52.469421 44.852893 49.084298 45.699174 53.315702 45.699174 349.51405v275.041322h-135.404959c-74.472727 0-135.404959-0.846281-135.404958-2.538843zM360.515702 400.290909c-2.538843-3.385124-5.077686-22.003306-5.077685-42.314049v-36.390083h95.629752l94.783471 0.846281-38.082645 17.771901c-100.707438 47.391736-143.021488 64.317355-147.252893 60.08595z" fill="#FCD888" p-id="5118"></path><path d="M97.322314 1009.613223C31.312397 974.915702 0 922.446281 0 846.280992v-50.77686h211.570248v228.495868h-44.006612c-24.542149-0.846281-55.854545-6.770248-70.241322-14.386777zM363.900826 919.061157c0-74.472727 3.385124-107.477686 11.001653-113.401653 5.923967-5.077686 43.160331-10.155372 83.781819-11.001653l72.780165-1.692562 76.165289 48.238017c41.467769 26.234711 79.550413 47.391736 83.781818 47.391735 5.077686 0 13.540496-22.003306 18.618182-48.238016l11.001653-49.084298 151.484297 2.538843 151.484298 2.538843v50.77686c0 76.165289-32.158678 129.480992-99.014876 163.332231-22.849587 11.847934-65.163636 13.540496-294.505785 13.540496H363.900826v-104.938843zM0 499.305785V321.586777h211.570248v156.561983l-50.77686 21.157025c-27.927273 11.847934-50.77686 22.849587-50.776859 25.38843s23.695868 19.464463 53.315702 37.236364l52.469422 32.158677-2.538843 41.467769-3.385124 41.467768H0V499.305785zM753.190083 674.48595c0-3.385124 117.633058-463.761983 123.557024-481.533884 5.923967-18.618182-10.155372-19.464463-44.006611-3.385124-44.006612 22.003306-176.026446 82.935537-195.490909 90.552066l-19.464463 7.616529V0h139.636364c151.484298 0 180.257851 6.770248 220.879338 52.469421 44.852893 49.084298 45.699174 53.315702 45.699174 349.51405v275.041322h-135.404959c-74.472727 0-135.404959-0.846281-135.404958-2.538843zM363.900826 363.900826v-42.314049h91.398348l90.552066 0.846281-38.082645 17.771901c-21.157025 9.309091-61.778512 28.773554-90.552066 41.467768l-53.315703 23.695868v-41.467769z" fill="#A4CAFF" p-id="5119"></path><path d="M97.322314 1009.613223C31.312397 974.915702 0 922.446281 0 846.280992v-50.77686h211.570248v228.495868h-44.006612c-24.542149-0.846281-55.854545-6.770248-70.241322-14.386777zM363.900826 919.061157c0-74.472727 3.385124-107.477686 11.001653-113.401653 5.923967-5.077686 44.006612-10.155372 83.781819-11.001653l73.626446-1.692562 81.242975 51.623141 80.396694 51.62314v127.78843H363.900826v-104.938843zM0 499.305785V321.586777h211.570248v149.791735l-49.930579 24.542149c-27.927273 13.540496-50.77686 26.234711-50.776859 28.773554-0.846281 2.538843 22.849587 19.464463 52.469421 37.236364l52.469422 32.158677-2.538843 41.467769-3.385124 41.467768H0V499.305785zM753.190083 672.793388c0-2.538843 7.616529-32.158678 17.7719-66.009917 10.155372-33.004959 34.697521-125.249587 55.008265-204.8 19.464463-78.704132 41.467769-164.178512 49.084297-188.720661 11.847934-44.852893 11.847934-44.852893-5.923966-38.928926-18.618182 5.923967-118.479339 50.77686-179.411571 81.242976-18.618182 9.309091-42.31405 20.310744-52.469421 24.542148l-19.464463 7.616529V0h139.636364c151.484298 0 180.257851 6.770248 220.879338 52.469421 44.852893 49.084298 45.699174 53.315702 45.699174 349.51405v275.041322h-135.404959c-74.472727 0-135.404959-1.692562-135.404958-4.231405zM363.900826 363.900826v-42.314049l91.398348 0.846281c49.930579 0 84.628099 2.538843 77.857851 5.077686-13.540496 5.077686-131.173554 58.393388-154.023141 71.087603-13.540496 6.770248-15.233058 3.385124-15.233058-34.697521z" fill="#D9D9D3" p-id="5120"></path><path d="M97.322314 1009.613223C31.312397 974.915702 0 922.446281 0 846.280992v-50.77686h211.570248v228.495868h-44.006612c-24.542149-0.846281-55.854545-6.770248-70.241322-14.386777zM363.900826 939.371901c0-46.545455 2.538843-84.628099 6.770248-84.628099 3.385124 0.846281 58.393388 7.616529 122.710744 16.079338 63.471074 7.616529 117.633058 12.694215 120.171901 11.001653 2.538843-2.538843 4.231405-11.847934 4.231405-20.310743 0-14.386777 4.231405-12.694215 38.082645 10.155371l38.082644 26.234711v126.095868H363.900826v-84.628099zM0 499.305785V321.586777h211.570248v149.791735l-49.930579 24.542149c-27.927273 13.540496-50.77686 27.927273-50.776859 32.158678-0.846281 4.231405 22.003306 38.928926 49.930578 77.857851l50.77686 71.087603H0V499.305785zM753.190083 672.793388c0-2.538843 7.616529-32.158678 17.7719-66.009917 10.155372-33.004959 34.697521-125.249587 55.008265-204.8 19.464463-78.704132 41.467769-164.178512 49.084297-188.720661 11.847934-44.852893 11.847934-44.852893-5.923966-38.928926-18.618182 5.923967-118.479339 50.77686-179.411571 81.242976-18.618182 9.309091-42.31405 20.310744-52.469421 24.542148l-19.464463 7.616529V0h139.636364c151.484298 0 180.257851 6.770248 220.879338 52.469421 44.852893 49.084298 45.699174 53.315702 45.699174 349.51405v275.041322h-135.404959c-74.472727 0-135.404959-1.692562-135.404958-4.231405zM363.900826 363.900826v-42.314049l91.398348 0.846281c49.930579 0 84.628099 2.538843 77.857851 5.077686-13.540496 5.077686-131.173554 58.393388-154.023141 71.087603-13.540496 6.770248-15.233058 3.385124-15.233058-34.697521z" fill="#F7E9AE" p-id="5121"></path><path d="M97.322314 1009.613223C31.312397 974.915702 0 922.446281 0 846.280992v-50.77686h211.570248v228.495868h-44.006612c-24.542149-0.846281-55.854545-6.770248-70.241322-14.386777zM363.900826 939.371901c0-46.545455 2.538843-84.628099 6.770248-84.628099 3.385124 0.846281 58.393388 7.616529 122.710744 16.079338 63.471074 7.616529 117.633058 12.694215 120.171901 11.001653 2.538843-2.538843 4.231405-11.847934 4.231405-20.310743 0-14.386777 4.231405-12.694215 38.082645 10.155371l38.082644 26.234711v126.095868H363.900826v-84.628099zM0 495.07438V321.586777h211.570248v149.791735l-49.930579 24.542149c-27.927273 13.540496-50.77686 27.927273-50.776859 31.312397-0.846281 4.231405 20.310744 38.082645 46.545454 74.472727l46.545455 66.856198H0V495.07438zM758.267769 649.943802c14.386777-45.699174 33.004959-113.401653 66.856198-247.960331 20.310744-78.704132 42.31405-164.178512 49.930578-188.720661 11.847934-44.852893 11.847934-44.852893-5.923966-38.928926-18.618182 5.923967-118.479339 50.77686-179.411571 81.242976-18.618182 9.309091-42.31405 20.310744-52.469421 24.542148l-19.464463 7.616529V0h139.636364c151.484298 0 180.257851 6.770248 220.879338 52.469421 44.852893 49.084298 45.699174 54.161983 45.699174 345.282645v270.809917H752.343802l5.923967-18.618181zM363.900826 363.900826v-42.314049l91.398348 0.846281c49.930579 0 84.628099 2.538843 77.857851 5.077686-13.540496 5.077686-131.173554 58.393388-154.023141 71.087603-13.540496 6.770248-15.233058 3.385124-15.233058-34.697521z" fill="#D8E5EC" p-id="5122"></path><path d="M97.322314 1009.613223C33.004959 974.915702 0 919.907438 0 846.280992v-50.77686h211.570248v228.495868h-44.006612c-24.542149-0.846281-55.854545-6.770248-70.241322-14.386777zM363.900826 941.064463v-83.781818l91.398348 11.847934c49.930579 5.923967 116.786777 12.694215 148.945454 15.233057 92.244628 6.770248 89.705785 4.231405 89.705785 77.011571v62.624793H363.900826v-82.935537zM0 495.07438V321.586777h211.570248v148.945454l-55.008265 23.695868c-30.466116 12.694215-55.008264 25.38843-55.008264 27.927273s21.157025 33.85124 46.545455 70.241322 46.545455 68.54876 46.545454 71.087604-44.006612 5.077686-97.322314 5.077685H0V495.07438zM761.652893 654.175207c11.001653-20.310744 128.634711-485.765289 123.557024-490.842976-1.692562-1.692562-46.545455 16.92562-99.861157 42.31405-90.552066 44.006612-157.408264 73.626446-164.178512 73.626446-1.692562 0-3.385124-62.624793-3.385124-139.636363V0h139.636364c152.330579 0 170.94876 4.231405 216.647933 49.930579 49.930579 49.930579 49.930579 52.469421 49.930579 347.821487v270.809917h-135.404959c-126.942149 0-135.404959-0.846281-126.942148-14.386776zM363.900826 364.747107v-43.16033l82.935538 0.846281 82.089256 0.846281-71.087603 33.004959c-39.775207 18.618182-77.01157 38.082645-82.935538 43.16033-8.46281 6.770248-11.001653 0-11.001653-34.697521z" fill="#F4F3EF" p-id="5123"></path></svg>