<?xml version="1.0" standalone="no"?><!DOCTYPE svg PUBLIC "-//W3C//DTD SVG 1.1//EN" "http://www.w3.org/Graphics/SVG/1.1/DTD/svg11.dtd"><svg class="icon" width="64px" height="64.00px" viewBox="0 0 1024 1024" version="1.1" xmlns="http://www.w3.org/2000/svg"><path d="M0 64l1024-0.128V960H0V64z m74.56 74.688v746.624H948.48V138.688H74.56z m623.36 271.552a85.12 85.12 0 1 1-0.064-170.368 85.12 85.12 0 0 1 0.128 170.368z m-305.28 179.392l62.72-73.664 152.32 166.72 119.232-89.536L948.48 832v53.312h-82.048l-151.04-163.392-119.744 89.856-203.008-222.144z m0 0l-251.904 295.744H74.56V816l252.8-297.792 65.28 71.424zM323.904 522.112l66.048-77.568 68.032 74.24-2.752-2.816-62.72 73.6 0.256 0.32-0.128 0.192-0.256-0.256 0.128-0.192-65.28-71.424-3.328 3.904z" fill="#262626" /></svg>