<?xml version="1.0" standalone="no"?><!DOCTYPE svg PUBLIC "-//W3C//DTD SVG 1.1//EN" "http://www.w3.org/Graphics/SVG/1.1/DTD/svg11.dtd"><svg class="icon" width="64px" height="64.00px" viewBox="0 0 1024 1024" version="1.1" xmlns="http://www.w3.org/2000/svg"><path d="M512 88.704L149.312 239.424v225.088c0 54.528 9.536 107.328 28.672 158.72a516.48 516.48 0 0 0 202.24 253.696A460.8 460.8 0 0 0 512 936.256a460.928 460.928 0 0 0 131.712-59.2 517.504 517.504 0 0 0 202.304-253.76 451.52 451.52 0 0 0 28.672-158.72V239.424L512 88.704z m448 122.24v253.568c0 64.64-11.328 127.424-33.92 188.352a602.368 602.368 0 0 1-235.52 295.36A548.544 548.544 0 0 1 512 1024a548.416 548.416 0 0 1-178.56-75.776A601.664 601.664 0 0 1 97.92 652.8 536.192 536.192 0 0 1 64 464.512V211.008c0-17.28 10.368-32.768 26.24-39.36L495.68 3.328a42.752 42.752 0 0 1 32.768 0l405.312 168.32c15.936 6.592 26.304 22.144 26.304 39.36zM460.8 564.416L699.712 320 768 389.76 460.8 704 256 494.528l68.288-69.76L460.8 564.288z" fill="#262626" /></svg>