<svg width="960" height="875" fill="none" xmlns="http://www.w3.org/2000/svg"><path fill-rule="evenodd" clip-rule="evenodd" d="M513.031 49c.5 0 1-.375 1-1 0-.5-.5-1-1-1h-7V37h7c.5 0 1-.375 1-1 0-.5-.5-1-1-1h-7c-.125 0-.125.125-.125.125a12.037 12.037 0 0 0-11-11s.125 0 .125-.125v-7c0-.5-.5-1-1-1-.625 0-1 .5-1 1v7h-10v-7c0-.5-.5-1-1-1-.625 0-1 .5-1 1v7h-10v-7c0-.5-.5-1-1-1-.625 0-1 .5-1 1v7.125c-5.875.5-10.5 5.125-11 11V35h-7c-.625 0-1 .5-1 1 0 .625.375 1 1 1h7v10h-7c-.625 0-1 .5-1 1 0 .625.375 1 1 1h7v10h-7c-.625 0-1 .5-1 1 0 .625.375 1 1 1h7c.5 5.875 5.125 10.5 11 11v7c0 .625.375 1 1 1 .5 0 1-.375 1-1v-7h10v7c0 .625.375 1 1 1 .5 0 1-.375 1-1v-7h10v7c0 .625.375 1 1 1 .5 0 1-.375 1-1v-7h-.125c5.875-.5 10.5-5.125 11-11h7.125c.5 0 1-.375 1-1 0-.5-.5-1-1-1h-7V49h7zm-9 11c0 5.625-4.5 10-10 10h-24c-5.625 0-10-4.375-10-10V36c0-5.5 4.375-10 10-10h24c5.5 0 10 4.5 10 10v24zm-32-28c-3.375 0-6 2.75-6 6v20c0 3.375 2.625 6 6 6h20c3.25 0 6-2.625 6-6V38c0-3.25-2.75-6-6-6h-20zm24 26c0 2.25-1.875 4-4 4h-20c-2.25 0-4-1.75-4-4V38c0-2.125 1.75-4 4-4h20c2.125 0 4 1.875 4 4v20zm-155.75 54.5l24 10c2.25 1 3.75 3.125 3.75 5.5 0 32-23.625 48-30.125 48-6.25 0-29.875-15.875-29.875-48 0-2.375 1.375-4.5 3.625-5.5l24-10c.625-.25 1.625-.5 2.375-.5.625 0 1.625.25 2.25.5zm-27.875 11.75c-1.5.625-2.375 2.125-2.375 3.75 0 30.375 21 44.25 27 45.875V114.25c-.083 0-.166.014-.25.028-.166.028-.333.055-.5-.028l-23.875 10zm26.625-10v59.625c1.625-.5 27-11.75 27-45.875 0-1.625-1-3-2.5-3.625l-24-10a.947.947 0 0 1-.25-.063.96.96 0 0 0-.25-.062zm-176 137.75c.5 0 1-.5 1-1v-33c0-2.25 1.75-4 4-4h52c2.125 0 4 1.75 4 4v33c0 .5.375 1 1 1 .5 0 1-.5 1-1v-33c0-3.375-2.75-6-6-6h-52c-3.375 0-6 2.625-6 6v32.875c0 .75.375 1.125 1 1.125zm69 4h-76c-1.125 0-2 .875-2 2v2c0 4.375 3.5 8 8 8h64c4.375 0 8-3.625 8-8v-2c0-1-1-2-2-2zm0 4c0 3.25-2.75 6-6 6h-64c-3.375 0-6-2.75-6-6v-2h76v2zM85.656 335.25c.375.375.375 1 0 1.5-.25.375-.875.375-1.375 0l-6.25-5.5V360c0 4.5-3.625 8-8 8h-40c-4.5 0-8-3.5-8-8v-28.75l-6.375 5.5c-.5.375-1.125.375-1.375 0-.375-.5-.375-1.125 0-1.5l35-30.875a.98.98 0 0 1 1.375 0l35 30.875zM30.031 366h10v-21c0-1.625 1.25-3 3-3h14c1.625 0 3 1.375 3 3v21h10c3.25 0 6-2.625 6-6v-30.625l-26-23-26 23V360c0 3.375 2.625 6 6 6zm28 0v-21c0-.5-.5-1-1-1h-14c-.625 0-1 .5-1 1v21h16zm5.125 322c5 0 9.625 2.125 13.25 5.625 7.75 7.875 8 20.25-3.25 31.5l-10.75 10.75c-6.25 6.25-15 8.125-22.125 8.125-1.5 0-2.875 0-4.25-.125-.25-.125-.625-.125-.875-.125-1.875-.25-3.625-1.125-5.125-2.375L19.656 751.75c-.125.25-.375.25-.625.25-.375 0-.625 0-.75-.25a.98.98 0 0 1 0-1.375L28.656 740c-1.25-1.5-2-3.25-2.25-5.125a1.797 1.797 0 0 1-.125-.437 1.78 1.78 0 0 0-.125-.438c-.75-7.625.5-18.875 8-26.375l10.75-10.75c6.125-6.125 12.5-8.875 18.25-8.875zm-35.125 44.5s.25 1.875.25 2.125c.25 1.5.875 2.75 1.75 3.875l30.25-30.125a.98.98 0 0 1 1.375 0 .98.98 0 0 1 0 1.375l-6.25 6.25h22.125c3.875-7.5 3.125-15.25-2.625-20.875-3.25-3.375-7.25-5.125-11.75-5.125-5.625 0-11.5 2.875-16.875 8.25L35.531 709c-6.375 6.5-8 16-7.5 23.5zm12.25 9.5c4.875 0 14.125-.875 20.75-7.5l4.375-4.5h-24l-9.875 10c1.125.875 2.375 1.5 3.875 1.75.25 0 1.625.125 1.625.125 1 .125 2.125.125 3.25.125zm27.125-14l4.375-4.25c1.75-1.875 3.25-3.75 4.5-5.75H53.406l-10 10h24zm94.625-84v-34c0-4.375 3.5-8 8-8h16l5.75-4.375c1.5-1 3.125-1.625 4.875-1.625h21.375c4.375 0 8 3.625 8 8v40c0 4.5-3.625 8-8 8h-48c-4.5 0-8-3.5-8-8zm8-40c-3.375 0-6 2.75-6 6v11h16.125c2.375-5.25 7.625-9 13.875-9 6.125 0 11.375 3.75 13.75 9h16.25v-17c0-3.25-2.75-6-6-6h-21.375c-1.375 0-2.625.5-3.625 1.25l-5.875 4.375c-.375.25-.75.375-1.125.375h-16zm-6 19v21c0 3.375 2.625 6 6 6h48c3.25 0 6-2.625 6-6v-21h-15.625c.375 1.375.625 2.625.625 4 0 8.375-6.75 15-15 15-8.375 0-15-6.625-15-15 0-1.375.125-2.625.5-4h-15.5zm30-9c-7.25 0-13 5.875-13 13 0 7.25 5.75 13 13 13 7.125 0 13-5.75 13-13 0-7.125-5.875-13-13-13zm-24-17c0-.5.375-1 1-1h10c.5 0 1 .5 1 1 0 .625-.5 1-1 1h-10c-.625 0-1-.375-1-1zm136-71c0-14.25 14.25-26 32-26 17.625 0 31.875 11.75 31.875 26 0 14.375-14.25 26-31.875 26-4.875 0-9.375-.875-13.5-2.375-3 2.5-9.25 6.375-17.5 6.375-.5 0-.75-.125-1-.5-.125-.375 0-.875.25-1.125 0-.006.013-.026.038-.058l.008-.01.017-.022.049-.06.114-.136.065-.078c1.122-1.337 5.172-6.164 6.459-11.636-4.375-4.375-7-10.125-7-16.375zm19.25 21.75c4 1.5 8.25 2.25 12.75 2.25 16.5 0 30-10.75 30-24 0-13.125-13.5-24-30-24-16.625 0-30 10.875-30 24 0 5.5 2.25 10.75 6.5 15l.75.75-.25 1.125c-1.125 4.625-4 8.75-5.875 11.125 6.625-.625 11.625-3.875 14.125-5.875l.875-.75 1.125.375zm143.5-87.875c-1.875 1.5-4 2.125-6.25 2.125-3.875 0-7.25-2-9.25-5.25-2.625-4.625-1.125-10.75 3.25-14.125l11.5-8.125V414h14.875c.5 0 1-.375 1-1 0-.5-.375-1-.875-1h-15v-7.125c0-1.5 1.25-2.875 2.75-2.875h14.25c.5 0 1-.375 1-1 0-.5-.5-1-1-1h-14.25c-2.625 0-4.75 2.25-4.75 4.875V433.5l-10.625 7.5c-5.375 4-7 11.25-3.875 16.75 2.375 3.875 6.375 6.25 11 6.25 2.625 0 5.25-.875 7.5-2.5.375-.25.5-.875.125-1.375-.25-.5-.875-.5-1.375-.25zM509.156 400h-15.375c-2.625 0-4.75 2.25-4.75 4.875V433.5l-10.625 7.5c-5.25 4-6.875 11.25-3.75 16.75 2.25 3.875 6.25 6.25 10.875 6.25 2.625 0 5.25-.875 7.5-2.5l14.375-10.375c4.125-3.125 6.625-8.125 6.625-13.25v-33c0-2.625-2.25-4.875-4.875-4.875zm2.875 37.875c0 4.5-2.25 8.875-5.875 11.625l-14.375 10.375c-1.875 1.5-4 2.125-6.25 2.125-3.875 0-7.25-2-9.25-5.25-2.625-4.625-1.125-10.75 3.25-14.125l11.5-8.125V414h20.875v23.875h.125zm0-25.875h-21v-7.125c0-1.5 1.375-2.875 2.875-2.875h15.375c1.5 0 2.75 1.375 2.75 2.875V412zm2 404c0-17.625-14.375-32-32-32-17.75 0-32 14.375-32 32 0 17.75 14.25 32 32 32 17.625 0 32-14.25 32-32zm-22.5 21.75c-2.875 5.625-6.25 8.25-9.5 8.25h-.125c-3.25 0-6.625-2.625-9.5-8.25-1.375-2.75-2.5-6-3.25-9.75h25.625c-.75 3.75-1.875 7-3.25 9.75zm3.625-11.75h-26.375c-.5-3.125-.75-6.375-.75-10 0-3.5.25-6.875.75-10h26.375c.5 3.125.875 6.5.875 10 0 3.625-.375 6.875-.875 10zm-3.625-31.625c1.375 2.75 2.5 6 3.25 9.625h-25.625c.75-3.625 1.875-6.875 3.25-9.625 2.875-5.625 6.25-8.375 9.625-8.375 3.25 0 6.625 2.75 9.5 8.375zm6.5 21.625c0-3.375-.375-6.75-.875-10h13.125a29.507 29.507 0 0 1 1.75 10c0 3.625-.625 6.875-1.75 10h-13.125c.5-3.125.875-6.5.875-10zm-1.25-12c-1.5-7.625-4.625-13.875-8.375-17.25 9.5 2.125 17.25 8.625 21.125 17.25h-12.75zm-42.375 0c3.875-8.625 11.625-15.125 21.125-17.25-3.75 3.375-6.875 9.625-8.375 17.25h-12.75zm-.75 22c-1.125-3.125-1.625-6.375-1.625-10 0-3.5.5-6.875 1.625-10h13.125c-.5 3.25-.75 6.625-.75 10 0 3.5.25 6.875.75 10h-13.125zm43.125 2h12.75c-3.875 8.75-11.625 15.25-21.125 17.375 3.75-3.375 6.875-9.625 8.375-17.375zm-42.375 0h12.75c1.5 7.75 4.625 14 8.375 17.375-9.5-2.125-17.25-8.625-21.125-17.375zm459.625-700c-5.625 0-10 4.5-10 10 0 5.625 4.375 10 10 10 5.5 0 10-4.375 10-10 0-5.5-4.5-10-10-10zm0 18c-4.5 0-8-3.5-8-8 0-4.375 3.5-8 8-8 4.375 0 8 3.625 8 8 0 4.5-3.625 8-8 8zm0-34c-17.75 0-32 14.375-32 32 0 17.75 14.25 32 32 32 17.625 0 32-14.25 32-32 0-17.625-14.375-32-32-32zm0 62c-6.875 0-13-2.25-18-6 0-7.75 6.25-14 14-14h8c7.625 0 13.875 6.375 13.875 14-5 3.75-11.125 6-17.875 6zm19.75-7.5c-.75-8.125-7.5-14.5-15.75-14.5h-8c-8.375 0-15.125 6.375-15.875 14.5-6.25-5.5-10.125-13.5-10.125-22.5 0-16.5 13.375-30 30-30 16.5 0 30 13.5 30 30 0 9-4 17-10.25 22.5zM613.656 307.125c-2.125-1.875-4.875-3-8-3V304c-6.5 0-11.625 5.25-11.625 11.75 0 2.375.625 4.5 1.75 6.25.375.5.875.625 1.375.375s.625-.875.375-1.375c-1-1.5-1.5-3.25-1.5-5.25 0-5.375 4.25-9.75 9.625-9.75 2.625 0 4.875 1 6.625 2.625a.98.98 0 0 0 1.375 0c.375-.375.375-1.125 0-1.5zm22.875 42.125l-9.5-7.625V325c0-.5-.5-1-1.125-1-.5 0-1 .5-1 1v17c0 .375.25.625.5.875l10 8c.375.25 1 .25 1.375-.25.375-.375.25-1-.25-1.375zm-38.25 17.125a.98.98 0 0 0 0 1.375.98.98 0 0 0 1.375 0l7.25-7.25c5 4.75 11.75 7.5 19.125 7.5 7.25 0 14-2.75 19-7.5l7.25 7.25a.98.98 0 0 0 1.375 0 .98.98 0 0 0 0-1.375l-7.25-7.25c4.75-5 7.625-11.75 7.625-19.125 0-15.375-12.625-28-28-28-15.5 0-28 12.625-28 28 0 7.375 2.75 14.125 7.5 19.125l-7.25 7.25zM652.031 340c0 14.375-11.75 26-26 26-14.375 0-26-11.625-26-26 0-14.25 11.625-26 26-26 14.25 0 26 11.75 26 26zm-5.75-35.875c-3.125 0-5.875 1.125-8 3-.375.375-.375 1.125 0 1.5a.98.98 0 0 0 1.375 0c1.75-1.625 4-2.625 6.625-2.625 5.375 0 9.75 4.375 9.75 9.75 0 2-.625 3.75-1.625 5.25-.25.5-.125 1.125.375 1.375s1 .125 1.375-.375c1.125-1.75 1.875-3.875 1.875-6.25 0-6.5-5.25-11.625-11.75-11.625zm139.25-48.5c-6.25 6.25-16.375 6.25-22.625 0s-6.25-16.375 0-22.625l5-5a.98.98 0 0 1 1.375 0c.375.375.375 1 0 1.5l-5 4.875c-5.375 5.5-5.375 14.375 0 19.875 5.5 5.375 14.375 5.375 19.875 0l16.875-17c5.5-5.5 5.5-14.375 0-19.875-5.375-5.375-14.25-5.375-19.75 0l-2.125 2.125c-.375.5-1 .5-1.375 0a.98.98 0 0 1 0-1.375l2.125-2.125c6.25-6.25 16.375-6.25 22.625 0s6.25 16.375 0 22.625l-17 17zM754.406 224.5c6.25-6.25 16.375-6.25 22.625 0s6.25 16.375 0 22.625l-5 5a.98.98 0 0 1-1.375 0c-.375-.5-.375-1.125 0-1.5l5-4.875c5.375-5.5 5.375-14.375 0-19.875-5.5-5.375-14.375-5.375-19.875 0l-16.875 17c-5.5 5.5-5.5 14.375 0 19.75 5.375 5.5 14.25 5.5 19.75 0l2.125-2.125a.98.98 0 0 1 1.375 0c.375.5.375 1.125 0 1.5l-2.125 2.125c-6.25 6.25-16.375 6.25-22.625 0s-6.25-16.375 0-22.625l17-17zM926.031 497v7h-24v-7c0-.5-.5-1-1-1-.625 0-1 .5-1 1v7h-6c-4.5 0-8 3.625-8 8v40c0 4.5 3.5 8 8 8h40c4.375 0 8-3.5 8-8v-40c0-4.375-3.625-8-8-8h-6v-7c0-.5-.5-1-1-1-.625 0-1 .5-1 1zm-2 23h16v12h-16v-12zm-36 26v-12h16v12h-16zm6 12c-3.375 0-6-2.625-6-6v-4h16v10h-10zm-6-38h16v12h-16v-12zm34 28v10h-16v-10h16zm12 10h-10v-10h16v4c0 3.375-2.75 6-6 6zm6-24v12h-16v-12h16zm-34-2v-12h16v12h-16zm-18-20c0-3.25 2.625-6 6-6h6v5c0 .625.375 1 1 1 .5 0 1-.375 1-1v-5h24v5c0 .625.375 1 1 1 .5 0 1-.375 1-1v-5h6c3.25 0 6 2.75 6 6v6h-52v-6zm18 34v-12h16v12h-16zm-252 146h-53c-1.75 0-3 1.375-3 3v29c0 6.625 5.375 12 12 12h24c6.5 0 11.875-5.25 12-11.875V716h8c6.625 0 12-5.25 12-12 0-6.625-5.375-12-12-12zm-10 32.125c-.125 5.5-4.625 9.875-10 9.875h-24c-5.625 0-10-4.375-10-10v-29c0-.5.375-1 1-1h43v30.125zm10-10.125h-8v-20h8c5.5 0 10 4.5 10 10 0 5.625-4.5 10-10 10zm3 26c-.625 0-1 .5-1 1 0 2.875-2.25 5-5 5h-58c-2.875 0-5-2.125-5-5 0-.5-.5-1-1-1-.625 0-1 .5-1 1 0 3.875 3.125 7 7 7h58c3.75 0 7-3.125 7-7 0-.5-.5-1-1-1zm113-148c-.625 0-1 .5-1 1v3.125c-10.625.5-19 9.25-19 19.875v4.625c0 5.25-1.875 10.25-5.125 14.375l-2.125 2.625c-.5.75-.75 1.625-.75 2.5 0 2.125 1.75 3.875 3.875 3.875h48.125c2.125 0 4-1.75 4-3.875 0-.875-.375-1.75-.875-2.5L795.031 635c-3.25-4.125-5-9.125-5-14.375V616c0-10.625-8.5-19.375-19.125-19.875l.125-.125v-3c0-.5-.5-1-1-1zm-18 24c0-9.854 7.967-17.966 17.938-18 9.971.034 18.062 8.146 18.062 18v4.625c0 5.75 1.875 11.25 5.375 15.625l2.125 2.625c.25.375.5.75.5 1.25 0 1-1 1.875-2 1.875h-48.125c-1 0-1.875-.875-1.875-1.875 0-.5.125-.875.375-1.25l2.125-2.625c3.5-4.375 5.5-9.875 5.5-15.625V616zm18 38a5.953 5.953 0 0 1-4.25-1.75 5.953 5.953 0 0 1-1.75-4.25c0-.5-.5-1-1-1-.625 0-1 .5-1 1 0 2.125.75 4.25 2.25 5.75s3.625 2.25 5.75 2.25c2 0 4.125-.75 5.625-2.25a8.244 8.244 0 0 0 2.375-5.75c0-.5-.5-1-1-1-.625 0-1 .5-1 1 0 1.625-.75 3.125-1.875 4.25s-2.625 1.75-4.125 1.75zm-39-40c-.625 0-1 .5-1 1 0 .625.375 1 1 1h12c.5 0 1-.375 1-1 0-.5-.5-1-1-1h-12zm79 1c0-.5-.5-1-1-1h-12c-.625 0-1 .5-1 1 0 .625.375 1 1 1h12c.5 0 1-.375 1-1zm-4.625-17c.5-.25.75-.875.5-1.375s-.875-.75-1.375-.5l-10 5c-.5.25-.75.875-.5 1.375s.875.75 1.375.5l10-5zm-71.375-1.375c-.25.5 0 1.125.5 1.375l10 5c.5.25 1.125 0 1.375-.5s0-1.125-.5-1.375l-10-5c-.5-.25-1.125 0-1.375.5z" fill="#FFD43B"/><path fill-rule="evenodd" clip-rule="evenodd" d="M207.174 56.5c-2.625 3.75-7 7.5-13.125 7.5h-.125c-6.125 0-10.5-3.75-13.125-7.5-.25-.5-.875-.625-1.375-.25-.5.25-.625.875-.25 1.375 2.75 4 7.75 8.375 14.75 8.375 7.125 0 12.125-4.375 14.875-8.375.375-.5.25-1.125-.25-1.375-.5-.375-1.125-.25-1.375.25zM184.049 44c1.125 0 2-.875 2-2 0-1-.875-2-2-2s-2 1-2 2c0 1.125.875 2 2 2zm20-4c-1.125 0-2 1-2 2 0 1.125.875 2 2 2s2-.875 2-2c0-1-.875-2-2-2zm-10 40c17.625 0 32-14.25 32-32 0-17.625-14.375-32-32-32-17.75 0-32 14.375-32 32 0 17.75 14.25 32 32 32zm-30-32c0-16.5 13.375-30 30-30 16.5 0 30 13.5 30 30 0 16.625-13.5 30-30 30-16.625 0-30-13.375-30-30zm-100 66.625l-9.625 9.5-18.75 5.75c-2.75.875-5 3.125-5.875 5.875l-11.375 35.625c-.375 1.25 0 2.5.875 3.375s2.125 1.25 3.375.875l35.625-11.375c2.75-.875 5-3.125 5.875-5.875l5.75-18.75 9.5-9.625a6.941 6.941 0 0 0 0-9.875l-5.5-5.5a6.941 6.941 0 0 0-9.875 0zm5 23L56.424 125l9-9c2-2 5.125-2 7.125 0l5.5 5.5c2 2 2 5.125 0 7.125l-9 9zm-32.75-5.875l18.375-5.5 13.125 13.125-5.5 18.375c-.75 2.25-2.375 3.875-4.625 4.625l-35.625 11.25c-.125.125-.25.125-.375.125l18.125-18.125c1.125.875 2.625 1.375 4.25 1.375 3.75 0 7-3.125 7-7 0-3.75-3.25-7-7-7-3.875 0-7 3.25-7 7 0 1.625.5 3.125 1.375 4.25l-18.125 18.125c0-.125 0-.25.125-.375l11.25-35.625c.75-2.25 2.375-3.875 4.625-4.625zm2.75 18.25c0-2.75 2.125-5 5-5 2.75 0 5 2.25 5 5 0 2.875-2.25 5-5 5-2.875 0-5-2.125-5-5zm36.875 350h-52c-3.25 0-5.875 2.75-5.875 6v44c0 3.375 2.625 6 5.875 6h52c3.25 0 6-2.625 6-6v-44c0-3.25-2.625-6-6-6zm-43.875 54h-8c-2.25 0-4-1.75-4-4v-3h11.875l.125 7zm0-9h-12v-10h12v10zm0-12h-12v-10h12v10zm0-12h-12v-10h12v10zm-.125-12H20.049v-3c0-2.125 1.75-4 4-4h8l-.125 7zm34.125 45h-32v-25h32v25zm0-27h-32v-25h32v25zm14 23c0 2.25-1.875 4-4 4h-8v-7h12v3zm0-5h-12v-10h12v10zm0-12h-12v-10h12v10zm0-12h-12v-10h12v10zm0-12h-12v-7h8c2.125 0 4 1.875 4 4v3zm144.125-92.875c2.375-2.375 2.375-6.125 0-8.5l-5.75-5.75c-2.375-2.375-6.125-2.375-8.5 0L169.799 442c-1.5 1.625-2.75 3.5-3.25 5.625l-4.5 15.125c-.125.375 0 .75.25 1s.625.375 1 .25l15.125-4.5c2.125-.625 4-1.75 5.625-3.25l40.125-40.125zm-9.75 6.875l-11.375-11.375 8.25-8.375a4.236 4.236 0 0 1 5.75 0l5.75 5.75c1.5 1.625 1.5 4.125 0 5.625L214.424 423zm-43.25 20.5l30.375-30.375 11.375 11.375-30.375 30.375c-1.25 1.25-2.875 2.25-4.625 2.75l-13.5 4 4-13.5c.5-1.75 1.5-3.375 2.75-4.625zm19.5 381.25a.98.98 0 0 1-1.375 0l-7-7a.98.98 0 0 1 0-1.375.98.98 0 0 1 1.375 0l6.25 6.25 14.375-14.25a.98.98 0 0 1 1.375 0 .98.98 0 0 1 0 1.375l-15 15zm14.125-34.625c4.125-1 8.625.125 11.875 3.25 3.125 3.25 4.25 7.75 3.25 11.875 3.625 2.25 6.125 6.25 6.125 10.75 0 4.625-2.5 8.625-6.125 10.875 1 4.125-.125 8.625-3.25 11.75-3.25 3.25-7.75 4.375-11.875 3.375-2.25 3.625-6.25 6-10.875 6-4.5 0-8.5-2.375-10.75-6-4.125 1-8.625-.125-11.875-3.375-3.125-3.125-4.25-7.625-3.25-11.75-3.625-2.25-6-6.25-6-10.875 0-4.5 2.375-8.5 6-10.75-1-4.125.125-8.625 3.25-11.875 3.25-3.125 7.75-4.25 11.875-3.25 2.25-3.625 6.25-6.125 10.875-6.125 4.5 0 8.5 2.5 10.75 6.125zm-20.625 2.375l-.75-.25a10.586 10.586 0 0 0-13.25 13.25l.25.75-.75.375c-3.375 1.875-5.625 5.375-5.625 9.375 0 4.125 2.25 7.625 5.625 9.5l.75.375-.25.75a10.586 10.586 0 0 0 13.25 13.25l.75-.25.375.75c1.875 3.375 5.375 5.625 9.5 5.625 4 0 7.5-2.25 9.375-5.625l.375-.75.75.25a10.586 10.586 0 0 0 13.25-13.25l-.25-.75.75-.375c3.375-1.875 5.75-5.375 5.75-9.5 0-4-2.375-7.5-5.75-9.375l-.75-.375.25-.75a10.586 10.586 0 0 0-13.25-13.25l-.75.25-.375-.75c-1.875-3.375-5.375-5.75-9.375-5.75-4.125 0-7.625 2.375-9.5 5.75l-.375.75zM353.549 308c7.375-4.125 12.625-5 15-2.5 3.25 3.125.25 10.25-2.875 15.75-1 1.75-2.25 3.625-3.625 5.625 1.125 2.875 1.875 6 1.875 9.25 0 14.25-11.625 25.875-26 25.875-3.25 0-6.375-.625-9.25-1.75-1.875 1.375-3.75 2.5-5.625 3.625-3.75 2.125-8.25 4.125-11.75 4.125-1.625 0-3-.375-3.875-1.375-2.5-2.5-1.625-7.625 2.5-15 .25-.5.875-.75 1.375-.5s.75.875.5 1.25c-3.5 6.25-4.625 11-2.875 12.75s6.75.625 13.25-3.125a84.12 84.12 0 0 0 4.375-2.75c-8.5-4.25-14.5-13.125-14.5-23.25 0-14.25 11.625-26 26-26 10.125 0 19 6 23.25 14.5 1-1.5 1.875-2.875 2.75-4.375 3.75-6.5 4.875-11.5 3.125-13.25s-6.5-.625-12.75 2.875c-.375.25-1 0-1.25-.5-.375-.375-.125-1 .375-1.25zm-15.625 4c-13.125 0-24 10.75-24 24 0 9.875 6 18.375 14.375 22 5.5-3.875 11.375-8.875 17-14.5 5.625-5.75 10.625-11.625 14.5-17-3.625-8.5-12.125-14.5-21.875-14.5zm.125 47.875c13 0 23.875-10.75 23.875-23.875 0-2.5-.375-5-1.125-7.5-3.75 5.25-8.625 10.75-14 16.125-5.375 5.5-10.875 10.25-16.125 14 2.25.75 4.75 1.25 7.375 1.25zM481.924 252c-4.5 0-8 3.5-8 8 0 4.375 3.5 8 8 8 4.375 0 8-3.625 8-8s-3.5-8-8-8zm0 14c-3.375 0-6-2.75-6-6 0-3.375 2.625-6 6-6 3.25 0 6 2.75 6 6 0 3.375-2.625 6-6 6zm39.75-37.5c-21.875-21.875-57.5-21.875-79.375 0a.98.98 0 0 0 0 1.375.98.98 0 0 0 1.375 0c21.125-21 55.5-21 76.625 0 .125.25.375.375.75.375.25 0 .5-.125.625-.375a.98.98 0 0 0 0-1.375zm-39.625 3.5c-9.5 0-18.25 3.625-24.875 10.25a.98.98 0 0 0 0 1.375.98.98 0 0 0 1.375 0c6.25-6.125 14.625-9.625 23.5-9.625 8.75 0 17.125 3.5 23.375 9.75.25.25.5.25.75.25s.5 0 .625-.25a.98.98 0 0 0 0-1.375C500.174 235.75 491.424 232 482.049 232zM361.924 695.125l7.625 31c.25 1.25.5 2.625.5 3.875v12c0 3.375-2.75 6-6 6h-52c-3.375 0-6-2.625-6-6v-12c0-1.25.125-2.625.375-3.875L314.049 695c.5-1.75 2.125-3 4-3h40c1.75 0 3.375 1.25 3.875 3.125zM364.049 746c2.125 0 4-1.875 4-4v-12c0-1.022-.206-2.043-.432-3.159l-.068-.341-7.625-31c-.25-.875-1-1.5-1.875-1.5h-40c-1 0-1.75.625-2 1.5l-7.625 31a15.516 15.516 0 0 0-.375 3.375V742c0 2.125 1.75 4 4 4h52zm-10-20h6.875c.5 0 1 .375 1 1 0 .5-.5 1-1 1h-6.375l-3.625 7.375c-.25.375-.5.625-.875.625h-24c-.5 0-.75-.125-1-.625L321.424 728h-6.375c-.5 0-1-.5-1-1 0-.625.5-1 1-1h7c.375 0 .625.25.875.625l3.625 7.375h22.875l3.625-7.5c.25-.375.5-.5 1-.5zm166-118.5l-16.875-13.25c-1.75-1.375-3.875-2.25-6.25-2.25h-29.875c-2.375 0-4.5.875-6.25 2.25l-16.875 13.25c-1.125.875-1.75 2-1.875 3.375-.125 1.25.25 2.625 1 3.625l6.25 7.75c1.75 2.125 4.875 2.375 7.125.75l4.5-4v30c0 3.875 3.25 7 7 7h27.875c3.875 0 6.875-3.125 6.875-7v-29.625l4.625 3.625c2.125 1.625 5.25 1.375 7-.75l6.25-7.75c.875-1 1.25-2.25 1.125-3.625.125-1.375-.5-2.5-1.625-3.375zM490.924 594c-.5 4.5-4.375 8-8.875 8-4.625 0-8.5-3.5-9-8h17.875zm28.375 19.25l-6.25 7.75c-1 1.25-2.875 1.5-4.125.375l-6.375-4.875c-.25-.25-.625-.25-1-.125s-.5.5-.5.875V649c0 2.875-2.25 5-5 5h-28c-2.875 0-5-2.125-5-5v-32.125c0-.375-.125-.75-.5-.875-.25-.125-.375-.125-.5-.125-.25 0-.5.125-.75.25l-6.25 5.25c-1.25 1-3.125.875-4.125-.375l-6.25-7.75c-.5-.625-.75-1.375-.625-2.125 0-.75.375-1.5 1-2l16.875-13.375c1.5-1.125 3.25-1.75 5.125-1.75h4c.5 5.625 5.25 10 11 10 5.625 0 10.375-4.375 10.875-10h4c1.875 0 3.625.625 5 1.75l16.875 13.375c.625.5 1.125 1.25 1.125 2 .125.75-.125 1.5-.625 2.125zM626.049 170c1 0 2-.875 2-2 0-1-1-2-2-2-1.125 0-2 1-2 2 0 1.125.875 2 2 2zm-24-50v28c0 5.625 4.375 10 10 10h6v10c0 4.5 3.5 8 8 8 4.375 0 8-3.5 8-8v-10h6c5.5 0 10-4.375 10-10v-28c0-4.375-3.625-8-8-8h-32c-4.5 0-8 3.625-8 8zm46 28c0 4.5-3.625 8-8 8h-8v12c0 3.375-2.75 6-6 6-3.375 0-6-2.625-6-6v-12h-8c-4.5 0-8-3.5-8-8v-2h44v2zm-6-34c3.25 0 6 2.75 6 6v24h-44v-24c0-3.25 2.625-6 6-6h2v13c0 .625.375 1 1 1 .5 0 1-.375 1-1v-13h10v9c0 .625.375 1 1 1 .5 0 1-.375 1-1v-9h8v11c0 .625.375 1 1 1 .5 0 1-.375 1-1v-11h6zm154-94h-52c-3.375 0-6 2.75-6 6v44c0 3.375 2.625 6 6 6h52c3.25 0 6-2.625 6-6V26c0-3.25-2.75-6-6-6zm-52 54c-2.25 0-4-1.75-4-4v-6.375l13.25-13.25a.98.98 0 0 1 1.375 0l9.875 9.875L750.799 74h-6.75zm56-4c0 2.25-1.875 4-4 4h-42.5l31.75-31.625a.98.98 0 0 1 1.375 0l13.375 13.25V70zm0-17.125l-12-11.875c-1.125-1.25-3-1.25-4.125 0l-17.875 17.875-10-10c-1.25-1.125-3.125-1.125-4.25 0l-11.75 12V26c0-2.125 1.75-4 4-4h52c2.125 0 4 1.875 4 4v26.875zm-46-23.875c-3.875 0-7 3.25-7 7 0 3.875 3.125 7 7 7 3.75 0 7-3.125 7-7 0-3.75-3.25-7-7-7zm0 12c-2.875 0-5-2.125-5-5 0-2.75 2.125-5 5-5 2.75 0 5 2.25 5 5 0 2.875-2.25 5-5 5zm184 263c2.125 0 4 1.875 4 4v44c0 2.25-1.875 4-4 4v10h2.875c.625 0 1.125.375 1.125 1s-.5 1-1.25 1h-47.875c-3.75 0-6.875-3.125-6.875-7v-49c0-4.375 3.5-8 8-8h44zm-44 2c-3.375 0-6 2.75-6 6v44.125c1.25-1.375 3-2.125 5-2.125h7v-48h-6zm-1 60h43v-10h-42.875c-2.625 0-4.875 1.875-5.125 4.5-.375 2.875 2 5.5 5 5.5zm9-60v48h36c1 0 2-.875 2-2v-44c0-1-1-2-2-2h-36zm7 14h24c.5 0 1 .375 1 1 0 .5-.5 1-1 1h-24c-.625 0-1-.5-1-1 0-.625.375-1 1-1zm0 10h24c.5 0 1 .375 1 1 0 .5-.5 1-1 1h-24c-.625 0-1-.5-1-1 0-.625.375-1 1-1zm-307 203c0-2.75 2.125-5 5-5 2.75 0 5 2.25 5 5 0 2.875-2.25 5-5 5-2.875 0-5-2.125-5-5zm5 3c1.625 0 3-1.25 3-3 0-1.625-1.375-3-3-3-1.75 0-3 1.375-3 3 0 1.75 1.25 3 3 3zm9-19c0 2.875-2.25 5-5 5-2.875 0-5-2.125-5-5 0-2.75 2.125-5 5-5 2.75 0 5 2.25 5 5zm-5-3c-1.75 0-3 1.375-3 3 0 1.75 1.25 3 3 3 1.625 0 3-1.25 3-3 0-1.625-1.375-3-3-3zm11-5c0-2.75 2.125-5 5-5 2.75 0 5 2.25 5 5 0 2.875-2.25 5-5 5-2.875 0-5-2.125-5-5zm5 3c1.625 0 3-1.25 3-3 0-1.625-1.375-3-3-3-1.75 0-3 1.375-3 3 0 1.75 1.25 3 3 3zm21 5c0 2.875-2.25 5-5 5-2.875 0-5-2.125-5-5 0-2.75 2.125-5 5-5 2.75 0 5 2.25 5 5zm-5-3c-1.75 0-3 1.375-3 3 0 1.75 1.25 3 3 3 1.625 0 3-1.25 3-3 0-1.625-1.375-3-3-3zm6.125 22h-12.125c-3.375 0-6 2.75-6 6 0 .5 0 .875.125 1.25.219 1.202.628 2.213 1.062 3.283l.188.467.184.424.101.232c.67 1.532 1.34 3.063 1.34 4.594 0 4-2.75 7.625-6.75 7.75h-1.25c-17.75 0-32-14.25-32-32 0-17.625 14.25-32 32-32 17.625 0 32 14.375 32 32a.246.246 0 0 1-.015.08.274.274 0 0 1-.015.04l-.009.02-.016.033-.007.015a.792.792 0 0 0-.056.133.25.25 0 0 0-.007.054c0 4.625-4.125 7.625-8.75 7.625zm6.798-7.783l.015-.029.032-.068a.414.414 0 0 0 .021-.059.215.215 0 0 0 .009-.061c0-16.5-13.5-30-30-30-16.625 0-30 13.5-30 30 0 16.625 13.375 30 30 30h1.125c2.75-.125 4.875-2.5 4.875-5.75 0-1.058-.442-2.116-1.015-3.485l-.11-.265c0-.125-.125-.375-.25-.625a19.596 19.596 0 0 0-.131-.318l-.139-.324a32.277 32.277 0 0 0-.15-.34l-.007-.018c-.429-.973-.888-2.015-1.073-3.125-.125-.625-.125-1.125-.125-1.75 0-4.375 3.5-8 8-8h12.125c3.875 0 6.75-2.5 6.75-5.625a.22.22 0 0 1 .012-.071c.004-.015.01-.029.016-.044l.02-.043zM750.049 444h19l-.125 19c0 .625.5 1 1 1 .625 0 1.125-.375 1.125-1v-19h19c1.125 0 2.375-.5 3.125-1.5s1-2.25.625-3.5l-.625-2.375c-1.375-5.125-4.5-9.375-8.75-12.125l-2.25-22.5h5.875c.5 0 1-.375 1-1 0-.5-.5-1-1-1h-36c-.625 0-1 .5-1 1 0 .625.375 1 1 1h5.75l-2.25 22.5c-4.25 2.75-7.375 7-8.75 12.125l-.625 2.375a3.875 3.875 0 0 0 .625 3.5c.75 1 2 1.5 3.25 1.5zm6.625-17.875l.75-.5L759.799 402h20.375l2.375 23.625.75.5c3.875 2.5 6.75 6.375 8 11l.625 2.375c.125.625 0 1.25-.375 1.75s-1 .75-1.5.75h-19v-13c0-.5-.5-1-1-1-.625 0-1 .5-1 1v13h-19c-.625 0-1.25-.25-1.625-.75s-.5-1.125-.375-1.75l.625-2.375c1.25-4.625 4.125-8.5 8-11zM914.049 714c-3.375 0-6.125 2.75-6.125 6 0 3.375 2.75 6 6.125 6 3.25 0 6-2.625 6-6 0-3.25-2.75-6-6-6zm-.125 10c-2.25 0-4-1.875-4-4 0-2.25 1.75-4 4-4 2.125 0 4 1.75 4 4 0 2.125-1.75 4-4 4zm25.125-29c-2-2-4.875-3-8.25-3-4.875.125-10.75 2.125-16.75 5.75-6.125-3.625-12-5.75-16.875-5.75-3.375.125-6.25 1-8.25 3-4.875 4.875-3.5 14.75 2.625 25-6.125 10.375-7.5 20.25-2.625 25.125 2 2 4.875 2.875 8.25 2.875 4.875 0 10.75-2 16.875-5.625 6 3.625 11.875 5.625 16.75 5.625 3.375 0 6.25-.875 8.25-2.875 4.875-4.875 3.5-14.75-2.625-25.125 6.125-10.25 7.5-20.125 2.625-25zm-8.25-1c3 0 5.25.875 6.875 2.5 4 4 2.75 12.5-2.5 21.625-2.375-3.625-5.25-7.125-8.625-10.625-3.5-3.375-7-6.25-10.625-8.625 5.375-3 10.625-4.875 14.875-4.875zm-40.5 2.5c1.625-1.625 3.875-2.5 6.875-2.5 4.375 0 9.5 1.875 14.875 4.875-3.625 2.375-7.125 5.25-10.625 8.625-3.375 3.5-6.25 7-8.625 10.625-5.25-9.125-6.5-17.625-2.5-21.625zm6.875 49.5c-3 0-5.25-.75-6.875-2.375-4-4-2.75-12.5 2.5-21.625 2.375 3.625 5.25 7.125 8.625 10.625 3.5 3.375 7 6.25 10.625 8.625-5.375 3-10.5 4.75-14.875 4.75zm5.75-14.875c-3.625-3.5-6.625-7.375-9-11.125 2.375-3.75 5.375-7.5 9-11 3.5-3.5 7.25-6.5 11-9 3.875 2.5 7.625 5.5 11.125 9 3.625 3.5 6.625 7.25 9 11-2.375 3.875-5.375 7.625-9 11.125-3.5 3.5-7.25 6.5-11 9a67.528 67.528 0 0 1-11.125-9zm34.75 12.5c-1.625 1.625-3.875 2.375-6.875 2.375-4.25 0-9.5-1.75-14.875-4.75 3.625-2.375 7.125-5.25 10.625-8.625 3.375-3.5 6.25-7 8.625-10.625 5.25 9 6.5 17.625 2.5 21.625zM795.049 786c0-.5-.5-1-1-1-.625 0-1 .5-1 1v5h-5c-.625 0-1 .5-1 1 0 .625.375 1 1 1h5v5c0 .625.375 1 1 1 .5 0 1-.375 1-1v-5h5c.5 0 1-.375 1-1 0-.5-.5-1-1-1h-5v-5zm-47 37c.5 0 1-.375 1-1v-1c0-7.625 6.25-14 14-14h1c.5 0 1-.375 1-1 0-.5-.5-1-1-1h-1c-8.875 0-16 7.25-16 16v1c0 .625.375 1 1 1zm26.125-26.75l-1.375 1.375c-2.75-1-5.75-1.625-8.75-1.625-14.375 0-26 11.75-26 26 0 14.375 11.625 26 26 26 14.25 0 26-11.625 26-26 0-3-.625-6-1.625-8.75l1.375-1.375c1.625-1.5 1.625-4.125 0-5.625l-4.25-4.375 2.125-2.125a.98.98 0 0 0 0-1.375.98.98 0 0 0-1.375 0l-2.25 2.125-4.25-4.25c-1.5-1.625-4.125-1.625-5.625 0zm-2 3.25c.625.25 1.5 0 2-.5l1.375-1.375c.75-.75 2.125-.75 2.875 0l10 10c.75.75.75 2.125 0 2.875l-1.375 1.375c-.5.5-.75 1.375-.5 2 1 2.625 1.5 5.375 1.5 8.125 0 13.25-10.75 24-24 24-13.375 0-24-10.75-24-24s10.625-24 24-24c2.75 0 5.5.5 8.125 1.5z" fill="#8991A6"/></svg>