<?xml version="1.0" standalone="no"?><!DOCTYPE svg PUBLIC "-//W3C//DTD SVG 1.1//EN" "http://www.w3.org/Graphics/SVG/1.1/DTD/svg11.dtd"><svg class="icon" width="64px" height="64.00px" viewBox="0 0 1024 1024" version="1.1" xmlns="http://www.w3.org/2000/svg"><path d="M622.42304 651.84256v68.39296h-45.8496s-10.7008 2.67264-10.7008-16.43008v-101.25824h-42.79296v108.5184s-0.76288 52.34688 42.79296 52.34688h99.34848v-160.86016h-42.79296v49.29024zM447.42656 605.17888h-35.9168c-43.61216 0-79.09376 35.4816-79.09376 79.09376s35.48672 79.08864 79.09376 79.08864h35.9168v0.0512h42.79296v-226.95936h-42.79296v68.72576z m0 116.92032h-35.9168c-20.85888 0-37.82656-16.96768-37.82656-37.82656s16.96256-37.83168 37.82656-37.83168h35.9168v75.65824z" fill="#2932E1" /><path d="M849.92 51.2H174.08c-67.8656 0-122.88 55.0144-122.88 122.88v675.84c0 67.8656 55.0144 122.88 122.88 122.88h675.84c67.8656 0 122.88-55.0144 122.88-122.88V174.08c0-67.8656-55.0144-122.88-122.88-122.88z m-247.23968 153.6s71.8336 0 71.8336 90.68544c0 89.66656-71.8336 88.64256-71.8336 88.64256s-71.3216 6.11328-71.3216-83.04128c0-93.48096 67.2256-96.28672 71.3216-96.28672z m-181.36064 0c4.096 0 71.3216 2.80576 71.3216 96.29184 0 89.15456-71.3216 83.04128-71.3216 83.04128s-71.8336 1.01888-71.8336-88.64256C349.48608 204.8 421.31968 204.8 421.31968 204.8zM218.80832 442.20928c0-90.68544 71.8336-90.68544 71.8336-90.68544 4.096 0 71.3216 2.80064 71.3216 96.28672 0 89.15456-71.3216 83.04128-71.3216 83.04128s-71.8336 1.01888-71.8336-88.64256zM652.61056 819.2c-28.27264 0-95.52384-18.33984-139.84256-18.33984l-0.76288 0.01024-0.76288-0.01024c-44.31872 0-111.56992 18.33984-139.84256 18.33984s-118.4512-10.69568-118.4512-115.38944c0-104.68864 98.58048-110.80704 151.31136-193.33632 0 0 35.9168-74.89024 106.98752-74.89024 0 0 0.26624-0.04608 0.76288-0.10752 0.50176 0.06144 0.76288 0.10752 0.76288 0.10752 71.07072 0 106.98752 74.89024 106.98752 74.89024 52.73088 82.52928 151.30624 88.64256 151.30624 193.33632-0.01024 104.69376-90.18368 115.38944-118.45632 115.38944z m80.7424-288.34816s-71.3216 6.11328-71.3216-83.04128c0-93.48608 67.2256-96.28672 71.3216-96.28672 0 0 71.8336 0 71.8336 90.68544 0.00512 89.66144-71.8336 88.64256-71.8336 88.64256z" fill="#2932E1" /></svg>