<?xml version="1.0" standalone="no"?><!DOCTYPE svg PUBLIC "-//W3C//DTD SVG 1.1//EN" "http://www.w3.org/Graphics/SVG/1.1/DTD/svg11.dtd"><svg class="icon" width="64px" height="64.00px" viewBox="0 0 1024 1024" version="1.1" xmlns="http://www.w3.org/2000/svg"><path d="M849.92 51.2H174.08c-67.8656 0-122.88 55.0144-122.88 122.88v675.84c0 67.8656 55.0144 122.88 122.88 122.88h675.84c67.8656 0 122.88-55.0144 122.88-122.88V174.08c0-67.8656-55.0144-122.88-122.88-122.88z m-86.67136 658.17088c-13.824 1.6896-53.8368-63.27808-53.8368-63.27808 0 37.5552-19.3536 86.62528-61.2864 122.10688 20.1984 6.2208 65.81248 23.04 54.98368 41.3184-8.7552 14.8224-150.67648 9.4464-191.60576 4.83328-40.9344 4.608-182.85056 9.984-191.60576-4.83328-10.8288-18.3552 34.7136-35.0976 54.9888-41.3184-41.92768-35.39968-61.2864-84.47488-61.2864-122.10688 0 0-40.00768 64.96768-53.83168 63.27808-6.4512-0.76288-14.8992-35.55328 11.2128-119.64928 12.288-39.62368 26.3424-72.57088 48.14848-126.94016-3.6864-140.30336 54.29248-257.95584 192.37376-257.95584 136.54528 0 195.82976 115.34848 192.45056 257.95584 21.7344 54.2976 35.8656 87.47008 48.1536 126.94016 26.11712 84.01408 17.66912 118.80448 11.14112 119.64928z" fill="#0099FF" /></svg>