<?xml version="1.0" standalone="no"?><!DOCTYPE svg PUBLIC "-//W3C//DTD SVG 1.1//EN" "http://www.w3.org/Graphics/SVG/1.1/DTD/svg11.dtd"><svg class="icon" width="64px" height="64.00px" viewBox="0 0 1024 1024" version="1.1" xmlns="http://www.w3.org/2000/svg"><path d="M849.92 51.2H174.08c-67.8656 0-122.88 55.0144-122.88 122.88v675.84c0 67.8656 55.0144 122.88 122.88 122.88h675.84c67.8656 0 122.88-55.0144 122.88-122.88V174.08c0-67.8656-55.0144-122.88-122.88-122.88z m-337.90464 768.01024h-0.11776c-55.12704-0.02048-109.20448-14.81216-156.35456-42.80832l-11.23328-6.65088-116.27008 30.47936 31.04768-113.31072-7.31648-11.6224A306.42176 306.42176 0 0 1 204.8 511.85152c0.0768-169.3184 137.8816-307.06176 307.31264-307.06176 82.06848 0.02048 159.1808 32.00512 217.18528 90.05056 58.0096 58.04544 89.91744 135.21408 89.90208 217.26208-0.06144 169.34912-137.86112 307.10784-307.18464 307.10784z" fill="#40C351" /><path d="M680.4992 589.2096c-9.23136-4.62848-54.64064-26.96192-63.10912-30.0288s-14.6176-4.608-20.79232 4.62848c-6.15424 9.23136-23.84384 30.03904-29.24032 36.18816-5.39136 6.1696-10.7776 6.94784-20.01408 2.31936-9.22112-4.63872-38.96832-14.37184-74.26048-45.82912-27.44832-24.46848-45.9776-54.69696-51.37408-63.94368-5.39136-9.22624-0.58368-14.22848 4.04992-18.8416 4.1472-4.1472 9.22624-10.78272 13.85984-16.1792 4.61312-5.39136 6.15424-9.24672 9.22624-15.39584 3.07712-6.17472 1.536-11.56096-0.77824-16.1792-2.2784-4.6336-20.224-50.29888-28.4416-68.56192-6.912-15.37536-14.19264-15.68768-20.79232-15.96416-5.39136-0.2304-11.54048-0.21504-17.69472-0.21504-6.14912 0-16.1536 2.31936-24.6272 11.56608-8.46848 9.24672-32.3328 31.57504-32.3328 77.00992 0 45.44 33.09056 89.344 37.70368 95.50336 4.61312 6.14912 63.89248 102.36928 157.75232 139.392 78.0032 30.76096 93.89056 24.64768 110.82752 23.11168 16.94208-1.53088 54.64064-22.31808 62.33088-43.89888 7.69536-21.56032 7.69536-40.0384 5.39648-43.88864-2.31424-3.86048-8.46336-6.15424-17.6896-10.79296z" fill="#40C351" /></svg>