<?xml version="1.0" standalone="no"?><!DOCTYPE svg PUBLIC "-//W3C//DTD SVG 1.1//EN" "http://www.w3.org/Graphics/SVG/1.1/DTD/svg11.dtd"><svg class="icon" width="64px" height="64.00px" viewBox="0 0 1024 1024" version="1.1" xmlns="http://www.w3.org/2000/svg"><path d="M849.92 51.2H174.08c-67.8656 0-122.88 55.0144-122.88 122.88v675.84c0 67.8656 55.0144 122.88 122.88 122.88h675.84c67.8656 0 122.88-55.0144 122.88-122.88V174.08c0-67.8656-55.0144-122.88-122.88-122.88z m-55.58784 652.8h-67.01056c-25.40544 0-33.44384-25.1392-77.7216-76.8-38.4-44.81024-58.30144-51.2-68.05504-51.2-13.66016 0-18.33984 3.40992-18.37568 23.9104v76.07808c0 17.08032-4.39296 28.01152-47.35488 28.01152-70.912 0-151.0144-47.98976-211.80928-131.2C220.16 458.0608 204.8 358.272 204.8 339.8144c0-10.24 3.2512-19.8144 22.784-19.8144h67.65568c16.92672 0 23.42912 7.5264 29.93152 27.3408 30.02368 100.6592 74.88 177.44896 97.65888 177.44896 8.45312 0 12.36992-4.09088 12.36992-26.61888V405.42208c-2.6112-47.83616-25.6-51.9424-25.6-69.01248 0-8.2176 5.4272-16.41472 15.85152-16.41472h119.00928c14.31552 0 18.74432 8.192 18.74432 25.9584v132.74112c0 15.0272 11.43808 20.50048 15.96928 20.50048 8.44288 0 16.37888 0.41472 32-16 48.14336-56.704 89.9328-142.6944 89.9328-142.6944 4.5568-10.2656 12.35456-20.50048 29.29152-20.50048h67.01056c15.0016 0 21.376 6.72768 21.76 15.99488 0.15872 3.20512-0.40448 6.784-1.59232 10.6496-8.448 40.9856-95.06816 162.6112-94.4128 162.6112-3.68128 6.28736-6.13888 10.79808-6.36416 15.52896-0.24064 4.51072 1.57696 9.22112 6.36416 15.8976 7.14752 10.25024 22.6816 29.0816 38.43072 48.10752 28.416 34.35008 51.19488 70.38976 56.1664 85.14048 1.0496 4.0192 1.51552 7.6288 1.42848 10.85952-0.3584 12.68224-9.28768 19.21024-24.8576 19.21024z" fill="#1976D2" /></svg>