<?xml version="1.0" standalone="no"?><!DOCTYPE svg PUBLIC "-//W3C//DTD SVG 1.1//EN" "http://www.w3.org/Graphics/SVG/1.1/DTD/svg11.dtd"><svg class="icon" width="64px" height="64.00px" viewBox="0 0 1024 1024" version="1.1" xmlns="http://www.w3.org/2000/svg"><path d="M849.92 51.2H174.08c-67.8656 0-122.88 55.0144-122.88 122.88v675.84c0 67.8656 55.0144 122.88 122.88 122.88h675.84c67.8656 0 122.88-55.0144 122.88-122.88V174.08c0-67.8656-55.0144-122.88-122.88-122.88z m-93.65504 336.5888a317.0816 317.0816 0 0 1 0.4352 16.11776c0 165.16096-126.8224 355.53792-358.656 355.53792-71.14752 0-137.4208-20.72064-193.24416-56.05888a248.6272 248.6272 0 0 0 30.04928 1.7664 254.80704 254.80704 0 0 0 156.56448-53.45792c-55.13728-1.08544-101.67808-37.28384-117.71392-86.79424 7.67488 1.37216 15.616 2.29888 23.74656 2.29888a124.6208 124.6208 0 0 0 33.13152-4.50048c-57.61024-11.47904-101.08416-61.94176-101.08416-122.54208v-1.46432c17.02912 9.216 36.48512 14.96064 57.15456 15.59552-33.85856-22.49728-56.064-60.66688-56.064-104.03328 0-22.81472 6.14912-44.43648 17.06496-62.90432a359.2192 359.2192 0 0 0 259.80416 130.62144 125.37344 125.37344 0 0 1-3.29216-28.50816c0-68.97664 56.42752-124.91264 126.05952-124.91264 36.24448 0 68.96128 15.0784 91.88864 39.40352 28.73344-5.5296 55.7312-16.0256 80.09728-30.30528-9.40032 29.12768-29.42464 53.7856-55.48032 69.24288 25.62048-3.1488 49.8944-9.82016 72.47872-19.82464a247.84384 247.84384 0 0 1-62.94016 64.72192z" fill="#03A9F4" /></svg>