<?xml version="1.0" standalone="no"?><!DOCTYPE svg PUBLIC "-//W3C//DTD SVG 1.1//EN" "http://www.w3.org/Graphics/SVG/1.1/DTD/svg11.dtd"><svg class="icon" width="64px" height="64.00px" viewBox="0 0 1024 1024" version="1.1" xmlns="http://www.w3.org/2000/svg"><path d="M656.90624 724.29056l47.42144-33.72544h52.68992V344.89856h-143.31904v346.7264h35.82976z" fill="#0066FF" /><path d="M849.92 51.2H174.08c-67.8656 0-122.88 55.0144-122.88 122.88v675.84c0 67.8656 55.0144 122.88 122.88 122.88h675.84c67.8656 0 122.88-55.0144 122.88-122.88V174.08c0-67.8656-55.0144-122.88-122.88-122.88zM495.66208 803.34848l-101.1712-157.05088 44.26752-31.616 67.45088 98.00704c-0.00512 0 23.17824 37.99552-10.5472 90.65984z m38.99392-276.10112v25.2928H408.19712C357.61152 876.06784 204.8 807.04512 204.8 807.04512c140.16512-109.86496 142.7968-254.50496 142.7968-254.50496H208.49152c0-57.9584 52.16256-56.91392 52.16256-56.91392h93.79328v-151.7568h-50.5856C284.89728 429.2352 204.8 425.02144 204.8 425.02144s32.67072-50.5856 54.79936-137.00096c22.12864-86.42048 89.5744-76.928 89.5744-76.928-20.0192 35.82976-29.50656 76.928-29.50656 76.928H485.12c40.04864 0 37.9392 25.2928 37.9392 25.2928v29.51168H411.35616v152.8064H503.04c33.72544 0 31.616 31.616 31.616 31.616zM819.2 747.49952h-102.22592l-88.51968 55.84896-8.42752-55.84896h-64.29184V288.01536H819.2v459.48416z" fill="#0066FF" /></svg>