<?xml version="1.0" standalone="no"?><!DOCTYPE svg PUBLIC "-//W3C//DTD SVG 1.1//EN" "http://www.w3.org/Graphics/SVG/1.1/DTD/svg11.dtd"><svg class="icon" width="64px" height="64.00px" viewBox="0 0 1024 1024" version="1.1" xmlns="http://www.w3.org/2000/svg"><path d="M959.965003 223.038575v238.189392a533.078353 533.078353 0 0 1-33.91735 187.697336 601.553004 601.553004 0 0 1-235.501602 294.313007A549.525068 549.525068 0 0 1 512 1018.75241a549.397078 549.397078 0 0 1-178.546051-75.5141 600.913054 600.913054 0 0 1-235.501602-294.377002A532.630388 532.630388 0 0 1 64.034997 461.291962V223.038575a63.995 63.995 0 0 1 39.484916-59.13138l383.970002-158.963581a63.995 63.995 0 0 1 49.02017 0l383.970002 158.963581a63.995 63.995 0 0 1 39.484916 59.13138zM512 505.640497V95.880509L163.099258 241.341145V505.640497H512v415.327552a414.495618 414.495618 0 0 0 128.949926-59.38736 491.801578 491.801578 0 0 0 103.6719-96.056496 513.943848 513.943848 0 0 0 116.278916-259.819701H512z" fill="#262626" /></svg>